<?xml version="1.0" encoding="UTF-8"?>
<svg id="meny" xmlns="http://www.w3.org/2000/svg" width="375" height="2400" viewBox="0 0 375 2400">
  <path d="M375,1713.7497s-36.824-13.1357-66.1226,38.3533c-18.0902,31.7914-8.3488,125.5793-74.4506,124.6483-80.0908-1.128-21.9968-157.3614-131.4165-153.4133-68.8787,2.4853-103.0103,248.6509-103.0103,248.6509V473.8606s.4119,230.2697,102.8417,231.5663c95.1807,1.2048,50.6024-220.4819,145.7831-197.5904,99.5704,23.9473,17.7504,186.747,126.3752,186.747.1309,0,0,1019.1662,0,1019.1662Z" fill="#0183e1"/>
  <circle cx="82.3598" cy="604.222" r="30.1205" fill="#0183e1"/>
  <circle cx="107.9723" cy="1804.0061" r="30.1205" fill="#0183e1"/>
  <circle cx="134.167" cy="515.0654" r="19.2771" fill="#0183e1"/>
  <circle cx="165.1155" cy="1900.5405" r="19.2771" fill="#0183e1"/>
  <circle cx="341.3959" cy="596.9931" r="19.2771" fill="#0183e1"/>
  <circle cx="320.3116" cy="528.9208" r="12.6506" fill="#0183e1"/>
  <circle cx="327.7819" cy="1800.2067" r="12.6506" fill="#0183e1"/>
  <circle cx="328.727" cy="1929.4587" r="8.2598" fill="#0183e1"/>
  <circle cx="118.4907" cy="1937.9962" r="8.2598" fill="#0183e1"/>
  <circle cx="95.0125" cy="1879.3008" r="15.7301" fill="#0183e1"/>
  <circle cx="299.9129" cy="1882.5023" r="8.2598" fill="#0183e1"/>
</svg>