<?xml version="1.0" encoding="UTF-8"?>
<svg id="meny" xmlns="http://www.w3.org/2000/svg" width="375" height="2400" viewBox="0 0 375 2400">
  <path d="M.0582,1728.8329s36.824-13.1357,66.1226,38.3533c18.0902,31.7914,8.3488,125.5793,74.4506,124.6483,80.0908-1.128,21.9968-157.3614,131.4165-153.4133,68.8787,2.4853,103.0103,248.6509,103.0103,248.6509V473.8606s-.4119,230.2697-102.8417,231.5663c-95.1807,1.2048-50.6024-220.4819-145.7831-197.5904C26.8629,531.7838,108.6829,694.5835.0582,694.5835c-.1309,0,0,1034.2494,0,1034.2494Z" fill="#01c0d2"/>
  <circle cx="292.6984" cy="604.222" r="30.1205" fill="#01c0d2"/>
  <circle cx="267.0858" cy="1819.0893" r="30.1205" fill="#01c0d2"/>
  <circle cx="240.8912" cy="515.0654" r="19.2771" fill="#01c0d2"/>
  <circle cx="209.9427" cy="1915.6237" r="19.2771" fill="#01c0d2"/>
  <circle cx="33.6622" cy="596.9931" r="19.2771" fill="#01c0d2"/>
  <circle cx="54.7466" cy="528.9208" r="12.6506" fill="#01c0d2"/>
  <circle cx="47.2762" cy="1815.2898" r="12.6506" fill="#01c0d2"/>
  <circle cx="46.3311" cy="1944.5418" r="8.2598" fill="#01c0d2"/>
  <circle cx="256.5675" cy="1953.0793" r="8.2598" fill="#01c0d2"/>
  <circle cx="280.0457" cy="1894.3839" r="15.7301" fill="#01c0d2"/>
  <circle cx="75.1452" cy="1897.5855" r="8.2598" fill="#01c0d2"/>
</svg>