<?xml version="1.0" encoding="UTF-8"?>
<svg id="Layer_1" data-name="Layer 1" xmlns="http://www.w3.org/2000/svg" width="58" height="62" viewBox="0 0 58 62">
  <path d="M47.8979,26.3298l-12.0942-1.2047c-.3831-.0382-.7153-.2813-.8675-.635l-4.7082-10.9446c-.3671-.8534-1.577-.8537-1.9445-.0005l-4.7156,10.9457c-.1522.3534-.4843.5963-.8672.6345l-12.0874,1.2047c-.9197.0917-1.2884,1.2354-.5955,1.847l9.0854,8.0184c.2887.2548.4163.6462.3331,1.0222l-2.5684,11.6157c-.2.9045.7762,1.6114,1.5732,1.1392l10.2756-6.0885c.3328-.1972.7466-.1971,1.0793,0l10.2711,6.0874c.7971.4724,1.7736-.2348,1.5732-1.1395l-2.5723-11.6139c-.0833-.3762.0444-.768.3333-1.0228l9.0918-8.018c.6934-.6115.3247-1.7556-.5952-1.8472ZM37.344,34.4245l-.2168,1.0259-.3239.9948-.4334.9183-.5664.8877-.6969.8073-.785.7033-.8352.5963-.9427.4784-.9724.3535-1.0222.2459-1.0538.104-1.0244-.0517-1.0238-.1664-1.0241-.2983-.9414-.4262-.894-.5442-.8089-.641-.7244-.7558-.6498-.8386-.4853-.8871-.4056-.9738-.2668-1.0226-.1371-1.0259v-1.0502l.1371-1.0259.2668-1.0222.4056-.9705.4853-.8908.6498-.8627.7244-.7278.8089-.6761.894-.5061.9414-.433,1.0241-.3015,1.0238-.156,1.0244-.0589,1.0538.1072,1.0222.2463.9724.3504.9427.4849.8352.5892.785.7036.6969.7832.5664.8907.4334.9429.3239.9979.2168,1.0263.0502,1.0222-.0502,1.0535Z" fill="#fc6e00" fill-rule="evenodd"/>
</svg>