<?xml version="1.0" encoding="UTF-8"?>
<svg id="Layer_1" data-name="Layer 1" xmlns="http://www.w3.org/2000/svg" width="58" height="62" xmlns:xlink="http://www.w3.org/1999/xlink" viewBox="0 0 58 62">
  <defs>
    <linearGradient id="linear-gradient" x1="29.4818" y1="54.9925" x2="28.31" y2="6.9526" gradientUnits="userSpaceOnUse">
      <stop offset="0" stop-color="#fc6e00"/>
      <stop offset=".5362" stop-color="#fc0" stop-opacity=".8"/>
      <stop offset=".9114" stop-color="#fc7800"/>
      <stop offset="1" stop-color="#fc7e00"/>
    </linearGradient>
    <linearGradient id="linear-gradient-2" x1="29.18" y1="4.208" x2="28.4769" y2="55.5287" gradientUnits="userSpaceOnUse">
      <stop offset=".2698" stop-color="#ffea6d"/>
      <stop offset=".4142" stop-color="#ffcd02"/>
      <stop offset="1" stop-color="#fc0"/>
    </linearGradient>
  </defs>
  <g>
    <ellipse cx="29.157" cy="33.1947" rx="28.843" ry="28.8053" fill="#fc6e00"/>
    <ellipse cx="28.843" cy="28.8053" rx="24.4962" ry="24.4642" fill="url(#linear-gradient)"/>
    <path d="M29.0403,6.0447C14.601,6.0447,2.8956,17.7348,2.8956,32.1552s11.7055,26.1106,26.1448,26.1106,26.1448-11.6901,26.1448-26.1106S43.4797,6.0447,29.0403,6.0447ZM29.0403,54.3308c-12.2632,0-22.2046-9.9283-22.2046-22.1756S16.7771,9.9797,29.0403,9.9797s22.2046,9.9283,22.2046,22.1756-9.9413,22.1756-22.2046,22.1756Z" fill="#fc6e00"/>
    <path d="M28.843,0C12.9135,0,0,12.8965,0,28.8053s12.9135,28.8053,28.843,28.8053,28.843-12.8965,28.843-28.8053S44.7726,0,28.843,0Z" fill="url(#linear-gradient-2)"/>
  </g>
  <g>
    <path d="M41.0809,25.8714l-.2309-13.8233c-.0163-.9743-1.0539-1.5895-1.9165-1.1361l-12.2381,6.4317c-.906.4761-.9389,1.7613-.0585,2.2832l2.0674,1.2256c.8804.5219.8475,1.8071-.0585,2.2832l-8.2828,4.353c-.906.4761-.9389,1.7613-.0585,2.2832l3.2815,1.9453c.6215.3684.8266,1.1709.4582,1.7923l-2.6878,4.6488c-.3684.6215-.1633,1.4239.4582,1.7923l.7617.4516c.6215.3684,1.4239.1633,1.7923-.4582l2.6878-4.6488c.3684-.6215,1.1709-.8266,1.7923-.4582l3.9246,2.3265c.8804.5219,1.9921-.1238,1.975-1.1471l-.1563-9.3557c-.0171-1.0233,1.0946-1.669,1.975-1.1471l2.5385,1.5049c.8804.5219,1.9921-.1238,1.975-1.1471Z" fill="#fc6e00"/>
    <circle cx="20.4882" cy="43.6239" r="4.7997" fill="#fc6e00"/>
  </g>
</svg>