<?xml version="1.0" encoding="UTF-8"?>
<svg id="Layer_1" data-name="Layer 1" xmlns="http://www.w3.org/2000/svg" width="58" height="62" viewBox="0 0 58 62">
  <path d="M22.3764,45.5148c-1.8537-.6783-3.7734-1.4907-5.0968-3.001-.3763-.4294-.3022-.595.0311-.8737,2.3737-1.9849,6.2748-.705,8.7306.3037,4.5358,1.863,10.0529,1.485,14.1113-1.3681,3.9905-2.8054,6.2948-7.3284,6.7241-12.1393.91-10.197-7.8912-19.2269-17.8117-19.9464-4.9327-.3578-9.7419,1.6294-12.6923,5.6352-2.7251,3.6999-3.4159,8.9433-.7871,12.8863,2.7574,4.136,8.3196,6.3021,12.9132,3.9092,4.9226-2.5643,5.6527-10.0864-.1514-12.0519-2.6949-.9126-3.8515,3.3467-1.1727,4.2538,1.7962.6082.7868,2.8263-.2405,3.5991-1.4015,1.0543-3.2782.992-4.8203.3027-3.3461-1.4956-4.5743-5.2032-3.2073-8.5095,3.5915-8.6867,15.224-6.0611,20.1884-.3244,5.0347,5.818,4.6662,16.5228-3.2616,19.75-1.7184.6995-3.649.9114-5.4815.6557-1.9476-.2719-3.6182-1.2635-5.4887-1.7795-2.771-.7644-5.8952-.8239-8.5579.3555-2.3961,1.0613-4.1961,3.3648-3.4864,6.0898.938,3.6021,5.2822,5.3712,8.385,6.5066,2.6702.9771,3.8215-3.2846,1.1727-4.2538h0Z" fill="#fc6e00"/>
</svg>