<?xml version="1.0" encoding="UTF-8"?>
<svg id="Layer_1" data-name="Layer 1" xmlns="http://www.w3.org/2000/svg" width="58" height="62" xmlns:xlink="http://www.w3.org/1999/xlink" viewBox="0 0 58 62">
  <defs>
    <linearGradient id="linear-gradient" x1="29.4818" y1="54.9925" x2="28.31" y2="6.9526" gradientUnits="userSpaceOnUse">
      <stop offset="0" stop-color="#fc6e00"/>
      <stop offset=".5362" stop-color="#fc0" stop-opacity=".8"/>
      <stop offset=".9114" stop-color="#fc7800"/>
      <stop offset="1" stop-color="#fc7e00"/>
    </linearGradient>
    <linearGradient id="linear-gradient-2" x1="29.18" y1="4.208" x2="28.4769" y2="55.5287" gradientUnits="userSpaceOnUse">
      <stop offset=".2698" stop-color="#ffea6d"/>
      <stop offset=".4142" stop-color="#ffcd02"/>
      <stop offset="1" stop-color="#fc0"/>
    </linearGradient>
  </defs>
  <g>
    <ellipse cx="29.157" cy="33.1947" rx="28.843" ry="28.8053" fill="#fc6e00"/>
    <ellipse cx="28.843" cy="28.8053" rx="24.4962" ry="24.4642" fill="url(#linear-gradient)"/>
    <path d="M29.0403,6.0447C14.601,6.0447,2.8956,17.7348,2.8956,32.1552s11.7055,26.1106,26.1448,26.1106,26.1448-11.6901,26.1448-26.1106S43.4797,6.0447,29.0403,6.0447ZM29.0403,54.3308c-12.2632,0-22.2046-9.9283-22.2046-22.1756S16.7771,9.9797,29.0403,9.9797s22.2046,9.9283,22.2046,22.1756-9.9413,22.1756-22.2046,22.1756Z" fill="#fc6e00"/>
    <path d="M28.843,0C12.9135,0,0,12.8965,0,28.8053s12.9135,28.8053,28.843,28.8053,28.843-12.8965,28.843-28.8053S44.7726,0,28.843,0Z" fill="url(#linear-gradient-2)"/>
  </g>
  <path d="M47.8979,22.0063l-12.0942-1.2047c-.3831-.0382-.7153-.2813-.8675-.635l-4.7082-10.9446c-.3671-.8534-1.577-.8537-1.9445-.0005l-4.7156,10.9457c-.1522.3534-.4843.5963-.8672.6345l-12.0874,1.2047c-.9197.0917-1.2884,1.2354-.5955,1.847l9.0854,8.0184c.2887.2548.4163.6462.3331,1.0222l-2.5684,11.6157c-.2.9045.7762,1.6114,1.5732,1.1392l10.2756-6.0885c.3328-.1972.7466-.1971,1.0793,0l10.2711,6.0874c.7971.4724,1.7736-.2348,1.5732-1.1395l-2.5723-11.6139c-.0833-.3762.0444-.768.3333-1.0228l9.0918-8.018c.6934-.6115.3247-1.7556-.5952-1.8472ZM37.344,30.101l-.2168,1.0259-.3239.9948-.4334.9183-.5664.8877-.6969.8073-.785.7033-.8352.5963-.9427.4784-.9724.3535-1.0222.2459-1.0538.104-1.0244-.0517-1.0238-.1664-1.0241-.2983-.9414-.4262-.894-.5442-.8089-.641-.7244-.7558-.6498-.8386-.4853-.8871-.4056-.9738-.2668-1.0226-.1371-1.0259v-1.0502l.1371-1.0259.2668-1.0222.4056-.9705.4853-.8908.6498-.8627.7244-.7278.8089-.6761.894-.5061.9414-.433,1.0241-.3015,1.0238-.156,1.0244-.0589,1.0538.1072,1.0222.2463.9724.3504.9427.4849.8352.5892.785.7036.6969.7832.5664.8907.4334.9429.3239.9979.2168,1.0263.0502,1.0222-.0502,1.0535Z" fill="#fc6e00" fill-rule="evenodd"/>
</svg>