<?xml version="1.0" encoding="UTF-8"?>
<svg id="Layer_1" data-name="Layer 1" xmlns="http://www.w3.org/2000/svg" width="58" height="62" xmlns:xlink="http://www.w3.org/1999/xlink" viewBox="0 0 58 62">
  <defs>
    <linearGradient id="linear-gradient" x1="29.4818" y1="54.9925" x2="28.31" y2="6.9526" gradientUnits="userSpaceOnUse">
      <stop offset="0" stop-color="#fc6e00"/>
      <stop offset=".5362" stop-color="#fc0" stop-opacity=".8"/>
      <stop offset=".9114" stop-color="#fc7800"/>
      <stop offset="1" stop-color="#fc7e00"/>
    </linearGradient>
    <linearGradient id="linear-gradient-2" x1="29.18" y1="4.208" x2="28.4769" y2="55.5287" gradientUnits="userSpaceOnUse">
      <stop offset=".2698" stop-color="#ffea6d"/>
      <stop offset=".4142" stop-color="#ffcd02"/>
      <stop offset="1" stop-color="#fc0"/>
    </linearGradient>
  </defs>
  <g>
    <ellipse cx="29.157" cy="33.1947" rx="28.843" ry="28.8053" fill="#fc6e00"/>
    <ellipse cx="28.843" cy="28.8053" rx="24.4962" ry="24.4642" fill="url(#linear-gradient)"/>
    <path d="M29.0403,6.0447C14.601,6.0447,2.8956,17.7348,2.8956,32.1552s11.7055,26.1106,26.1448,26.1106,26.1448-11.6901,26.1448-26.1106S43.4797,6.0447,29.0403,6.0447ZM29.0403,54.3308c-12.2632,0-22.2046-9.9283-22.2046-22.1756S16.7771,9.9797,29.0403,9.9797s22.2046,9.9283,22.2046,22.1756-9.9413,22.1756-22.2046,22.1756Z" fill="#fc6e00"/>
    <path d="M28.843,0C12.9135,0,0,12.8965,0,28.8053s12.9135,28.8053,28.843,28.8053,28.843-12.8965,28.843-28.8053S44.7726,0,28.843,0Z" fill="url(#linear-gradient-2)"/>
  </g>
  <path d="M22.3764,44.7959c-1.8537-.6783-3.7734-1.4907-5.0968-3.001-.3763-.4294-.3022-.595.0311-.8737,2.3737-1.9849,6.2748-.705,8.7306.3037,4.5358,1.863,10.0529,1.485,14.1113-1.3681,3.9905-2.8054,6.2948-7.3284,6.7241-12.1393.91-10.197-7.8912-19.2269-17.8117-19.9464-4.9327-.3578-9.7419,1.6294-12.6923,5.6352-2.7251,3.6999-3.4159,8.9433-.7871,12.8863,2.7574,4.136,8.3196,6.3021,12.9132,3.9092,4.9226-2.5643,5.6527-10.0864-.1514-12.0519-2.6949-.9126-3.8515,3.3467-1.1727,4.2538,1.7962.6082.7868,2.8263-.2405,3.5991-1.4015,1.0543-3.2782.992-4.8203.3027-3.3461-1.4956-4.5743-5.2032-3.2073-8.5095,3.5915-8.6867,15.224-6.0611,20.1884-.3244,5.0347,5.818,4.6662,16.5228-3.2616,19.75-1.7184.6995-3.649.9114-5.4815.6557-1.9476-.2719-3.6182-1.2635-5.4887-1.7795-2.771-.7644-5.8952-.8239-8.5579.3555-2.3961,1.0613-4.1961,3.3648-3.4864,6.0898.938,3.6021,5.2822,5.3712,8.385,6.5066,2.6702.9771,3.8215-3.2846,1.1727-4.2538h0Z" fill="#fc6e00"/>
</svg>