<?xml version="1.0" encoding="UTF-8"?>
<svg id="Layer_1" data-name="Layer 1" xmlns="http://www.w3.org/2000/svg" width="58" height="62" viewBox="0 0 58 62">
  <g>
    <rect x="28.8647" y="27.4695" width="2.4763" height="1.4401" fill="#3d4b5a"/>
    <path d="M17.0949,33.2061l1.4205.2364c.1225-.7439.4032-1.4604.8178-2.0911l-1.2014-.794c-.5249.7972-.8817,1.7065-1.0369,2.6487Z" fill="#3d4b5a"/>
    <path d="M19.6731,28.9037l.88,1.1399c.5976-.4606,1.2908-.7952,2.0231-.9733l-.3409-1.3991c-.9285.2257-1.8072.65-2.5623,1.2326Z" fill="#3d4b5a"/>
    <rect x="24.3918" y="27.4695" width="2.4763" height="1.4401" fill="#3d4b5a"/>
  </g>
  <path d="M18.9928,34.8991h-4.126c-1.3273,0-2.1667-1.4254-1.5229-2.5861l2.063-5.4032c.6632-1.1958,2.3827-1.1958,3.0459,0l2.063,5.4032c.6437,1.1607-.1957,2.5861-1.5229,2.5861Z" fill="#3d4b5a"/>
  <path d="M45.969,16.6911H10.5636c-1.1046,0-2,.8954-2,2v23.5298c0,1.1046.8954,2,2,2h35.4055c1.1046,0,2-.8954,2-2v-23.5298c0-1.1046-.8954-2-2-2ZM33.3944,42.1967H10.9927v-22.9415h22.4017v22.9415ZM36.9997,40.8495c-1.2936,0-2.3423-1.0487-2.3423-2.3423s1.0487-2.3423,2.3423-2.3423,2.3423,1.0487,2.3423,2.3423-1.0487,2.3423-2.3423,2.3423ZM43.8553,40.8495c-1.2936,0-2.3423-1.0487-2.3423-2.3423s1.0487-2.3423,2.3423-2.3423,2.3423,1.0487,2.3423,2.3423-1.0487,2.3423-2.3423,2.3423Z" fill="#3d4b5a"/>
</svg>