<?xml version="1.0" encoding="UTF-8"?>
<svg id="Layer_1" data-name="Layer 1" xmlns="http://www.w3.org/2000/svg" width="58" height="62" xmlns:xlink="http://www.w3.org/1999/xlink" viewBox="0 0 58 62">
  <defs>
    <linearGradient id="linear-gradient" x1="29.4818" y1="54.9925" x2="28.31" y2="6.9526" gradientUnits="userSpaceOnUse">
      <stop offset="0" stop-color="#fc6e00"/>
      <stop offset=".5362" stop-color="#fc0" stop-opacity=".8"/>
      <stop offset=".9114" stop-color="#fc7800"/>
      <stop offset="1" stop-color="#fc7e00"/>
    </linearGradient>
    <linearGradient id="linear-gradient-2" x1="29.18" y1="4.208" x2="28.4769" y2="55.5287" gradientUnits="userSpaceOnUse">
      <stop offset=".2698" stop-color="#ffea6d"/>
      <stop offset=".4142" stop-color="#ffcd02"/>
      <stop offset="1" stop-color="#fc0"/>
    </linearGradient>
  </defs>
  <g>
    <ellipse cx="29.157" cy="33.1947" rx="28.843" ry="28.8053" fill="#fc6e00"/>
    <ellipse cx="28.843" cy="28.8053" rx="24.4962" ry="24.4642" fill="url(#linear-gradient)"/>
    <path d="M29.0403,6.0447C14.601,6.0447,2.8956,17.7348,2.8956,32.1552s11.7055,26.1106,26.1448,26.1106,26.1448-11.6901,26.1448-26.1106S43.4797,6.0447,29.0403,6.0447ZM29.0403,54.3308c-12.2632,0-22.2046-9.9283-22.2046-22.1756S16.7771,9.9797,29.0403,9.9797s22.2046,9.9283,22.2046,22.1756-9.9413,22.1756-22.2046,22.1756Z" fill="#fc6e00"/>
    <path d="M28.843,0C12.9135,0,0,12.8965,0,28.8053s12.9135,28.8053,28.843,28.8053,28.843-12.8965,28.843-28.8053S44.7726,0,28.843,0Z" fill="url(#linear-gradient-2)"/>
  </g>
  <g>
    <rect x="28.8647" y="19.4737" width="2.4763" height="1.4401" fill="#fc6e00"/>
    <path d="M17.0949,25.2102l1.4205.2364c.1225-.7439.4032-1.4604.8178-2.0911l-1.2014-.794c-.5249.7972-.8817,1.7065-1.0369,2.6487Z" fill="#fc6e00"/>
    <path d="M19.6731,20.9079l.88,1.1399c.5976-.4606,1.2908-.7952,2.0231-.9733l-.3409-1.3991c-.9285.2257-1.8072.65-2.5623,1.2326Z" fill="#fc6e00"/>
    <rect x="24.3918" y="19.4737" width="2.4763" height="1.4401" fill="#fc6e00"/>
  </g>
  <path d="M18.9928,37.9031h-4.126c-1.3273,0-2.1667-1.4254-1.5229-2.5861l2.063-5.4032c.6632-1.1958,2.3827-1.1958,3.0459,0l2.063,5.4032c.6437,1.1607-.1957,2.5861-1.5229,2.5861Z" fill="#fc6e00"/>
  <path d="M45.969,14.8416H10.5636c-1.1046,0-2,.8954-2,2v23.5298c0,1.1046.8954,2,2,2h35.4055c1.1046,0,2-.8954,2-2v-23.5298c0-1.1046-.8954-2-2-2ZM33.3944,40.3472H10.9927v-22.9415h22.4017v22.9415ZM36.9997,39c-1.2936,0-2.3423-1.0487-2.3423-2.3423s1.0487-2.3423,2.3423-2.3423,2.3423,1.0487,2.3423,2.3423-1.0487,2.3423-2.3423,2.3423ZM43.8553,39c-1.2936,0-2.3423-1.0487-2.3423-2.3423s1.0487-2.3423,2.3423-2.3423,2.3423,1.0487,2.3423,2.3423-1.0487,2.3423-2.3423,2.3423Z" fill="#fc6e00"/>
</svg>