<?xml version="1.0" encoding="UTF-8"?>
<svg id="Layer_1" data-name="Layer 1" xmlns="http://www.w3.org/2000/svg" width="58" height="62" viewBox="0 0 58 62">
  <path d="M41.0809,25.4601l-.2309-13.8233c-.0163-.9743-1.0539-1.5895-1.9165-1.1361l-12.2381,6.4317c-.906.4761-.9389,1.7613-.0585,2.2832l2.0674,1.2256c.8804.5219.8475,1.8071-.0585,2.2832l-8.2828,4.353c-.906.4761-.9389,1.7613-.0585,2.2832l3.2815,1.9453c.6215.3684.8266,1.1709.4582,1.7923l-2.6878,4.6488c-.3684.6215-.1633,1.4239.4582,1.7923l.7617.4516c.6215.3684,1.4239.1633,1.7923-.4582l2.6878-4.6488c.3684-.6215,1.1709-.8266,1.7923-.4582l3.9246,2.3265c.8804.5219,1.9921-.1238,1.975-1.1471l-.1563-9.3557c-.0171-1.0233,1.0946-1.669,1.975-1.1471l2.5385,1.5049c.8804.5219,1.9921-.1238,1.975-1.1471Z" fill="#fc6e00"/>
  <circle cx="20.4882" cy="43.2125" r="4.7997" fill="#fc6e00"/>
</svg>