<?xml version="1.0" encoding="UTF-8"?>
<svg id="Layer_1" data-name="Layer 1" xmlns="http://www.w3.org/2000/svg" width="58" height="62" xmlns:xlink="http://www.w3.org/1999/xlink" viewBox="0 0 58 62">
  <defs>
    <linearGradient id="linear-gradient" x1="29.4818" y1="54.9925" x2="28.31" y2="6.9526" gradientUnits="userSpaceOnUse">
      <stop offset="0" stop-color="#fc6e00"/>
      <stop offset=".5362" stop-color="#fc0" stop-opacity=".8"/>
      <stop offset=".9114" stop-color="#fc7800"/>
      <stop offset="1" stop-color="#fc7e00"/>
    </linearGradient>
    <linearGradient id="linear-gradient-2" x1="29.18" y1="4.208" x2="28.4769" y2="55.5287" gradientUnits="userSpaceOnUse">
      <stop offset=".2698" stop-color="#ffea6d"/>
      <stop offset=".4142" stop-color="#ffcd02"/>
      <stop offset="1" stop-color="#fc0"/>
    </linearGradient>
  </defs>
  <g>
    <ellipse cx="29.157" cy="33.1947" rx="28.843" ry="28.8053" fill="#fc6e00"/>
    <ellipse cx="28.843" cy="28.8053" rx="24.4962" ry="24.4642" fill="url(#linear-gradient)"/>
    <path d="M29.0403,6.0447C14.601,6.0447,2.8956,17.7348,2.8956,32.1552s11.7055,26.1106,26.1448,26.1106,26.1448-11.6901,26.1448-26.1106S43.4797,6.0447,29.0403,6.0447ZM29.0403,54.3308c-12.2632,0-22.2046-9.9283-22.2046-22.1756S16.7771,9.9797,29.0403,9.9797s22.2046,9.9283,22.2046,22.1756-9.9413,22.1756-22.2046,22.1756Z" fill="#fc6e00"/>
    <path d="M28.843,0C12.9135,0,0,12.8965,0,28.8053s12.9135,28.8053,28.843,28.8053,28.843-12.8965,28.843-28.8053S44.7726,0,28.843,0Z" fill="url(#linear-gradient-2)"/>
  </g>
  <g>
    <rect x="39.1482" y="29.1388" width="11.8846" height="4.5421" rx="1.514" ry="1.514" fill="#fc6e00"/>
    <rect x="35.8325" y="19.0643" width="11.8846" height="4.5421" rx="1.514" ry="1.514" transform="translate(-2.8508 35.7882) rotate(-45)" fill="#fc6e00"/>
    <rect x="26.3677" y="9.9033" width="4.5421" height="11.8846" rx="1.514" ry="1.514" fill="#fc6e00"/>
    <rect x="7.2632" y="29.3939" width="11.8846" height="4.5421" rx="1.514" ry="1.514" fill="#fc6e00"/>
    <rect x="14.2501" y="15.6481" width="4.5421" height="11.8846" rx="1.514" ry="1.514" transform="translate(-10.4278 18.0059) rotate(-45)" fill="#fc6e00"/>
    <path d="M36.4947,31.4788c0-3.9902-3.2346-7.2248-7.2247-7.2248s-7.2248,3.2346-7.2248,7.2248c0,3.023,1.8601,5.6049,4.4954,6.6825-.0181.0987-.0591.189-.0591.2928v8.2287c0,.9282.7524,1.6805,1.6805,1.6805h1.988c.9282,0,1.6805-.7524,1.6805-1.6805v-8.2287c0-.0802-.0348-.1489-.0456-.2262,2.7449-1.024,4.7098-3.6473,4.7098-6.7492Z" fill="#fc6e00"/>
  </g>
</svg>