<?xml version="1.0" encoding="UTF-8"?>
<svg id="Layer_1" data-name="Layer 1" xmlns="http://www.w3.org/2000/svg" width="58" height="62" viewBox="0 0 58 62">
  <rect x="39.1482" y="31.15" width="11.8846" height="4.5421" rx="1.514" ry="1.514" fill="#3d4b5a"/>
  <rect x="35.8325" y="21.0754" width="11.8846" height="4.5421" rx="1.514" ry="1.514" transform="translate(-4.2729 36.3773) rotate(-45)" fill="#3d4b5a"/>
  <rect x="26.3677" y="11.9144" width="4.5421" height="11.8846" rx="1.514" ry="1.514" fill="#3d4b5a"/>
  <rect x="7.2632" y="31.405" width="11.8846" height="4.5421" rx="1.514" ry="1.514" fill="#3d4b5a"/>
  <rect x="14.2501" y="17.6592" width="4.5421" height="11.8846" rx="1.514" ry="1.514" transform="translate(-11.8498 18.595) rotate(-45)" fill="#3d4b5a"/>
  <path d="M36.4947,33.4899c0-3.9902-3.2346-7.2248-7.2247-7.2248s-7.2248,3.2346-7.2248,7.2248c0,3.023,1.8601,5.6049,4.4954,6.6825-.0181.0987-.0591.189-.0591.2928v8.2287c0,.9282.7524,1.6805,1.6805,1.6805h1.988c.9282,0,1.6805-.7524,1.6805-1.6805v-8.2287c0-.0802-.0348-.1489-.0456-.2262,2.7449-1.024,4.7098-3.6473,4.7098-6.7492Z" fill="#3d4b5a"/>
</svg>