<?xml version="1.0" encoding="UTF-8"?>
<svg id="Layer_1" data-name="Layer 1" xmlns="http://www.w3.org/2000/svg" width="58" height="62" viewBox="0 0 58 62">
  <path d="M41.032,32.6585l.2582-21.2726c.0124-1.0259-1.0609-1.7047-1.9825-1.2538l-19.1094,9.35c-.9679.4736-1.0416,1.8251-.1309,2.4011l5.7115,3.6123c.6429.4066.8344,1.2573.4278,1.9002l-8.2686,13.0738c-.4066.6429-.215,1.4936.4278,1.9002l1.875,1.1858c.6429.4066,1.4936.215,1.9002-.4278l8.2686-13.0738c.4066-.6429,1.2573-.8344,1.9002-.4278l6.6088,4.1798c.9107.576,2.1003-.0698,2.1134-1.1473Z" fill="#fc6e00"/>
  <circle cx="18.636" cy="43.5927" r="5.3011" fill="#fc6e00"/>
</svg>