<?xml version="1.0" encoding="UTF-8"?>
<svg id="Layer_1" data-name="Layer 1" xmlns="http://www.w3.org/2000/svg" width="58" height="62" viewBox="0 0 58 62">
  <g>
    <path d="M31.6703,18.7704l-1.8016,1.1585c-.5515.3547-1.2638.3361-1.7961-.0467l-1.4153-1.0178c-.2749-.1977-.6055-.3029-.9441-.3004l-11.0722,1.1463c-.8773.0065-1.5851.7195-1.5851,1.5969v17.7337c0,.882.715,1.5969,1.5969,1.5969l11.0688-1.0647c.3335,0,.6585.1044.9297.2985l1.4239,1.0195c.5312.3803,1.2405.3987,1.7908.0464l1.8109-1.1595c.257-.1646.5559-.2521.8611-.2521l10.7846,1.0647c.882,0,1.5969-.715,1.5969-1.5969v-17.734c0-.8772-.7076-1.5902-1.5848-1.5969l-10.7884-1.1462c-.3104-.0023-.6147.0858-.8758.2537Z" fill="#fc6e00"/>
    <path d="M31.5339,15.5367l-1.8016,1.1585c-.5515.3547-1.2638.3361-1.7961-.0467l-1.4153-1.0178c-.2749-.1977-.6055-.3029-.9441-.3004l-7.8781,1.1463c-.8773.0065-1.5851.7195-1.5851,1.5969v17.7337c0,.882.715,1.5969,1.5969,1.5969l7.8746-1.0647c.3335,0,.6585.1044.9297.2985l1.4239,1.0195c.5312.3803,1.2405.3987,1.7908.0464l1.8109-1.1595c.257-.1646,8.4516.8127,8.4516.8127.882,0,1.5969-.715,1.5969-1.5969v-17.734c0-.8772-.7076-1.5902-1.5848-1.5969,0,0-8.209-1.0604-8.4701-.8925Z" fill="#fcfcd8"/>
    <path d="M29.7323,16.6952c-.5515.3547-1.2638.3361-1.7961-.0467l.0025,21.0089c.5312.3803,1.2405.3987,1.7908.0464l.0028-21.0086Z" fill="#fbea90"/>
  </g>
  <g>
    <ellipse cx="29.157" cy="33.1947" rx="28.843" ry="28.8053" fill="#ba5357"/>
    <path d="M28.843,0C12.9135,0,0,12.8965,0,28.8053s12.9135,28.8053,28.843,28.8053,28.843-12.8965,28.843-28.8053S44.7726,0,28.843,0ZM28.843,51.4151c-12.5033,0-22.6393-10.1227-22.6393-22.6098S16.3397,6.1955,28.843,6.1955s22.6394,10.1227,22.6394,22.6098-10.136,22.6098-22.6394,22.6098Z" fill="#fcd1a6"/>
    <ellipse cx="28.7999" cy="28.9705" rx="26.8209" ry="26.7859" fill="#fcd1a6"/>
  </g>
  <g>
    <path d="M32.0955,19.6392l-1.7871,1.1585c-.5471.3547-1.2536.3361-1.7817-.0467l-1.4039-1.0178c-.2727-.1977-.6007-.3029-.9366-.3004l-10.9832,1.1463c-.8703.0065-1.5724.7195-1.5724,1.5969v17.7337c0,.882.7092,1.5969,1.5841,1.5969l10.9798-1.0647c.3308,0,.6532.1044.9222.2985l1.4125,1.0195c.5269.3803,1.2306.3987,1.7764.0464l1.7963-1.1595c.255-.1646.5514-.2521.8542-.2521l10.6979,1.0647c.8749,0,1.5841-.715,1.5841-1.5969v-17.734c0-.8772-.7019-1.5902-1.5721-1.5969l-10.7017-1.1462c-.3079-.0023-.6098.0858-.8688.2537Z" fill="#ba5357"/>
    <path d="M31.9602,16.4054l-1.7871,1.1585c-.5471.3547-1.2536.3361-1.7817-.0467l-1.4039-1.0178c-.2727-.1977-.6007-.3029-.9366-.3004l-7.8147,1.1463c-.8703.0065-1.5724.7195-1.5724,1.5969v17.7337c0,.882.7092,1.5969,1.5841,1.5969l7.8113-1.0647c.3308,0,.6532.1044.9222.2985l1.4125,1.0195c.5269.3803,1.2306.3987,1.7764.0464l1.7963-1.1595c.255-.1646,8.3836.8127,8.3836.8127.8749,0,1.5841-.715,1.5841-1.5969v-17.734c0-.8772-.7019-1.5902-1.5721-1.5969,0,0-8.143-1.0604-8.402-.8925Z" fill="#fcfcd8"/>
    <path d="M30.1731,17.564c-.5471.3547-1.2536.3361-1.7817-.0467l.0025,21.0089c.5269.3803,1.2306.3987,1.7764.0464l.0028-21.0086Z" fill="#f8da9a"/>
  </g>
</svg>