<?xml version="1.0" encoding="UTF-8"?>
<svg id="Layer_1" data-name="Layer 1" xmlns="http://www.w3.org/2000/svg" width="58" height="62" xmlns:xlink="http://www.w3.org/1999/xlink" viewBox="0 0 58 62">
  <defs>
    <linearGradient id="linear-gradient" x1="29.8158" y1="54.9925" x2="28.6441" y2="6.9526" gradientUnits="userSpaceOnUse">
      <stop offset="0" stop-color="#fc6e00"/>
      <stop offset=".5362" stop-color="#fc0" stop-opacity=".8"/>
      <stop offset=".9114" stop-color="#fc7800"/>
      <stop offset="1" stop-color="#fc7e00"/>
    </linearGradient>
    <linearGradient id="linear-gradient-2" x1="29.514" y1="4.208" x2="28.811" y2="55.5287" gradientUnits="userSpaceOnUse">
      <stop offset=".2698" stop-color="#ffea6d"/>
      <stop offset=".4142" stop-color="#ffcd02"/>
      <stop offset="1" stop-color="#fc0"/>
    </linearGradient>
    <linearGradient id="linear-gradient-3" x1="29.3715" y1="62.1936" x2="29.3715" y2="-6.5901" gradientUnits="userSpaceOnUse">
      <stop offset="0" stop-color="#ffea6d"/>
      <stop offset=".8333" stop-color="#ffcd02"/>
      <stop offset="1" stop-color="#fc0"/>
    </linearGradient>
  </defs>
  <g>
    <g>
      <ellipse cx="29.491" cy="33.1947" rx="28.843" ry="28.8053" fill="#fc6e00"/>
      <ellipse cx="29.1771" cy="28.8053" rx="24.4962" ry="24.4642" fill="url(#linear-gradient)"/>
      <path d="M29.3744,6.0447C14.9351,6.0447,3.2296,17.7348,3.2296,32.1552s11.7055,26.1106,26.1448,26.1106,26.1448-11.6901,26.1448-26.1106S43.8138,6.0447,29.3744,6.0447ZM29.3744,54.3308c-12.2632,0-22.2046-9.9283-22.2046-22.1756S17.1112,9.9797,29.3744,9.9797s22.2046,9.9283,22.2046,22.1756-9.9413,22.1756-22.2046,22.1756Z" fill="#fc6e00"/>
      <path d="M29.1771,0C13.2476,0,.3341,12.8965.3341,28.8053s12.9135,28.8053,28.843,28.8053,28.843-12.8965,28.843-28.8053S45.1066,0,29.1771,0ZM29.1771,51.4151c-12.5033,0-22.6393-10.1227-22.6393-22.6098S16.6737,6.1955,29.1771,6.1955s22.6394,10.1227,22.6394,22.6098-10.136,22.6098-22.6394,22.6098Z" fill="url(#linear-gradient-2)"/>
    </g>
    <g>
      <path d="M11.9276,41.6799c-3.5983-6.2236-3.5983-13.8921,0-20.1158,3.5983-6.2236,10.2473-10.0579,17.4438-10.0579s13.8456,3.8342,17.4438,10.0579c3.5983,6.2236,3.5983,13.8921,0,20.1158-3.5983,6.2236-10.2473,10.0579-17.4438,10.0579s-13.8456-3.8342-17.4438-10.0579ZM29.3715,34.1365c-1.3906,0-2.5169-1.1257-2.5169-2.5145s1.1263-2.5145,2.5169-2.5145,2.5169,1.1257,2.5169,2.5145-1.1263,2.5145-2.5169,2.5145Z" fill="#fc6e00"/>
      <path d="M11.9276,38.7944c-3.5983-6.2236-3.5983-13.8921,0-20.1158,3.5983-6.2236,10.2473-10.0579,17.4438-10.0579s13.8456,3.8342,17.4438,10.0579c3.5983,6.2236,3.5983,13.8921,0,20.1158-3.5983,6.2236-10.2473,10.0579-17.4438,10.0579s-13.8456-3.8342-17.4438-10.0579Z" fill="url(#linear-gradient-3)"/>
    </g>
  </g>
  <g>
    <path d="M31.6703,18.7704l-1.8016,1.1585c-.5515.3547-1.2638.3361-1.7961-.0467l-1.4153-1.0178c-.2749-.1977-.6055-.3029-.9441-.3004l-11.0722,1.1463c-.8773.0065-1.5851.7195-1.5851,1.5969v17.7337c0,.882.715,1.5969,1.5969,1.5969l11.0688-1.0647c.3335,0,.6585.1044.9297.2985l1.4239,1.0195c.5312.3803,1.2405.3987,1.7908.0464l1.8109-1.1595c.257-.1646.5559-.2521.8611-.2521l10.7846,1.0647c.882,0,1.5969-.715,1.5969-1.5969v-17.734c0-.8772-.7076-1.5902-1.5848-1.5969l-10.7884-1.1462c-.3104-.0023-.6147.0858-.8758.2537Z" fill="#fc6e00"/>
    <path d="M31.5339,15.5367l-1.8016,1.1585c-.5515.3547-1.2638.3361-1.7961-.0467l-1.4153-1.0178c-.2749-.1977-.6055-.3029-.9441-.3004l-7.8781,1.1463c-.8773.0065-1.5851.7195-1.5851,1.5969v17.7337c0,.882.715,1.5969,1.5969,1.5969l7.8746-1.0647c.3335,0,.6585.1044.9297.2985l1.4239,1.0195c.5312.3803,1.2405.3987,1.7908.0464l1.8109-1.1595c.257-.1646,8.4516.8127,8.4516.8127.882,0,1.5969-.715,1.5969-1.5969v-17.734c0-.8772-.7076-1.5902-1.5848-1.5969,0,0-8.209-1.0604-8.4701-.8925Z" fill="#fcfcd8"/>
    <path d="M29.7323,16.6952c-.5515.3547-1.2638.3361-1.7961-.0467l.0025,21.0089c.5312.3803,1.2405.3987,1.7908.0464l.0028-21.0086Z" fill="#fbea90"/>
  </g>
</svg>