<?xml version="1.0" encoding="UTF-8"?>
<svg id="Layer_1" data-name="Layer 1" xmlns="http://www.w3.org/2000/svg" width="58" height="62" viewBox="0 0 58 62">
  <g>
    <ellipse cx="29.157" cy="33.1947" rx="28.843" ry="28.8053" fill="#233f56"/>
    <ellipse cx="28.843" cy="28.8053" rx="24.4962" ry="24.4642" fill="#3d4b5a"/>
    <path d="M29.0403,6.0447C14.601,6.0447,2.8956,17.7348,2.8956,32.1552s11.7055,26.1106,26.1448,26.1106,26.1448-11.6901,26.1448-26.1106S43.4797,6.0447,29.0403,6.0447ZM29.0403,54.3308c-12.2632,0-22.2046-9.9283-22.2046-22.1756S16.7771,9.9797,29.0403,9.9797s22.2046,9.9283,22.2046,22.1756-9.9413,22.1756-22.2046,22.1756Z" fill="#233f56"/>
    <path d="M28.843,0C12.9135,0,0,12.8965,0,28.8053s12.9135,28.8053,28.843,28.8053,28.843-12.8965,28.843-28.8053S44.7726,0,28.843,0ZM28.843,51.4151c-12.5033,0-22.6393-10.1227-22.6393-22.6098S16.3397,6.1955,28.843,6.1955s22.6394,10.1227,22.6394,22.6098-10.136,22.6098-22.6394,22.6098Z" fill="#41a2b4"/>
  </g>
  <g>
    <path d="M40.7381,40.9611c0,1.5246-1.2359,2.7605-2.7605,2.7605h-15.5268s-2.9845.024-4.0295-1.9789,1.4816-2.5838,1.4816-2.5838v-20.6671l18.4631,2.6238c1.3609.1934,2.3721,1.3585,2.3721,2.7331v17.1123Z" fill="#233f56"/>
    <path d="M19.8156,16.7741s-1.7408.8073-1.6537,3.4198,0,20.9866,0,20.9866l2.9608,1.7416-1.307-26.148Z" fill="#233f56"/>
    <path d="M35.8486,42.1075h-14.2344l-1.6919-2.8607v-20.3501l16.6205-.9882,1.8834,4.9133c.1209.3154.1829.6503.1829.9881v15.5372c0,1.5246-1.2359,2.7605-2.7605,2.7605Z" fill="#fbea90"/>
    <path d="M19.8156,16.7741h15.5268c1.5236,0,2.7605,1.2369,2.7605,2.7605v16.7478c0,1.5236-1.2369,2.7605-2.7605,2.7605h-15.5268v-22.2688h0Z" fill="#41a2b4"/>
  </g>
</svg>