<?xml version="1.0" encoding="UTF-8"?>
<svg id="Layer_1" data-name="Layer 1" xmlns="http://www.w3.org/2000/svg" viewBox="0 0 64 64">
  <ellipse cx="32.11" cy="35.22" rx="31.89" ry="26.78" style="fill: #0090ca;"/>
  <ellipse cx="31.89" cy="28.78" rx="27.08" ry="22.74" style="fill: #00b3fd;"/>
  <path d="M32.11,7.62C16.14,7.62,3.2,18.49,3.2,31.89s12.82,22.04,28.79,22.04,29.03-8.64,29.03-22.04S48.07,7.62,32.11,7.62ZM32.11,52.5c-13.56,0-24.55-9.23-24.55-20.61s10.99-20.61,24.55-20.61,24.55,9.23,24.55,20.61-10.99,20.61-24.55,20.61Z" style="fill: #0090ca;"/>
  <path d="M31.89,2C14.28,2,0,13.99,0,28.78s14.28,26.78,31.89,26.78,31.89-11.99,31.89-26.78S49.5,2,31.89,2ZM31.89,49.79c-13.82,0-25.03-9.41-25.03-21.02S18.07,7.76,31.89,7.76s25.03,9.41,25.03,21.02-11.21,21.02-25.03,21.02Z" style="fill: #00c8fe;"/>
</svg>