<?xml version="1.0" encoding="UTF-8"?>
<svg id="Layer_1" data-name="Layer 1" xmlns="http://www.w3.org/2000/svg" width="58" height="62" viewBox="0 0 58 62">
  <circle cx="29.6002" cy="30.8364" r="21.8955" fill="#fc0"/>
  <path d="M32.6851,30.304l6.6758,6.6694c.792.792.792,2.0781,0,2.8701-.791.792-2.0771.792-2.8691,0l-6.6758-6.6699-6.6699,6.6758c-.791.792-2.0771.792-2.8691,0s-.792-2.0771,0-2.8691l6.6699-6.6763-6.6758-6.6694c-.792-.792-.792-2.0776,0-2.8696.791-.7915,2.0771-.7915,2.8691,0l6.6758,6.6699,6.6699-6.6763c.791-.7915,2.0771-.7915,2.8691,0,.792.792.792,2.0776,0,2.8696l-6.6699,6.6758Z"/>
</svg>