<?xml version="1.0" encoding="UTF-8"?>
<svg id="Layer_1" data-name="Layer 1" xmlns="http://www.w3.org/2000/svg" width="58" height="62" viewBox="0 0 58 62">
  <circle cx="28.3539" cy="29.0872" r="26.3912"/>
  <g>
    <rect x="36.3956" y="27.7294" width="8.5497" height="3.2676" rx="1.0892" ry="1.0892" fill="#3d4b5a"/>
    <rect x="34.0103" y="20.4818" width="8.5497" height="3.2676" rx="1.0892" ry="1.0892" transform="translate(-4.4246 33.5492) rotate(-45)" fill="#3d4b5a"/>
    <rect x="27.2014" y="13.8915" width="3.2676" height="8.5497" rx="1.0892" ry="1.0892" fill="#3d4b5a"/>
    <rect x="13.4578" y="27.9129" width="8.5497" height="3.2676" rx="1.0892" ry="1.0892" fill="#3d4b5a"/>
    <rect x="18.4841" y="18.0242" width="3.2676" height="8.5497" rx="1.0892" ry="1.0892" transform="translate(-9.8754 20.7567) rotate(-45)" fill="#3d4b5a"/>
    <path d="M34.4867,29.4127c0-2.8705-2.3269-5.1975-5.1974-5.1975s-5.1975,2.3269-5.1975,5.1975c0,2.1747,1.3382,4.0321,3.2339,4.8073-.013.071-.0425.136-.0425.2107v5.9196c0,.6677.5412,1.209,1.209,1.209h1.4302c.6677,0,1.209-.5412,1.209-1.209v-5.9196c0-.0577-.025-.1071-.0328-.1627,1.9747-.7366,3.3882-2.6239,3.3882-4.8553Z" fill="#3d4b5a"/>
  </g>
  <path d="M28.843,0C12.9135,0,0,12.8965,0,28.8053s12.9135,28.8053,28.843,28.8053,28.843-12.8965,28.843-28.8053S44.7726,0,28.843,0ZM28.843,51.4151c-12.5033,0-22.6393-10.1227-22.6393-22.6098S16.3397,6.1955,28.843,6.1955s22.6394,10.1227,22.6394,22.6098-10.136,22.6098-22.6394,22.6098Z" fill="#3d4b5a"/>
</svg>