<?xml version="1.0" encoding="UTF-8"?>
<svg id="Layer_1" data-name="Layer 1" xmlns="http://www.w3.org/2000/svg" width="58" height="62" xmlns:xlink="http://www.w3.org/1999/xlink" viewBox="0 0 58 62">
  <defs>
    <linearGradient id="linear-gradient" x1="29.4818" y1="54.9925" x2="28.31" y2="6.9526" gradientUnits="userSpaceOnUse">
      <stop offset="0" stop-color="#fc6e00"/>
      <stop offset=".5362" stop-color="#fc0" stop-opacity=".8"/>
      <stop offset=".9114" stop-color="#fc7800"/>
      <stop offset="1" stop-color="#fc7e00"/>
    </linearGradient>
    <linearGradient id="linear-gradient-2" x1="29.18" y1="4.208" x2="28.4769" y2="55.5287" gradientUnits="userSpaceOnUse">
      <stop offset=".2698" stop-color="#ffea6d"/>
      <stop offset=".4142" stop-color="#ffcd02"/>
      <stop offset="1" stop-color="#fc0"/>
    </linearGradient>
    <linearGradient id="linear-gradient-3" x1="29.0374" y1="62.1936" x2="29.0374" y2="-6.5901" gradientUnits="userSpaceOnUse">
      <stop offset="0" stop-color="#ffea6d"/>
      <stop offset=".8333" stop-color="#ffcd02"/>
      <stop offset="1" stop-color="#fc0"/>
    </linearGradient>
  </defs>
  <g>
    <g>
      <ellipse cx="29.157" cy="33.1947" rx="28.843" ry="28.8053" fill="#fc6e00"/>
      <ellipse cx="28.843" cy="28.8053" rx="24.4962" ry="24.4642" fill="url(#linear-gradient)"/>
      <path d="M29.0403,6.0447C14.601,6.0447,2.8956,17.7348,2.8956,32.1552s11.7055,26.1106,26.1448,26.1106,26.1448-11.6901,26.1448-26.1106S43.4797,6.0447,29.0403,6.0447ZM29.0403,54.3308c-12.2632,0-22.2046-9.9283-22.2046-22.1756S16.7771,9.9797,29.0403,9.9797s22.2046,9.9283,22.2046,22.1756-9.9413,22.1756-22.2046,22.1756Z" fill="#fc6e00"/>
      <path d="M28.843,0C12.9135,0,0,12.8965,0,28.8053s12.9135,28.8053,28.843,28.8053,28.843-12.8965,28.843-28.8053S44.7726,0,28.843,0ZM28.843,51.4151c-12.5033,0-22.6393-10.1227-22.6393-22.6098S16.3397,6.1955,28.843,6.1955s22.6394,10.1227,22.6394,22.6098-10.136,22.6098-22.6394,22.6098Z" fill="url(#linear-gradient-2)"/>
    </g>
    <g>
      <path d="M11.5936,41.6799c-3.5983-6.2236-3.5983-13.8921,0-20.1158,3.5983-6.2236,10.2473-10.0579,17.4438-10.0579s13.8456,3.8342,17.4438,10.0579c3.5983,6.2236,3.5983,13.8921,0,20.1158-3.5983,6.2236-10.2473,10.0579-17.4438,10.0579s-13.8456-3.8342-17.4438-10.0579ZM29.0374,34.1365c-1.3906,0-2.5169-1.1257-2.5169-2.5145s1.1263-2.5145,2.5169-2.5145,2.5169,1.1257,2.5169,2.5145-1.1263,2.5145-2.5169,2.5145Z" fill="#fc6e00"/>
      <path d="M11.5936,38.7944c-3.5983-6.2236-3.5983-13.8921,0-20.1158,3.5983-6.2236,10.2473-10.0579,17.4438-10.0579s13.8456,3.8342,17.4438,10.0579c3.5983,6.2236,3.5983,13.8921,0,20.1158s-10.2473,10.0579-17.4438,10.0579-13.8456-3.8342-17.4438-10.0579Z" fill="url(#linear-gradient-3)"/>
    </g>
  </g>
  <path d="M24.8146,41.5241c-1.3929-.5097-2.8355-1.1202-3.83-2.2551-.2828-.3227-.2271-.4471.0233-.6565,1.7837-1.4915,4.7152-.5298,6.5606.2282,3.4084,1.4,7.5542,1.1159,10.6039-1.0281,2.9987-2.1081,4.7302-5.5069,5.0528-9.1221.6838-7.6625-5.9299-14.448-13.3846-14.9887-3.7066-.2689-7.3206,1.2244-9.5377,4.2346-2.0478,2.7803-2.5669,6.7205-.5915,9.6834,2.072,3.108,6.2517,4.7357,9.7036,2.9376,3.6991-1.9269,4.2477-7.5795-.1138-9.0564-2.0251-.6858-2.8942,2.5149-.8812,3.1965,1.3497.4571.5913,2.1238-.1807,2.7046-1.0531.7922-2.4634.7454-3.6222.2275-2.5144-1.1239-3.4373-3.9099-2.4101-6.3945,2.6988-6.5276,11.4401-4.5546,15.1706-.2438,3.7834,4.3719,3.5064,12.416-2.451,14.8411-1.2913.5256-2.742.6849-4.119.4927-1.4635-.2043-2.7189-.9494-4.1245-1.3372-2.0823-.5744-4.43-.6191-6.4309.2671-1.8006.7975-3.1531,2.5285-2.6199,4.5762.7049,2.7068,3.9693,4.0362,6.3009,4.8894,2.0065.7342,2.8717-2.4682.8812-3.1965h0Z" fill="#fc6e00"/>
</svg>