<?xml version="1.0" encoding="UTF-8"?>
<svg id="Layer_1" data-name="Layer 1" xmlns="http://www.w3.org/2000/svg" width="58" height="62" xmlns:xlink="http://www.w3.org/1999/xlink" viewBox="0 0 58 62">
  <defs>
    <linearGradient id="linear-gradient" x1="29.4818" y1="54.9925" x2="28.31" y2="6.9526" gradientUnits="userSpaceOnUse">
      <stop offset="0" stop-color="#fc6e00"/>
      <stop offset=".5362" stop-color="#fc0" stop-opacity=".8"/>
      <stop offset=".9114" stop-color="#fc7800"/>
      <stop offset="1" stop-color="#fc7e00"/>
    </linearGradient>
    <linearGradient id="linear-gradient-2" x1="29.18" y1="4.208" x2="28.4769" y2="55.5287" gradientUnits="userSpaceOnUse">
      <stop offset=".2698" stop-color="#ffea6d"/>
      <stop offset=".4142" stop-color="#ffcd02"/>
      <stop offset="1" stop-color="#fc0"/>
    </linearGradient>
    <linearGradient id="linear-gradient-3" x1="29.0374" y1="62.1936" x2="29.0374" y2="-6.5901" gradientUnits="userSpaceOnUse">
      <stop offset="0" stop-color="#ffea6d"/>
      <stop offset=".8333" stop-color="#ffcd02"/>
      <stop offset="1" stop-color="#fc0"/>
    </linearGradient>
  </defs>
  <g>
    <g>
      <ellipse cx="29.157" cy="33.1947" rx="28.843" ry="28.8053" fill="#fc6e00"/>
      <ellipse cx="28.843" cy="28.8053" rx="24.4962" ry="24.4642" fill="url(#linear-gradient)"/>
      <path d="M29.0403,6.0447C14.601,6.0447,2.8956,17.7348,2.8956,32.1552s11.7055,26.1106,26.1448,26.1106,26.1448-11.6901,26.1448-26.1106S43.4797,6.0447,29.0403,6.0447ZM29.0403,54.3308c-12.2632,0-22.2046-9.9283-22.2046-22.1756S16.7771,9.9797,29.0403,9.9797s22.2046,9.9283,22.2046,22.1756-9.9413,22.1756-22.2046,22.1756Z" fill="#fc6e00"/>
      <path d="M28.843,0C12.9135,0,0,12.8965,0,28.8053s12.9135,28.8053,28.843,28.8053,28.843-12.8965,28.843-28.8053S44.7726,0,28.843,0ZM28.843,51.4151c-12.5033,0-22.6393-10.1227-22.6393-22.6098S16.3397,6.1955,28.843,6.1955s22.6394,10.1227,22.6394,22.6098-10.136,22.6098-22.6394,22.6098Z" fill="url(#linear-gradient-2)"/>
    </g>
    <g>
      <path d="M11.5936,41.6799c-3.5983-6.2236-3.5983-13.8921,0-20.1158,3.5983-6.2236,10.2473-10.0579,17.4438-10.0579s13.8456,3.8342,17.4438,10.0579c3.5983,6.2236,3.5983,13.8921,0,20.1158-3.5983,6.2236-10.2473,10.0579-17.4438,10.0579s-13.8456-3.8342-17.4438-10.0579ZM29.0374,34.1365c-1.3906,0-2.5169-1.1257-2.5169-2.5145s1.1263-2.5145,2.5169-2.5145,2.5169,1.1257,2.5169,2.5145-1.1263,2.5145-2.5169,2.5145Z" fill="#fc6e00"/>
      <path d="M11.5936,38.7944c-3.5983-6.2236-3.5983-13.8921,0-20.1158,3.5983-6.2236,10.2473-10.0579,17.4438-10.0579s13.8456,3.8342,17.4438,10.0579c3.5983,6.2236,3.5983,13.8921,0,20.1158s-10.2473,10.0579-17.4438,10.0579-13.8456-3.8342-17.4438-10.0579Z" fill="url(#linear-gradient-3)"/>
    </g>
  </g>
  <path d="M44.948,37.2519v.4046c-.1226.612-.6968,1.0601-1.381.9772-1.2786-.1549-2.3419-1.2446-3.2298-2.2111-1.1038,1.6448-2.4888,3.0331-4.1581,4.0611-.773.476-1.5181.8877-2.3668,1.1981-1.3527.4948-2.7241.8241-4.162.9037.383,1.2684.7775,2.6842.361,3.8673-.1819.4018-.4789.7189-.9037.7649-.5016.0543-.932-.097-1.2115-.5165-.7403-1.1748-.2524-2.7523.1837-4.1234-1.4197-.1022-2.7855-.3424-4.0987-.8703-.8636-.3472-1.6629-.714-2.4418-1.217-1.6603-1.0723-3.0572-2.4165-4.1514-4.0873l-.7002.7304c-.384.4005-.8007.7529-1.2697,1.0532-.8112.5195-1.8729.7657-2.3979-.0269-.2771-.4182-.2693-.9367.0102-1.3693.7514-1.1188,2.2936-1.4191,3.5707-1.7443-.6116-1.2387-1.0485-2.4546-1.2564-3.7753-.1617-1.0272-.2435-1.9957-.196-3.0437.0867-1.9138.5981-3.7579,1.4379-5.5133-1.163-.2519-2.3263-.5516-3.2347-1.3178-.2932-.2473-.4795-.5567-.5784-.8974v-.4061c.1534-.666.8017-1.0842,1.5312-.9321,1.2201.2145,2.1994,1.2594,3.0817,2.1832,1.1071-1.6383,2.496-3.0319,4.166-4.0646.785-.4854,1.5472-.8922,2.4101-1.2093,1.3247-.4869,2.6725-.7952,4.1069-.8882-.3607-1.1674-.7052-2.4168-.4499-3.6039.1128-.3558.2909-.7087.6278-.8968.6515-.3638,1.4435-.0399,1.7191.6452.5284,1.1934.0657,2.6049-.3264,3.8752,4.3856.2221,8.2953,2.5537,10.7003,6.1713.862-.9558,1.884-2.0344,3.1314-2.2562.5077-.076.9759.1091,1.2374.5094.2626.402.2579.9138-.0089,1.3388-.7389,1.1092-2.2706,1.4484-3.5875,1.7492.6149,1.2419,1.0583,2.4742,1.2655,3.8124.1772,1.1445.2617,2.2442.1714,3.3996-.1399,1.7907-.6373,3.5133-1.4148,5.1274l1.597.4245c.5128.1363.9516.4054,1.3903.6995.3994.2677.6938.6307.8259,1.0745ZM28.1103,24.5853c-.18-.811-.3244-1.5224-.4435-2.2812-.0821-.743-.0867-1.4437.003-2.1858.1122-.7921.2992-1.5397.4955-2.3218-3.4708.2511-6.618,2.0384-8.5505,4.9425,1.2996.3467,2.5219.7611,3.6362,1.4711.8428.5369,1.5261,1.2305,2.2633,1.9019.683-.8215,1.5725-1.3364,2.596-1.5266ZM33.7682,24.7179c.7718-.5956,1.5352-1.0921,2.4464-1.3774l1.9028-.5958c-1.9772-2.9079-5.0278-4.7129-8.5526-4.9295.1405.53.2562.996.3437,1.4996.155.8104.2183,1.5875.2028,2.4219-.0729.9796-.2657,1.915-.528,2.8562,1.0501.2,1.9702.7103,2.6216,1.5043.5216-.4865,1.0011-.9407,1.5633-1.3793ZM24.7809,30.4017c-.3911-.9388-.4014-2.0713-.0336-3.0295-1.9644-.5775-3.3273-1.0868-4.8569-2.5041l-.9828-.9106c-.6764,1.4028-1.078,2.8728-1.1477,4.4138-.0432,1.8904.2683,3.7158,1.1498,5.4542.7687-.7768,1.5429-1.4908,2.4621-2.0677l.8325-.4541c.7993-.436,1.674-.6486,2.5766-.902ZM32.9778,30.4008c1.0472.3039,2.0272.6513,2.9868,1.1185,1.0576.6421,1.9662,1.4194,2.8411,2.3091.6472-1.3482,1.0641-2.789,1.1501-4.3075.0611-1.9518-.2573-3.8054-1.14-5.5718-1.4712,1.4919-2.7934,2.5046-4.8208,3.1101l-1.0647.318c.316.7918.3473,1.5959.2033,2.4075l-.1559.6162ZM31.0763,29.3771c.0394-.2749.0908-.545.0277-.7807l-.1322-.4938c-.3007-.9054-1.1761-1.4653-2.0904-1.4846-.9303-.0197-1.807.544-2.1356,1.4459-.0753.2066-.1457.4717-.1542.6797-.0529,1.2935.8841,2.3215,2.1605,2.4076.7127.0481,1.4231-.2625,1.8572-.8283.2201-.2869.4152-.5854.467-.946ZM28.1548,39.9559c-.2711-.9461-.4281-1.8766-.5344-2.8429l-.0114-1.1952c.096-.9206.2632-1.795.5245-2.7349-1.0299-.2081-1.9506-.6985-2.6271-1.5066-.5478.5234-1.0578.9972-1.6361,1.438-.8425.661-1.7496,1.1361-2.7694,1.4552l-1.4985.4614c1.969,2.8945,5.0195,4.7093,8.5525,4.925ZM37.2044,36.2085l.9039-1.1744c-1.0829-.2778-2.0952-.6326-3.0835-1.1433-1.069-.5514-1.9378-1.4252-2.8192-2.2219-.6925.8037-1.5592,1.3381-2.5952,1.5079l.4455,2.3156c.0802.7432.0803,1.4445-.007,2.1851-.1165.7639-.2839,1.4644-.4916,2.2821,2.9292-.1721,5.698-1.5418,7.6472-3.7509Z" fill="#fc6e00"/>
</svg>