<?xml version="1.0" encoding="UTF-8"?>
<svg id="Layer_1" data-name="Layer 1" xmlns="http://www.w3.org/2000/svg" width="58" height="62" viewBox="0 0 58 62">
  <circle cx="28.3539" cy="29.0872" r="26.3912"/>
  <path d="M24.8146,41.5241c-1.3929-.5097-2.8355-1.1202-3.83-2.2551-.2828-.3227-.2271-.4471.0233-.6565,1.7837-1.4915,4.7152-.5298,6.5606.2282,3.4084,1.4,7.5542,1.1159,10.6039-1.0281,2.9987-2.1081,4.7302-5.5069,5.0528-9.1221.6838-7.6625-5.9299-14.448-13.3846-14.9887-3.7066-.2689-7.3206,1.2244-9.5377,4.2346-2.0478,2.7803-2.5669,6.7205-.5915,9.6834,2.072,3.108,6.2517,4.7357,9.7036,2.9376,3.6991-1.9269,4.2477-7.5795-.1138-9.0564-2.0251-.6858-2.8942,2.5149-.8812,3.1965,1.3497.4571.5913,2.1238-.1807,2.7046-1.0531.7922-2.4634.7454-3.6222.2275-2.5144-1.1239-3.4373-3.9099-2.4101-6.3945,2.6988-6.5276,11.4401-4.5546,15.1706-.2438,3.7834,4.3719,3.5064,12.416-2.451,14.8411-1.2913.5256-2.742.6849-4.119.4927-1.4635-.2043-2.7189-.9494-4.1245-1.3372-2.0823-.5744-4.43-.6191-6.4309.2671-1.8006.7975-3.1531,2.5285-2.6199,4.5762.7049,2.7068,3.9693,4.0362,6.3009,4.8894,2.0065.7342,2.8717-2.4682.8812-3.1965h0Z" fill="#3d4b5a"/>
  <path d="M28.843,0C12.9135,0,0,12.8965,0,28.8053s12.9135,28.8053,28.843,28.8053,28.843-12.8965,28.843-28.8053S44.7726,0,28.843,0ZM28.843,51.4151c-12.5033,0-22.6393-10.1227-22.6393-22.6098S16.3397,6.1955,28.843,6.1955s22.6394,10.1227,22.6394,22.6098-10.136,22.6098-22.6394,22.6098Z" fill="#3d4b5a"/>
</svg>