<?xml version="1.0" encoding="UTF-8"?>
<svg id="Layer_1" data-name="Layer 1" xmlns="http://www.w3.org/2000/svg" width="58" height="62" xmlns:xlink="http://www.w3.org/1999/xlink" viewBox="0 0 58 62">
  <defs>
    <linearGradient id="linear-gradient" x1="20.9232" y1="44.873" x2="20.9232" y2="-4.7548" gradientUnits="userSpaceOnUse">
      <stop offset="0" stop-color="#ffea6d"/>
      <stop offset=".8333" stop-color="#ffcd02"/>
      <stop offset="1" stop-color="#fc0"/>
    </linearGradient>
    <symbol id="New_Symbol" data-name="New Symbol" viewBox="0 0 41.7926 44.7333">
      <g>
        <use width="41.7926" height="44.7333" xlink:href="#button_gui"/>
        <g>
          <path d="M8.3539,30.0723c-2.5928-4.4904-2.5928-10.0232,0-14.5136,2.5928-4.4904,7.3838-7.2568,12.5694-7.2568s9.9766,2.7664,12.5694,7.2568,2.5928,10.0232,0,14.5136-7.3838,7.2568-12.5694,7.2568-9.9766-2.7664-12.5694-7.2568ZM20.9232,24.6297c-1.002,0-1.8136-.8122-1.8136-1.8142s.8116-1.8142,1.8136-1.8142,1.8136.8122,1.8136,1.8142-.8116,1.8142-1.8136,1.8142Z" fill="#fc6e00"/>
          <path d="M8.3539,27.9904c-2.5928-4.4904-2.5928-10.0232,0-14.5136s7.3838-7.2568,12.5694-7.2568,9.9766,2.7664,12.5694,7.2568,2.5928,10.0232,0,14.5136-7.3838,7.2568-12.5694,7.2568-9.9766-2.7664-12.5694-7.2568Z" fill="url(#linear-gradient)"/>
        </g>
      </g>
    </symbol>
    <linearGradient id="linear-gradient-2" x1="21.244" y1="39.6774" x2="20.3986" y2="5.0163" gradientUnits="userSpaceOnUse">
      <stop offset="0" stop-color="#fc6e00"/>
      <stop offset=".5362" stop-color="#fc0" stop-opacity=".8"/>
      <stop offset=".9114" stop-color="#fc7800"/>
      <stop offset="1" stop-color="#fc7e00"/>
    </linearGradient>
    <linearGradient id="linear-gradient-3" x1="21.0263" y1="3.0361" x2="20.519" y2="40.0642" gradientUnits="userSpaceOnUse">
      <stop offset=".2698" stop-color="#ffea6d"/>
      <stop offset=".4142" stop-color="#ffcd02"/>
      <stop offset="1" stop-color="#fc0"/>
    </linearGradient>
    <symbol id="button_gui" viewBox="0 0 41.7926 44.7333">
      <g>
        <circle cx="21.0094" cy="23.9502" r="20.7832" fill="#fc6e00"/>
        <circle cx="20.7832" cy="20.7831" r="17.651" fill="url(#linear-gradient-2)"/>
        <path d="M20.9253,4.3613C10.5209,4.3613,2.0864,12.7957,2.0864,23.2002s8.4345,18.8389,18.8389,18.8389,18.8389-8.4345,18.8389-18.8389S31.3298,4.3613,20.9253,4.3613ZM20.9253,39.2c-8.8364,0-15.9997-7.1633-15.9997-15.9998s7.1633-15.9998,15.9997-15.9998,15.9998,7.1633,15.9998,15.9998-7.1633,15.9998-15.9998,15.9998Z" fill="#fc6e00"/>
        <path d="M20.7832,0C9.305,0,0,9.3049,0,20.7832s9.305,20.7832,20.7832,20.7832,20.7832-9.3049,20.7832-20.7832S32.2614,0,20.7832,0ZM20.7832,37.0962c-9.0094,0-16.313-7.3036-16.313-16.3131S11.7737,4.4701,20.7832,4.4701s16.3131,7.3036,16.3131,16.3131-7.3036,16.3131-16.3131,16.3131Z" fill="url(#linear-gradient-3)"/>
      </g>
    </symbol>
  </defs>
  <use width="41.7926" height="44.7333" transform="scale(1.3878)" xlink:href="#New_Symbol"/>
  <path d="M24.8146,41.5241c-1.3929-.5097-2.8355-1.1202-3.83-2.2551-.2828-.3227-.2271-.4471.0233-.6565,1.7837-1.4915,4.7152-.5298,6.5606.2282,3.4084,1.4,7.5542,1.1159,10.6039-1.0281,2.9987-2.1081,4.7302-5.5069,5.0528-9.1221.6838-7.6625-5.9299-14.448-13.3846-14.9887-3.7066-.2689-7.3206,1.2244-9.5377,4.2346-2.0478,2.7803-2.5669,6.7205-.5915,9.6834,2.072,3.108,6.2517,4.7357,9.7036,2.9376,3.6991-1.9269,4.2477-7.5795-.1138-9.0564-2.0251-.6858-2.8942,2.5149-.8812,3.1965,1.3497.4571.5913,2.1238-.1807,2.7046-1.0531.7922-2.4634.7454-3.6222.2275-2.5144-1.1239-3.4373-3.9099-2.4101-6.3945,2.6988-6.5276,11.4401-4.5546,15.1706-.2438,3.7834,4.3719,3.5064,12.416-2.451,14.8411-1.2913.5256-2.742.6849-4.119.4927-1.4635-.2043-2.7189-.9494-4.1245-1.3372-2.0823-.5744-4.43-.6191-6.4309.2671-1.8006.7975-3.1531,2.5285-2.6199,4.5762.7049,2.7068,3.9693,4.0362,6.3009,4.8894,2.0065.7342,2.8717-2.4682.8812-3.1965h0Z" fill="#fc6e00"/>
</svg>