<?xml version="1.0" encoding="UTF-8"?>
<svg id="Layer_1" data-name="Layer 1" xmlns="http://www.w3.org/2000/svg" width="58" height="62" viewBox="0 0 58 62">
  <circle cx="28.3539" cy="29.0872" r="26.3912"/>
  <path d="M15.2546,22.2803c0-.9385.7578-1.6963,1.6963-1.6963h1.6963c6.5576,0,11.874,5.3169,11.874,11.874v10.1777c0,.9385-.7578,1.6963-1.6963,1.6963s-1.6963-.7578-1.6963-1.6963v-8.4814c-6.5576,0-11.874-5.3169-11.874-11.874ZM42.3952,18.8877c0,6.022-4.4844,10.9995-10.2939,11.7681-.377-2.8306-1.6221-5.3857-3.4619-7.3843,2.0303-3.626,5.9102-6.0801,10.3633-6.0801h1.6963c.9385,0,1.6963.7578,1.6963,1.6963Z" fill="#3d4b5a"/>
  <path d="M28.843,0C12.9135,0,0,12.8965,0,28.8053s12.9135,28.8053,28.843,28.8053,28.843-12.8965,28.843-28.8053S44.7726,0,28.843,0ZM28.843,51.4151c-12.5033,0-22.6393-10.1227-22.6393-22.6098S16.3397,6.1955,28.843,6.1955s22.6394,10.1227,22.6394,22.6098-10.136,22.6098-22.6394,22.6098Z" fill="#3d4b5a"/>
</svg>