<?xml version="1.0" encoding="UTF-8"?>
<svg id="Layer_1" data-name="Layer 1" xmlns="http://www.w3.org/2000/svg" width="58" height="62" xmlns:xlink="http://www.w3.org/1999/xlink" viewBox="0 0 58 62">
  <defs>
    <linearGradient id="linear-gradient" x1="20.9232" y1="44.873" x2="20.9232" y2="-4.7548" gradientUnits="userSpaceOnUse">
      <stop offset="0" stop-color="#ffea6d"/>
      <stop offset=".8333" stop-color="#ffcd02"/>
      <stop offset="1" stop-color="#fc0"/>
    </linearGradient>
    <symbol id="New_Symbol" data-name="New Symbol" viewBox="0 0 41.7926 44.7333">
      <g>
        <use width="41.7926" height="44.7333" xlink:href="#button_gui"/>
        <g>
          <path d="M8.3539,30.0723c-2.5928-4.4904-2.5928-10.0232,0-14.5136,2.5928-4.4904,7.3838-7.2568,12.5694-7.2568s9.9766,2.7664,12.5694,7.2568,2.5928,10.0232,0,14.5136-7.3838,7.2568-12.5694,7.2568-9.9766-2.7664-12.5694-7.2568ZM20.9232,24.6297c-1.002,0-1.8136-.8122-1.8136-1.8142s.8116-1.8142,1.8136-1.8142,1.8136.8122,1.8136,1.8142-.8116,1.8142-1.8136,1.8142Z" fill="#fc6e00"/>
          <path d="M8.3539,27.9904c-2.5928-4.4904-2.5928-10.0232,0-14.5136s7.3838-7.2568,12.5694-7.2568,9.9766,2.7664,12.5694,7.2568,2.5928,10.0232,0,14.5136-7.3838,7.2568-12.5694,7.2568-9.9766-2.7664-12.5694-7.2568Z" fill="url(#linear-gradient)"/>
        </g>
      </g>
    </symbol>
    <linearGradient id="linear-gradient-2" x1="21.244" y1="39.6774" x2="20.3986" y2="5.0163" gradientUnits="userSpaceOnUse">
      <stop offset="0" stop-color="#fc6e00"/>
      <stop offset=".5362" stop-color="#fc0" stop-opacity=".8"/>
      <stop offset=".9114" stop-color="#fc7800"/>
      <stop offset="1" stop-color="#fc7e00"/>
    </linearGradient>
    <linearGradient id="linear-gradient-3" x1="21.0263" y1="3.0361" x2="20.519" y2="40.0642" gradientUnits="userSpaceOnUse">
      <stop offset=".2698" stop-color="#ffea6d"/>
      <stop offset=".4142" stop-color="#ffcd02"/>
      <stop offset="1" stop-color="#fc0"/>
    </linearGradient>
    <symbol id="button_gui" viewBox="0 0 41.7926 44.7333">
      <g>
        <circle cx="21.0094" cy="23.9502" r="20.7832" fill="#fc6e00"/>
        <circle cx="20.7832" cy="20.7831" r="17.651" fill="url(#linear-gradient-2)"/>
        <path d="M20.9253,4.3613C10.5209,4.3613,2.0864,12.7957,2.0864,23.2002s8.4345,18.8389,18.8389,18.8389,18.8389-8.4345,18.8389-18.8389S31.3298,4.3613,20.9253,4.3613ZM20.9253,39.2c-8.8364,0-15.9997-7.1633-15.9997-15.9998s7.1633-15.9998,15.9997-15.9998,15.9998,7.1633,15.9998,15.9998-7.1633,15.9998-15.9998,15.9998Z" fill="#fc6e00"/>
        <path d="M20.7832,0C9.305,0,0,9.3049,0,20.7832s9.305,20.7832,20.7832,20.7832,20.7832-9.3049,20.7832-20.7832S32.2614,0,20.7832,0ZM20.7832,37.0962c-9.0094,0-16.313-7.3036-16.313-16.3131S11.7737,4.4701,20.7832,4.4701s16.3131,7.3036,16.3131,16.3131-7.3036,16.3131-16.3131,16.3131Z" fill="url(#linear-gradient-3)"/>
      </g>
    </symbol>
  </defs>
  <use width="41.7926" height="44.7333" transform="scale(1.3878)" xlink:href="#New_Symbol"/>
  <path d="M32.0141,20.7946l3.001-3.0015c.6816-.6816,1.79-.6816,2.4717,0l2.6191,2.6191c.6826.6821.6826,1.79,0,2.4722l-3.001,3.001,4.8779,4.8779c.5137.5078.5137,1.3369,0,1.8501l-5.2383,5.2378c-.5068.5127-1.3369.5127-1.8496,0l-4.873-4.8779-.8457.8457c.6221,1.3418.9717,2.8369.9717,4.4141,0,1.7295-.4199,3.3555-1.1621,4.791-.251.4912-.9062.5615-1.2988.1689l-5.8711-5.8711-.8945.8945c.0381.1475.0596.2949.0596.4531,0,.9658-.7803,1.7461-1.7461,1.7461s-1.7461-.7803-1.7461-1.7461.7803-1.7461,1.7461-1.7461c.1582,0,.3105.0225.4531.0605l.8945-.8955-5.8711-5.876c-.3926-.3877-.3223-1.0425.1689-1.2988,1.4355-.7368,3.0615-1.1567,4.791-1.1567,1.5771,0,3.0723.3491,4.4199.9712l.8457-.8457-4.8779-4.8779c-.5137-.5078-.5137-1.3369,0-1.8501l5.2383-5.2383c.5068-.5127,1.3369-.5127,1.8496,0l4.8672,4.8784ZM30.1694,22.6442l-3.9502-3.9507-3.3887,3.3887,3.9512,3.9507,3.3877-3.3887ZM35.8227,35.0739l3.3887-3.3882-3.9512-3.9561-3.3877,3.3887,3.9502,3.9497v.0059Z" fill="#fc6e00"/>
</svg>