<?xml version="1.0" encoding="UTF-8"?>
<svg id="Layer_1" data-name="Layer 1" xmlns="http://www.w3.org/2000/svg" width="58" height="62" viewBox="0 0 58 62">
  <circle cx="28.3539" cy="29.0872" r="26.3912"/>
  <path d="M32.0141,20.7946l3.001-3.0015c.6816-.6816,1.79-.6816,2.4717,0l2.6191,2.6191c.6826.6821.6826,1.79,0,2.4722l-3.001,3.001,4.8779,4.8779c.5137.5078.5137,1.3369,0,1.8501l-5.2383,5.2378c-.5068.5127-1.3369.5127-1.8496,0l-4.873-4.8779-.8457.8457c.6221,1.3418.9717,2.8369.9717,4.4141,0,1.7295-.4199,3.3555-1.1621,4.791-.251.4912-.9062.5615-1.2988.1689l-5.8711-5.8711-.8945.8945c.0381.1475.0596.2949.0596.4531,0,.9658-.7803,1.7461-1.7461,1.7461s-1.7461-.7803-1.7461-1.7461.7803-1.7461,1.7461-1.7461c.1582,0,.3105.0225.4531.0605l.8945-.8955-5.8711-5.876c-.3926-.3877-.3223-1.0425.1689-1.2988,1.4355-.7368,3.0615-1.1567,4.791-1.1567,1.5771,0,3.0723.3491,4.4199.9712l.8457-.8457-4.8779-4.8779c-.5137-.5078-.5137-1.3369,0-1.8501l5.2383-5.2383c.5068-.5127,1.3369-.5127,1.8496,0l4.8672,4.8784ZM30.1694,22.6442l-3.9502-3.9507-3.3887,3.3887,3.9512,3.9507,3.3877-3.3887ZM35.8227,35.0739l3.3887-3.3882-3.9512-3.9561-3.3877,3.3887,3.9502,3.9497v.0059Z" fill="#3d4b5a"/>
  <path d="M28.843,0C12.9135,0,0,12.8965,0,28.8053s12.9135,28.8053,28.843,28.8053,28.843-12.8965,28.843-28.8053S44.7726,0,28.843,0ZM28.843,51.4151c-12.5033,0-22.6393-10.1227-22.6393-22.6098S16.3397,6.1955,28.843,6.1955s22.6394,10.1227,22.6394,22.6098-10.136,22.6098-22.6394,22.6098Z" fill="#3d4b5a"/>
</svg>