<?xml version="1.0" encoding="UTF-8"?>
<svg id="Layer_1" data-name="Layer 1" xmlns="http://www.w3.org/2000/svg" width="58" height="62" viewBox="0 0 58 62">
  <circle cx="28.3539" cy="29.0872" r="26.3912"/>
  <path d="M36.2723,18.1186l-11.4963,4.4213c-.677.2632-1.2035.789-1.4659,1.4668l-4.4222,11.4963c-.5982,1.5464.9236,3.0674,2.47,2.47l11.4963-4.4213c.677-.2632,1.2123-.789,1.4659-1.4668l4.4222-11.4963c.5982-1.5464-.9236-3.0674-2.47-2.47ZM28.9522,30.649c-1.4082,0-2.5487-1.1414-2.5487-2.5496s1.1406-2.5495,2.5487-2.5495,2.5486,1.1413,2.5486,2.5495-1.1405,2.5496-2.5486,2.5496Z" fill="#3d4b5a"/>
  <path d="M28.843,0C12.9135,0,0,12.8965,0,28.8053s12.9135,28.8053,28.843,28.8053,28.843-12.8965,28.843-28.8053S44.7726,0,28.843,0ZM28.843,51.4151c-12.5033,0-22.6393-10.1227-22.6393-22.6098S16.3397,6.1955,28.843,6.1955s22.6394,10.1227,22.6394,22.6098-10.136,22.6098-22.6394,22.6098Z" fill="#3d4b5a"/>
</svg>