<?xml version="1.0" encoding="UTF-8"?>
<svg id="Layer_1" data-name="Layer 1" xmlns="http://www.w3.org/2000/svg" width="58" height="62" xmlns:xlink="http://www.w3.org/1999/xlink" viewBox="0 0 58 62">
  <defs>
    <linearGradient id="linear-gradient" x1="20.9232" y1="44.873" x2="20.9232" y2="-4.7548" gradientUnits="userSpaceOnUse">
      <stop offset="0" stop-color="#ffea6d"/>
      <stop offset=".8333" stop-color="#ffcd02"/>
      <stop offset="1" stop-color="#fc0"/>
    </linearGradient>
    <symbol id="New_Symbol" data-name="New Symbol" viewBox="0 0 41.7926 44.7333">
      <g>
        <use width="41.7926" height="44.7333" xlink:href="#button_gui"/>
        <g>
          <path d="M8.3539,30.0723c-2.5928-4.4904-2.5928-10.0232,0-14.5136,2.5928-4.4904,7.3838-7.2568,12.5694-7.2568s9.9766,2.7664,12.5694,7.2568,2.5928,10.0232,0,14.5136-7.3838,7.2568-12.5694,7.2568-9.9766-2.7664-12.5694-7.2568ZM20.9232,24.6297c-1.002,0-1.8136-.8122-1.8136-1.8142s.8116-1.8142,1.8136-1.8142,1.8136.8122,1.8136,1.8142-.8116,1.8142-1.8136,1.8142Z" fill="#fc6e00"/>
          <path d="M8.3539,27.9904c-2.5928-4.4904-2.5928-10.0232,0-14.5136s7.3838-7.2568,12.5694-7.2568,9.9766,2.7664,12.5694,7.2568,2.5928,10.0232,0,14.5136-7.3838,7.2568-12.5694,7.2568-9.9766-2.7664-12.5694-7.2568Z" fill="url(#linear-gradient)"/>
        </g>
      </g>
    </symbol>
    <linearGradient id="linear-gradient-2" x1="21.244" y1="39.6774" x2="20.3986" y2="5.0163" gradientUnits="userSpaceOnUse">
      <stop offset="0" stop-color="#fc6e00"/>
      <stop offset=".5362" stop-color="#fc0" stop-opacity=".8"/>
      <stop offset=".9114" stop-color="#fc7800"/>
      <stop offset="1" stop-color="#fc7e00"/>
    </linearGradient>
    <linearGradient id="linear-gradient-3" x1="21.0263" y1="3.0361" x2="20.519" y2="40.0642" gradientUnits="userSpaceOnUse">
      <stop offset=".2698" stop-color="#ffea6d"/>
      <stop offset=".4142" stop-color="#ffcd02"/>
      <stop offset="1" stop-color="#fc0"/>
    </linearGradient>
    <symbol id="button_gui" viewBox="0 0 41.7926 44.7333">
      <g>
        <circle cx="21.0094" cy="23.9502" r="20.7832" fill="#fc6e00"/>
        <circle cx="20.7832" cy="20.7831" r="17.651" fill="url(#linear-gradient-2)"/>
        <path d="M20.9253,4.3613C10.5209,4.3613,2.0864,12.7957,2.0864,23.2002s8.4345,18.8389,18.8389,18.8389,18.8389-8.4345,18.8389-18.8389S31.3298,4.3613,20.9253,4.3613ZM20.9253,39.2c-8.8364,0-15.9997-7.1633-15.9997-15.9998s7.1633-15.9998,15.9997-15.9998,15.9998,7.1633,15.9998,15.9998-7.1633,15.9998-15.9998,15.9998Z" fill="#fc6e00"/>
        <path d="M20.7832,0C9.305,0,0,9.3049,0,20.7832s9.305,20.7832,20.7832,20.7832,20.7832-9.3049,20.7832-20.7832S32.2614,0,20.7832,0ZM20.7832,37.0962c-9.0094,0-16.313-7.3036-16.313-16.3131S11.7737,4.4701,20.7832,4.4701s16.3131,7.3036,16.3131,16.3131-7.3036,16.3131-16.3131,16.3131Z" fill="url(#linear-gradient-3)"/>
      </g>
    </symbol>
  </defs>
  <use width="41.7926" height="44.7333" transform="scale(1.3878)" xlink:href="#New_Symbol"/>
  <path d="M39.6833,26.3551l-.1982-11.8692c-.014-.8366-.9049-1.3648-1.6456-.9755l-10.508,5.5225c-.7779.4088-.8062,1.5123-.0502,1.9605l1.7752,1.0523c.7559.4481.7277,1.5516-.0502,1.9605l-7.1119,3.7376c-.7779.4088-.8062,1.5123-.0502,1.9605l2.8176,1.6703c.5336.3163.7098,1.0053.3934,1.539l-2.3079,3.9916c-.3163.5336-.1402,1.2226.3934,1.539l.654.3877c.5336.3163,1.2226.1402,1.539-.3934l2.3079-3.9916c.3163-.5336,1.0053-.7098,1.539-.3934l3.3698,1.9976c.7559.4481,1.7105-.1063,1.6958-.985l-.1342-8.0331c-.0147-.8787.9399-1.4331,1.6958-.985l2.1797,1.2921c.7559.4481,1.7105-.1063,1.6958-.985Z" fill="#fc6e00"/>
  <circle cx="22.0018" cy="41.598" r="4.1212" fill="#fc6e00"/>
</svg>