<?xml version="1.0" encoding="UTF-8"?>
<svg id="Layer_1" data-name="Layer 1" xmlns="http://www.w3.org/2000/svg" width="58" height="62" viewBox="0 0 58 62">
  <circle cx="28.3539" cy="29.0872" r="26.3912"/>
  <path d="M39.6833,26.3551l-.1982-11.8692c-.014-.8366-.9049-1.3648-1.6456-.9755l-10.508,5.5225c-.7779.4088-.8062,1.5123-.0502,1.9605l1.7752,1.0523c.7559.4481.7277,1.5516-.0502,1.9605l-7.1119,3.7376c-.7779.4088-.8062,1.5123-.0502,1.9605l2.8176,1.6703c.5336.3163.7098,1.0053.3934,1.539l-2.3079,3.9916c-.3163.5336-.1402,1.2226.3934,1.539l.654.3877c.5336.3163,1.2226.1402,1.539-.3934l2.3079-3.9916c.3163-.5336,1.0053-.7098,1.539-.3934l3.3698,1.9976c.7559.4481,1.7105-.1063,1.6958-.985l-.1342-8.0331c-.0147-.8787.9399-1.4331,1.6958-.985l2.1797,1.2921c.7559.4481,1.7105-.1063,1.6958-.985Z" fill="#3d4b5a"/>
  <circle cx="22.0018" cy="41.598" r="4.1212" fill="#3d4b5a"/>
  <path d="M28.843,0C12.9135,0,0,12.8965,0,28.8053s12.9135,28.8053,28.843,28.8053,28.843-12.8965,28.843-28.8053S44.7726,0,28.843,0ZM28.843,51.4151c-12.5033,0-22.6393-10.1227-22.6393-22.6098S16.3397,6.1955,28.843,6.1955s22.6394,10.1227,22.6394,22.6098-10.136,22.6098-22.6394,22.6098Z" fill="#3d4b5a"/>
</svg>