<?xml version="1.0" encoding="UTF-8"?>
<svg id="Layer_1" data-name="Layer 1" xmlns="http://www.w3.org/2000/svg" width="58" height="62" viewBox="0 0 58 62">
  <g>
    <ellipse cx="29.157" cy="33.1947" rx="28.843" ry="28.8053" fill="#233f56"/>
    <ellipse cx="28.843" cy="28.8053" rx="24.4962" ry="24.4642" fill="#4db0b5"/>
    <path d="M29.0403,6.0447C14.601,6.0447,2.8956,17.7348,2.8956,32.1552s11.7055,26.1106,26.1448,26.1106,26.1448-11.6901,26.1448-26.1106S43.4797,6.0447,29.0403,6.0447ZM29.0403,54.3308c-12.2632,0-22.2046-9.9283-22.2046-22.1756S16.7771,9.9797,29.0403,9.9797s22.2046,9.9283,22.2046,22.1756-9.9413,22.1756-22.2046,22.1756Z" fill="#233f56"/>
    <path d="M28.843,0C12.9135,0,0,12.8965,0,28.8053s12.9135,28.8053,28.843,28.8053,28.843-12.8965,28.843-28.8053S44.7726,0,28.843,0ZM28.843,51.4151c-12.5033,0-22.6393-10.1227-22.6393-22.6098S16.3397,6.1955,28.843,6.1955s22.6394,10.1227,22.6394,22.6098-10.136,22.6098-22.6394,22.6098Z" fill="#41a2b4"/>
  </g>
  <path d="M20.6308,26.2369c-1.2822,0-2.3174-1.0361-2.3174-2.3174,0-5.1211,4.1504-9.2715,9.2715-9.2793h2.3174c5.1211,0,9.2715,4.1504,9.2715,9.2715v.2607c0,3.1582-1.6074,6.0918-4.2588,7.8008l-3.0566,1.9629c-.4922.3193-.7969.8701-.7969,1.4639v.1016c0,1.2812-1.0361,2.3174-2.3174,2.3174-1.2822,0-2.3184-1.0361-2.3184-2.3174v-.1016c0-2.166,1.1006-4.1865,2.9268-5.3604l3.0566-1.9629c1.3252-.8477,2.1289-2.3174,2.1289-3.8975v-.2598c0-2.5576-2.0781-4.6367-4.6357-4.6367h-2.3174c-2.5576,0-4.6357,2.0791-4.6357,4.6367,0,1.2812-1.0361,2.3174-2.3184,2.3174ZM26.2343,45.649c-.5176-.8965-.5176-2.001,0-2.8975s1.4746-1.4482,2.5098-1.4482c1.0342,0,1.9912.5518,2.5088,1.4482s.5176,2.001,0,2.8975-1.4746,1.4482-2.5088,1.4482c-1.0352,0-1.9922-.5518-2.5098-1.4482Z" fill="#233f56"/>
</svg>