<?xml version="1.0" encoding="UTF-8"?>
<svg id="Layer_1" data-name="Layer 1" xmlns="http://www.w3.org/2000/svg" viewBox="0 0 32 32">
  <path d="M7.56,12.04c-1.28,0-2.32-.89-2.32-1.98,0-4.38,4.15-7.93,9.27-7.94h2.32c5.12,0,9.27,3.55,9.27,7.93v.22c0,2.7-1.61,5.21-4.26,6.68l-3.06,1.68c-.49.27-.8.74-.8,1.25v.09c0,1.1-1.04,1.98-2.32,1.98s-2.32-.89-2.32-1.98v-.09c0-1.85,1.1-3.58,2.93-4.59l3.06-1.68c1.33-.73,2.13-1.98,2.13-3.34v-.22c0-2.19-2.08-3.97-4.64-3.97h-2.32c-2.56,0-4.64,1.78-4.64,3.97,0,1.1-1.04,1.98-2.32,1.98ZM13.16,28.65c-.52-.77-.52-1.71,0-2.48s1.47-1.24,2.51-1.24,1.99.47,2.51,1.24.52,1.71,0,2.48-1.47,1.24-2.51,1.24-1.99-.47-2.51-1.24Z" style="fill: #4d666e;"/>
</svg>