<?xml version="1.0" encoding="UTF-8"?>
<svg id="Layer_1" data-name="Layer 1" xmlns="http://www.w3.org/2000/svg" width="58" height="62" viewBox="0 0 58 62">
  <g>
    <ellipse cx="29.157" cy="33.1947" rx="28.843" ry="28.8053" fill="#233f56"/>
    <ellipse cx="28.843" cy="28.8053" rx="24.4962" ry="24.4642" fill="#4db0b5"/>
    <path d="M29.0403,6.0447C14.601,6.0447,2.8956,17.7348,2.8956,32.1552s11.7055,26.1106,26.1448,26.1106,26.1448-11.6901,26.1448-26.1106S43.4797,6.0447,29.0403,6.0447ZM29.0403,54.3308c-12.2632,0-22.2046-9.9283-22.2046-22.1756S16.7771,9.9797,29.0403,9.9797s22.2046,9.9283,22.2046,22.1756-9.9413,22.1756-22.2046,22.1756Z" fill="#233f56"/>
    <path d="M28.843,0C12.9135,0,0,12.8965,0,28.8053s12.9135,28.8053,28.843,28.8053,28.843-12.8965,28.843-28.8053S44.7726,0,28.843,0ZM28.843,51.4151c-12.5033,0-22.6393-10.1227-22.6393-22.6098S16.3397,6.1955,28.843,6.1955s22.6394,10.1227,22.6394,22.6098-10.136,22.6098-22.6394,22.6098Z" fill="#41a2b4"/>
  </g>
  <text transform="translate(17.1541 44.7798)" fill="#233f56" font-family="FontAwesome6Pro-Solid, &apos;Font Awesome 6 Pro&apos;" font-size="37.0873"><tspan x="0" y="0">question</tspan></text>
</svg>