<?xml version="1.0" encoding="UTF-8"?>
<svg id="Layer_1" data-name="Layer 1" xmlns="http://www.w3.org/2000/svg" width="58" height="62" viewBox="0 0 58 62">
  <ellipse cx="29.157" cy="33.1947" rx="28.843" ry="28.8053" fill="#fcd1a6"/>
  <ellipse cx="28.8429" cy="28.8053" rx="28.843" ry="28.8053" fill="#ba5357"/>
  <path d="M20.1465,25.1183c-1.2822,0-2.3174-1.0356-2.3174-2.3179,0-5.1211,4.1504-9.2715,9.2715-9.2788h2.3174c5.1211,0,9.2715,4.1504,9.2715,9.2715v.2607c0,3.1582-1.6074,6.0918-4.2588,7.8013l-3.0566,1.9629c-.4922.3193-.7969.8701-.7969,1.4639v.1016c0,1.2812-1.0361,2.3174-2.3174,2.3174-1.2822,0-2.3184-1.0361-2.3184-2.3174v-.1016c0-2.166,1.1006-4.187,2.9268-5.3608l3.0566-1.9629c1.3252-.8477,2.1289-2.3179,2.1289-3.897v-.2607c0-2.5571-2.0781-4.6357-4.6357-4.6357h-2.3174c-2.5576,0-4.6357,2.0786-4.6357,4.6357,0,1.2822-1.0361,2.3179-2.3184,2.3179ZM25.75,44.5309c-.5176-.8965-.5176-2.001,0-2.8975s1.4746-1.4482,2.5098-1.4482c1.0342,0,1.9912.5518,2.5088,1.4482s.5176,2.001,0,2.8975-1.4746,1.4482-2.5088,1.4482c-1.0352,0-1.9922-.5518-2.5098-1.4482Z" fill="#233f56"/>
</svg>