<?xml version="1.0" encoding="UTF-8"?>
<svg id="Layer_1" data-name="Layer 1" xmlns="http://www.w3.org/2000/svg" width="58" height="62" viewBox="0 0 58 62">
  <g>
    <path d="M31.6703,18.7704l-1.8016,1.1585c-.5515.3547-1.2638.3361-1.7961-.0467l-1.4153-1.0178c-.2749-.1977-.6055-.3029-.9441-.3004l-11.0722,1.1463c-.8773.0065-1.5851.7195-1.5851,1.5969v17.7337c0,.882.715,1.5969,1.5969,1.5969l11.0688-1.0647c.3335,0,.6585.1044.9297.2985l1.4239,1.0195c.5312.3803,1.2405.3987,1.7908.0464l1.8109-1.1595c.257-.1646.5559-.2521.8611-.2521l10.7846,1.0647c.882,0,1.5969-.715,1.5969-1.5969v-17.734c0-.8772-.7076-1.5902-1.5848-1.5969l-10.7884-1.1462c-.3104-.0023-.6147.0858-.8758.2537Z" fill="#fc6e00"/>
    <path d="M31.5339,15.5367l-1.8016,1.1585c-.5515.3547-1.2638.3361-1.7961-.0467l-1.4153-1.0178c-.2749-.1977-.6055-.3029-.9441-.3004l-7.8781,1.1463c-.8773.0065-1.5851.7195-1.5851,1.5969v17.7337c0,.882.715,1.5969,1.5969,1.5969l7.8746-1.0647c.3335,0,.6585.1044.9297.2985l1.4239,1.0195c.5312.3803,1.2405.3987,1.7908.0464l1.8109-1.1595c.257-.1646,8.4516.8127,8.4516.8127.882,0,1.5969-.715,1.5969-1.5969v-17.734c0-.8772-.7076-1.5902-1.5848-1.5969,0,0-8.209-1.0604-8.4701-.8925Z" fill="#fcfcd8"/>
    <path d="M29.7323,16.6952c-.5515.3547-1.2638.3361-1.7961-.0467l.0025,21.0089c.5312.3803,1.2405.3987,1.7908.0464l.0028-21.0086Z" fill="#fbea90"/>
  </g>
  <g>
    <ellipse cx="29.157" cy="33.1947" rx="28.843" ry="28.8053" fill="#ba5357"/>
    <path d="M28.843,0C12.9135,0,0,12.8965,0,28.8053s12.9135,28.8053,28.843,28.8053,28.843-12.8965,28.843-28.8053S44.7726,0,28.843,0ZM28.843,51.4151c-12.5033,0-22.6393-10.1227-22.6393-22.6098S16.3397,6.1955,28.843,6.1955s22.6394,10.1227,22.6394,22.6098-10.136,22.6098-22.6394,22.6098Z" fill="#fcd1a6"/>
    <ellipse cx="28.7999" cy="28.9705" rx="26.8209" ry="26.7859" fill="#fcd1a6"/>
  </g>
  <path d="M19.8124,25.0155c-1.2822,0-2.3174-1.0356-2.3174-2.3179,0-5.1211,4.1504-9.2715,9.2715-9.2788h2.3174c5.1211,0,9.2715,4.1504,9.2715,9.2715v.2607c0,3.1582-1.6074,6.0918-4.2588,7.8013l-3.0566,1.9629c-.4922.3193-.7969.8701-.7969,1.4639v.1016c0,1.2812-1.0361,2.3174-2.3174,2.3174-1.2822,0-2.3184-1.0361-2.3184-2.3174v-.1016c0-2.166,1.1006-4.187,2.9268-5.3608l3.0566-1.9629c1.3252-.8477,2.1289-2.3179,2.1289-3.897v-.2607c0-2.5571-2.0781-4.6357-4.6357-4.6357h-2.3174c-2.5576,0-4.6357,2.0786-4.6357,4.6357,0,1.2822-1.0361,2.3179-2.3184,2.3179ZM25.4159,44.4281c-.5176-.8965-.5176-2.001,0-2.8975s1.4746-1.4482,2.5098-1.4482c1.0342,0,1.9912.5518,2.5088,1.4482s.5176,2.001,0,2.8975-1.4746,1.4482-2.5088,1.4482c-1.0352,0-1.9922-.5518-2.5098-1.4482Z" fill="#ba5357"/>
</svg>