<?xml version="1.0" encoding="UTF-8"?>
<svg id="Layer_1" data-name="Layer 1" xmlns="http://www.w3.org/2000/svg" viewBox="0 0 32 32">
  <path d="M18.69,5.19l-1.81,1.08c-.55.33-1.27.31-1.8-.04l-1.42-.94c-.28-.18-.61-.28-.95-.28L1.59,6.07c-.88,0-1.59.67-1.59,1.48v16.46c0,.82.72,1.48,1.6,1.48l11.12-.99c.33,0,.66.1.93.28l1.43.95c.53.35,1.25.37,1.8.04l1.82-1.08c.26-.15.56-.23.86-.23l10.83.99c.89,0,1.6-.66,1.6-1.48V7.5c0-.81-.71-1.48-1.59-1.48l-10.83-1.06c-.31,0-.62.08-.88.24Z" style="fill: #fc6e00;"/>
  <path d="M18.56,2.19l-1.81,1.08c-.55.33-1.27.31-1.8-.04l-1.42-.94c-.28-.18-.61-.28-.95-.28l-7.91,1.06c-.88,0-1.59.67-1.59,1.48v16.46c0,.82.72,1.48,1.6,1.48l7.91-.99c.33,0,.66.1.93.28l1.43.95c.53.35,1.25.37,1.8.04l1.82-1.08c.26-.15,8.49.75,8.49.75.89,0,1.6-.66,1.6-1.48V4.5c0-.81-.71-1.48-1.59-1.48,0,0-8.24-.98-8.51-.83Z" style="fill: #fcfcd8;"/>
  <path d="M16.75,3.27c-.55.33-1.27.31-1.8-.04v19.5c.54.35,1.25.37,1.8.04V3.27Z" style="fill: #fbea90;"/>
</svg>