<?xml version="1.0" encoding="UTF-8"?>
<svg id="Layer_1" data-name="Layer 1" xmlns="http://www.w3.org/2000/svg" width="58" height="62" xmlns:xlink="http://www.w3.org/1999/xlink" viewBox="0 0 58 62">
  <defs>
    <linearGradient id="linear-gradient" x1="20.9232" y1="44.873" x2="20.9232" y2="-4.7548" gradientUnits="userSpaceOnUse">
      <stop offset="0" stop-color="#ffea6d"/>
      <stop offset=".8333" stop-color="#ffcd02"/>
      <stop offset="1" stop-color="#fc0"/>
    </linearGradient>
    <symbol id="New_Symbol" data-name="New Symbol" viewBox="0 0 41.7926 44.7333">
      <g>
        <use width="41.7926" height="44.7333" xlink:href="#button_gui"/>
        <g>
          <path d="M8.3539,30.0723c-2.5928-4.4904-2.5928-10.0232,0-14.5136,2.5928-4.4904,7.3838-7.2568,12.5694-7.2568s9.9766,2.7664,12.5694,7.2568,2.5928,10.0232,0,14.5136-7.3838,7.2568-12.5694,7.2568-9.9766-2.7664-12.5694-7.2568ZM20.9232,24.6297c-1.002,0-1.8136-.8122-1.8136-1.8142s.8116-1.8142,1.8136-1.8142,1.8136.8122,1.8136,1.8142-.8116,1.8142-1.8136,1.8142Z" fill="#fc6e00"/>
          <path d="M8.3539,27.9904c-2.5928-4.4904-2.5928-10.0232,0-14.5136s7.3838-7.2568,12.5694-7.2568,9.9766,2.7664,12.5694,7.2568,2.5928,10.0232,0,14.5136-7.3838,7.2568-12.5694,7.2568-9.9766-2.7664-12.5694-7.2568Z" fill="url(#linear-gradient)"/>
        </g>
      </g>
    </symbol>
    <linearGradient id="linear-gradient-2" x1="21.244" y1="39.6774" x2="20.3986" y2="5.0163" gradientUnits="userSpaceOnUse">
      <stop offset="0" stop-color="#fc6e00"/>
      <stop offset=".5362" stop-color="#fc0" stop-opacity=".8"/>
      <stop offset=".9114" stop-color="#fc7800"/>
      <stop offset="1" stop-color="#fc7e00"/>
    </linearGradient>
    <linearGradient id="linear-gradient-3" x1="21.0263" y1="3.0361" x2="20.519" y2="40.0642" gradientUnits="userSpaceOnUse">
      <stop offset=".2698" stop-color="#ffea6d"/>
      <stop offset=".4142" stop-color="#ffcd02"/>
      <stop offset="1" stop-color="#fc0"/>
    </linearGradient>
    <symbol id="button_gui" viewBox="0 0 41.7926 44.7333">
      <g>
        <circle cx="21.0094" cy="23.9502" r="20.7832" fill="#fc6e00"/>
        <circle cx="20.7832" cy="20.7831" r="17.651" fill="url(#linear-gradient-2)"/>
        <path d="M20.9253,4.3613C10.5209,4.3613,2.0864,12.7957,2.0864,23.2002s8.4345,18.8389,18.8389,18.8389,18.8389-8.4345,18.8389-18.8389S31.3298,4.3613,20.9253,4.3613ZM20.9253,39.2c-8.8364,0-15.9997-7.1633-15.9997-15.9998s7.1633-15.9998,15.9997-15.9998,15.9998,7.1633,15.9998,15.9998-7.1633,15.9998-15.9998,15.9998Z" fill="#fc6e00"/>
        <path d="M20.7832,0C9.305,0,0,9.3049,0,20.7832s9.305,20.7832,20.7832,20.7832,20.7832-9.3049,20.7832-20.7832S32.2614,0,20.7832,0ZM20.7832,37.0962c-9.0094,0-16.313-7.3036-16.313-16.3131S11.7737,4.4701,20.7832,4.4701s16.3131,7.3036,16.3131,16.3131-7.3036,16.3131-16.3131,16.3131Z" fill="url(#linear-gradient-3)"/>
      </g>
    </symbol>
  </defs>
  <use width="41.7926" height="44.7333" transform="scale(1.3878)" xlink:href="#New_Symbol"/>
  <path d="M39.5359,37.2323c.4543.6321.3939,1.5161-.1719,2.087s-1.4549.6262-2.087.1719c-2.1925,1.7075-4.9516,2.7285-7.9481,2.7285s-5.7556-1.0209-7.9481-2.7285c-.6321.4543-1.5161.3939-2.087-.1719s-.6262-1.4549-.1719-2.087c-1.7075-2.1925-2.7285-4.9516-2.7285-7.9481s1.0209-5.7552,2.7285-7.9481c-.4543-.6317-.3939-1.5161.1719-2.087s1.4549-.6266,2.087-.1719c2.1925-1.708,4.9516-2.7285,7.9481-2.7285s5.7556,1.0205,7.9481,2.7285c.6321-.4547,1.511-.3939,2.0819.1719s.6262,1.4553.1719,2.087c1.7075,2.1929,2.7285,4.9516,2.7285,7.9481s-1.0209,5.7556-2.7285,7.9481h.0051ZM24.3519,31.9825c-.4348-.8036-.6823-1.7182-.6823-2.6932s.2476-1.8947.6823-2.6932l-2.931-2.9305c-1.1316,1.5812-1.7935,3.5218-1.7935,5.6186s.6619,4.037,1.7935,5.6237l2.931-2.9305v.0051ZM29.329,19.5826c-2.0972,0-4.037.6619-5.6288,1.7939l2.931,2.9305c.8031-.4343,1.7177-.6823,2.6928-.6823s1.8947.248,2.6936.6823l2.9301-2.9305c-1.5816-1.132-3.5214-1.7939-5.6186-1.7939ZM34.9578,37.1923l-2.931-2.931c-.8031.4348-1.7177.6823-2.6928.6823s-1.8947-.2476-2.6936-.6823l-2.9301,2.931c1.5816,1.1316,3.5214,1.7935,5.6186,1.7935s4.037-.6619,5.6186-1.7935h.0102ZM28.1166,31.3848c.7504.4331,1.6744.4331,2.4248,0,.7504-.4335,1.2132-1.2341,1.2132-2.1006s-.4628-1.6671-1.2132-2.1006c-.7504-.4331-1.6744-.4331-2.4248,0-.7504.4335-1.2132,1.2341-1.2132,2.1006s.4628,1.6671,1.2132,2.1006ZM37.2371,34.9028c1.1316-1.5816,1.7935-3.5218,1.7935-5.6186s-.6619-4.0374-1.7986-5.6288l-2.931,2.9305c.4348.8036.6823,1.7182.6823,2.6932s-.2476,1.8947-.6823,2.6932l2.931,2.9305h.0051Z" fill="#fc6e00"/>
</svg>