<?xml version="1.0" encoding="UTF-8"?>
<svg id="Layer_1" data-name="Layer 1" xmlns="http://www.w3.org/2000/svg" width="58" height="62" viewBox="0 0 58 62">
  <circle cx="28.3539" cy="29.0872" r="26.3912"/>
  <path d="M39.5359,37.2323c.4543.6321.3939,1.5161-.1719,2.087s-1.4549.6262-2.087.1719c-2.1925,1.7075-4.9516,2.7285-7.9481,2.7285s-5.7556-1.0209-7.9481-2.7285c-.6321.4543-1.5161.3939-2.087-.1719s-.6262-1.4549-.1719-2.087c-1.7075-2.1925-2.7285-4.9516-2.7285-7.9481s1.0209-5.7552,2.7285-7.9481c-.4543-.6317-.3939-1.5161.1719-2.087s1.4549-.6266,2.087-.1719c2.1925-1.708,4.9516-2.7285,7.9481-2.7285s5.7556,1.0205,7.9481,2.7285c.6321-.4547,1.511-.3939,2.0819.1719s.6262,1.4553.1719,2.087c1.7075,2.1929,2.7285,4.9516,2.7285,7.9481s-1.0209,5.7556-2.7285,7.9481h.0051ZM24.3519,31.9825c-.4348-.8036-.6823-1.7182-.6823-2.6932s.2476-1.8947.6823-2.6932l-2.931-2.9305c-1.1316,1.5812-1.7935,3.5218-1.7935,5.6186s.6619,4.037,1.7935,5.6237l2.931-2.9305v.0051ZM29.329,19.5826c-2.0972,0-4.037.6619-5.6288,1.7939l2.931,2.9305c.8031-.4343,1.7177-.6823,2.6928-.6823s1.8947.248,2.6936.6823l2.9301-2.9305c-1.5816-1.132-3.5214-1.7939-5.6186-1.7939ZM34.9578,37.1923l-2.931-2.931c-.8031.4348-1.7177.6823-2.6928.6823s-1.8947-.2476-2.6936-.6823l-2.9301,2.931c1.5816,1.1316,3.5214,1.7935,5.6186,1.7935s4.037-.6619,5.6186-1.7935h.0102ZM28.1166,31.3848c.7504.4331,1.6744.4331,2.4248,0,.7504-.4335,1.2132-1.2341,1.2132-2.1006s-.4628-1.6671-1.2132-2.1006c-.7504-.4331-1.6744-.4331-2.4248,0-.7504.4335-1.2132,1.2341-1.2132,2.1006s.4628,1.6671,1.2132,2.1006ZM37.2371,34.9028c1.1316-1.5816,1.7935-3.5218,1.7935-5.6186s-.6619-4.0374-1.7986-5.6288l-2.931,2.9305c.4348.8036.6823,1.7182.6823,2.6932s-.2476,1.8947-.6823,2.6932l2.931,2.9305h.0051Z" fill="#3d4b5a"/>
  <path d="M28.843,0C12.9135,0,0,12.8965,0,28.8053s12.9135,28.8053,28.843,28.8053,28.843-12.8965,28.843-28.8053S44.7726,0,28.843,0ZM28.843,51.4151c-12.5033,0-22.6393-10.1227-22.6393-22.6098S16.3397,6.1955,28.843,6.1955s22.6394,10.1227,22.6394,22.6098-10.136,22.6098-22.6394,22.6098Z" fill="#3d4b5a"/>
</svg>