<?xml version="1.0" encoding="UTF-8"?>
<svg id="Layer_1" data-name="Layer 1" xmlns="http://www.w3.org/2000/svg" width="58" height="62" viewBox="0 0 58 62">
  <circle cx="28.3539" cy="29.0872" r="26.3912"/>
  <g>
    <path d="M38.728,31.6939l.2007-16.5378c.0097-.7975-.8248-1.3253-1.5412-.9748l-14.8561,7.2689c-.7525.3682-.8097,1.4189-.1017,1.8667l4.4402,2.8083c.4998.3161.6487.9775.3326,1.4772l-6.4282,10.1639c-.3161.4998-.1672,1.1612.3326,1.4772l1.4576.9219c.4998.3161,1.1612.1672,1.4772-.3326l6.4282-10.1639c.3161-.4998.9775-.6487,1.4772-.3326l5.1378,3.2495c.708.4478,1.6328-.0543,1.643-.8919Z" fill="#3d4b5a"/>
    <circle cx="21.3169" cy="40.1945" r="4.1212" fill="#3d4b5a"/>
  </g>
  <path d="M28.843,0C12.9135,0,0,12.8965,0,28.8053s12.9135,28.8053,28.843,28.8053,28.843-12.8965,28.843-28.8053S44.7726,0,28.843,0ZM28.843,51.4151c-12.5033,0-22.6393-10.1227-22.6393-22.6098S16.3397,6.1955,28.843,6.1955s22.6394,10.1227,22.6394,22.6098-10.136,22.6098-22.6394,22.6098Z" fill="#3d4b5a"/>
</svg>