<?xml version="1.0" encoding="UTF-8"?>
<svg id="Layer_1" data-name="Layer 1" xmlns="http://www.w3.org/2000/svg" width="58" height="62" xmlns:xlink="http://www.w3.org/1999/xlink" viewBox="0 0 58 62">
  <defs>
    <linearGradient id="linear-gradient" x1="20.9232" y1="44.873" x2="20.9232" y2="-4.7548" gradientUnits="userSpaceOnUse">
      <stop offset="0" stop-color="#ffea6d"/>
      <stop offset=".8333" stop-color="#ffcd02"/>
      <stop offset="1" stop-color="#fc0"/>
    </linearGradient>
    <symbol id="New_Symbol" data-name="New Symbol" viewBox="0 0 41.7926 44.7333">
      <g>
        <use width="41.7926" height="44.7333" xlink:href="#button_gui"/>
        <g>
          <path d="M8.3539,30.0723c-2.5928-4.4904-2.5928-10.0232,0-14.5136,2.5928-4.4904,7.3838-7.2568,12.5694-7.2568s9.9766,2.7664,12.5694,7.2568,2.5928,10.0232,0,14.5136-7.3838,7.2568-12.5694,7.2568-9.9766-2.7664-12.5694-7.2568ZM20.9232,24.6297c-1.002,0-1.8136-.8122-1.8136-1.8142s.8116-1.8142,1.8136-1.8142,1.8136.8122,1.8136,1.8142-.8116,1.8142-1.8136,1.8142Z" fill="#fc6e00"/>
          <path d="M8.3539,27.9904c-2.5928-4.4904-2.5928-10.0232,0-14.5136s7.3838-7.2568,12.5694-7.2568,9.9766,2.7664,12.5694,7.2568,2.5928,10.0232,0,14.5136-7.3838,7.2568-12.5694,7.2568-9.9766-2.7664-12.5694-7.2568Z" fill="url(#linear-gradient)"/>
        </g>
      </g>
    </symbol>
    <linearGradient id="linear-gradient-2" x1="21.244" y1="39.6774" x2="20.3986" y2="5.0163" gradientUnits="userSpaceOnUse">
      <stop offset="0" stop-color="#fc6e00"/>
      <stop offset=".5362" stop-color="#fc0" stop-opacity=".8"/>
      <stop offset=".9114" stop-color="#fc7800"/>
      <stop offset="1" stop-color="#fc7e00"/>
    </linearGradient>
    <linearGradient id="linear-gradient-3" x1="21.0263" y1="3.0361" x2="20.519" y2="40.0642" gradientUnits="userSpaceOnUse">
      <stop offset=".2698" stop-color="#ffea6d"/>
      <stop offset=".4142" stop-color="#ffcd02"/>
      <stop offset="1" stop-color="#fc0"/>
    </linearGradient>
    <symbol id="button_gui" viewBox="0 0 41.7926 44.7333">
      <g>
        <circle cx="21.0094" cy="23.9502" r="20.7832" fill="#fc6e00"/>
        <circle cx="20.7832" cy="20.7831" r="17.651" fill="url(#linear-gradient-2)"/>
        <path d="M20.9253,4.3613C10.5209,4.3613,2.0864,12.7957,2.0864,23.2002s8.4345,18.8389,18.8389,18.8389,18.8389-8.4345,18.8389-18.8389S31.3298,4.3613,20.9253,4.3613ZM20.9253,39.2c-8.8364,0-15.9997-7.1633-15.9997-15.9998s7.1633-15.9998,15.9997-15.9998,15.9998,7.1633,15.9998,15.9998-7.1633,15.9998-15.9998,15.9998Z" fill="#fc6e00"/>
        <path d="M20.7832,0C9.305,0,0,9.3049,0,20.7832s9.305,20.7832,20.7832,20.7832,20.7832-9.3049,20.7832-20.7832S32.2614,0,20.7832,0ZM20.7832,37.0962c-9.0094,0-16.313-7.3036-16.313-16.3131S11.7737,4.4701,20.7832,4.4701s16.3131,7.3036,16.3131,16.3131-7.3036,16.3131-16.3131,16.3131Z" fill="url(#linear-gradient-3)"/>
      </g>
    </symbol>
  </defs>
  <use width="41.7926" height="44.7333" transform="scale(1.3878)" xlink:href="#New_Symbol"/>
  <g>
    <path d="M38.728,31.6939l.2007-16.5378c.0097-.7975-.8248-1.3253-1.5412-.9748l-14.8561,7.2689c-.7525.3682-.8097,1.4189-.1017,1.8667l4.4402,2.8083c.4998.3161.6487.9775.3326,1.4772l-6.4282,10.1639c-.3161.4998-.1672,1.1612.3326,1.4772l1.4576.9219c.4998.3161,1.1612.1672,1.4772-.3326l6.4282-10.1639c.3161-.4998.9775-.6487,1.4772-.3326l5.1378,3.2495c.708.4478,1.6328-.0543,1.643-.8919Z" fill="#fc6e00"/>
    <circle cx="21.3169" cy="40.1945" r="4.1212" fill="#fc6e00"/>
  </g>
</svg>