<?xml version="1.0" encoding="UTF-8"?>
<svg id="Layer_1" data-name="Layer 1" xmlns="http://www.w3.org/2000/svg" width="58" height="62" viewBox="0 0 58 62">
  <circle cx="28.3539" cy="29.0872" r="26.3912"/>
  <g>
    <path d="M26.7867,21.0318l-5.8792,16.3587-.5416,5.4917c-.0529.536.6626.7652.931.2983l2.596-4.5151,5.8792-16.3587-2.9855-1.2748Z" fill="#3d4b5a"/>
    <path d="M33.0146,20.8316l5.8792,16.3587.5416,5.4917c.0529.536-.6626.7652-.931.2983l-2.596-4.5151-5.8792-16.3587,2.9855-1.2748Z" fill="#3d4b5a"/>
    <path d="M31.4011,16.0953v-3.6626c0-.8873-.7193-1.6065-1.6065-1.6065h0c-.8873,0-1.6065.7193-1.6065,1.6065v3.6626s1.6065,0,1.6065,0h1.6065Z" fill="#3d4b5a"/>
    <path d="M29.7946,15.1942c-2.2442,0-4.0636,1.8194-4.0636,4.0636s1.8194,4.0636,4.0636,4.0636,4.0636-1.8194,4.0636-4.0636-1.8194-4.0636-4.0636-4.0636ZM29.7946,20.8644c-.8872,0-1.6066-.7193-1.6066-1.6066s.7193-1.6066,1.6066-1.6066,1.6066.7193,1.6066,1.6066-.7193,1.6066-1.6066,1.6066Z" fill="#3d4b5a"/>
  </g>
  <path d="M28.843,0C12.9135,0,0,12.8965,0,28.8053s12.9135,28.8053,28.843,28.8053,28.843-12.8965,28.843-28.8053S44.7726,0,28.843,0ZM28.843,51.4151c-12.5033,0-22.6393-10.1227-22.6393-22.6098S16.3397,6.1955,28.843,6.1955s22.6394,10.1227,22.6394,22.6098-10.136,22.6098-22.6394,22.6098Z" fill="#3d4b5a"/>
</svg>