<?xml version="1.0" encoding="UTF-8"?>
<svg id="Layer_1" data-name="Layer 1" xmlns="http://www.w3.org/2000/svg" width="58" height="62" viewBox="0 0 58 62">
  <circle cx="28.3539" cy="29.0872" r="26.3912"/>
  <path d="M15.9604,21.8971l6.4272-2.5684v17.1436l-5.6377,2.2539c-.7012.2793-1.4595-.2354-1.4595-.9893v-14.8506c0-.4346.2661-.8252.6699-.9893ZM32.3232,38.7965l-8.5161-2.4346v-17.0908l8.5161,2.4355v17.0898ZM33.7432,38.7438v-17.1436l5.6377-2.2578c.7012-.2798,1.46.2349,1.46.9888v14.8501c0,.4355-.2666.8252-.6699.9893l-6.4277,2.5684v.0049Z" fill="#3d4b5a"/>
  <path d="M28.843,0C12.9135,0,0,12.8965,0,28.8053s12.9135,28.8053,28.843,28.8053,28.843-12.8965,28.843-28.8053S44.7726,0,28.843,0ZM28.843,51.4151c-12.5033,0-22.6393-10.1227-22.6393-22.6098S16.3397,6.1955,28.843,6.1955s22.6394,10.1227,22.6394,22.6098-10.136,22.6098-22.6394,22.6098Z" fill="#3d4b5a"/>
</svg>