<?xml version="1.0" encoding="UTF-8"?>
<svg id="Layer_1" data-name="Layer 1" xmlns="http://www.w3.org/2000/svg" width="58" height="62" xmlns:xlink="http://www.w3.org/1999/xlink" viewBox="0 0 58 62">
  <defs>
    <linearGradient id="linear-gradient" x1="20.9232" y1="44.873" x2="20.9232" y2="-4.7548" gradientUnits="userSpaceOnUse">
      <stop offset="0" stop-color="#ffea6d"/>
      <stop offset=".8333" stop-color="#ffcd02"/>
      <stop offset="1" stop-color="#fc0"/>
    </linearGradient>
    <symbol id="New_Symbol" data-name="New Symbol" viewBox="0 0 41.7926 44.7333">
      <g>
        <use width="41.7926" height="44.7333" xlink:href="#button_gui"/>
        <g>
          <path d="M8.3539,30.0723c-2.5928-4.4904-2.5928-10.0232,0-14.5136,2.5928-4.4904,7.3838-7.2568,12.5694-7.2568s9.9766,2.7664,12.5694,7.2568,2.5928,10.0232,0,14.5136-7.3838,7.2568-12.5694,7.2568-9.9766-2.7664-12.5694-7.2568ZM20.9232,24.6297c-1.002,0-1.8136-.8122-1.8136-1.8142s.8116-1.8142,1.8136-1.8142,1.8136.8122,1.8136,1.8142-.8116,1.8142-1.8136,1.8142Z" fill="#fc6e00"/>
          <path d="M8.3539,27.9904c-2.5928-4.4904-2.5928-10.0232,0-14.5136s7.3838-7.2568,12.5694-7.2568,9.9766,2.7664,12.5694,7.2568,2.5928,10.0232,0,14.5136-7.3838,7.2568-12.5694,7.2568-9.9766-2.7664-12.5694-7.2568Z" fill="url(#linear-gradient)"/>
        </g>
      </g>
    </symbol>
    <linearGradient id="linear-gradient-2" x1="21.244" y1="39.6774" x2="20.3986" y2="5.0163" gradientUnits="userSpaceOnUse">
      <stop offset="0" stop-color="#fc6e00"/>
      <stop offset=".5362" stop-color="#fc0" stop-opacity=".8"/>
      <stop offset=".9114" stop-color="#fc7800"/>
      <stop offset="1" stop-color="#fc7e00"/>
    </linearGradient>
    <linearGradient id="linear-gradient-3" x1="21.0263" y1="3.0361" x2="20.519" y2="40.0642" gradientUnits="userSpaceOnUse">
      <stop offset=".2698" stop-color="#ffea6d"/>
      <stop offset=".4142" stop-color="#ffcd02"/>
      <stop offset="1" stop-color="#fc0"/>
    </linearGradient>
    <symbol id="button_gui" viewBox="0 0 41.7926 44.7333">
      <g>
        <circle cx="21.0094" cy="23.9502" r="20.7832" fill="#fc6e00"/>
        <circle cx="20.7832" cy="20.7831" r="17.651" fill="url(#linear-gradient-2)"/>
        <path d="M20.9253,4.3613C10.5209,4.3613,2.0864,12.7957,2.0864,23.2002s8.4345,18.8389,18.8389,18.8389,18.8389-8.4345,18.8389-18.8389S31.3298,4.3613,20.9253,4.3613ZM20.9253,39.2c-8.8364,0-15.9997-7.1633-15.9997-15.9998s7.1633-15.9998,15.9997-15.9998,15.9998,7.1633,15.9998,15.9998-7.1633,15.9998-15.9998,15.9998Z" fill="#fc6e00"/>
        <path d="M20.7832,0C9.305,0,0,9.3049,0,20.7832s9.305,20.7832,20.7832,20.7832,20.7832-9.3049,20.7832-20.7832S32.2614,0,20.7832,0ZM20.7832,37.0962c-9.0094,0-16.313-7.3036-16.313-16.3131S11.7737,4.4701,20.7832,4.4701s16.3131,7.3036,16.3131,16.3131-7.3036,16.3131-16.3131,16.3131Z" fill="url(#linear-gradient-3)"/>
      </g>
    </symbol>
  </defs>
  <use width="41.7926" height="44.7333" transform="scale(1.3878)" xlink:href="#New_Symbol"/>
  <path d="M32.1501,24.2627h.5422c.8792,0,1.5895.7103,1.5895,1.5895s-.7103,1.5895-1.5895,1.5895h-1.5895v10.3315h2.3838c2.6324,0,4.7684-2.136,4.7684-4.7684v-.3032l-.3473.3473c-.4625.4669-1.217.4625-1.6839,0-.4669-.4617-.4669-1.2166,0-1.6834l2.7813-2.7813c.4617-.4669,1.217-.4669,1.6839,0l2.7813,2.7813c.4669.4621.4617,1.2166,0,1.6834s-1.217.4669-1.6839,0l-.3473-.3473v.3032c0,4.3907-3.5566,7.9473-7.9473,7.9473h-7.9473c-4.3907,0-7.9473-3.5566-7.9473-7.9473v-.3032l-.3482.3473c-.4617.4669-1.217.4625-1.6839,0-.4669-.4617-.4669-1.2166,0-1.6834l2.7865-2.7813c.4625-.4669,1.217-.4669,1.6839,0l2.777,2.7813c.4669.4621.4617,1.2166,0,1.6834s-1.217.4669-1.6839,0l-.3473-.3473v.3032c0,2.6324,2.1352,4.7684,4.7675,4.7684h2.3846v-10.3315h-1.5895c-.8792,0-1.5895-.7103-1.5895-1.5895s.7103-1.5895,1.5895-1.5895h.5414c-1.2863-.8545-2.1308-2.3145-2.1308-3.9737,0-2.6324,2.136-4.7684,4.7684-4.7684s4.7684,2.136,4.7684,4.7684c0,1.6592-.8445,3.1192-2.1308,3.9737h-.0104ZM29.523,18.6995c-.8775,0-1.5895.7116-1.5895,1.5895s.712,1.5895,1.5895,1.5895,1.5895-.7116,1.5895-1.5895-.712-1.5895-1.5895-1.5895Z" fill="#fc6e00"/>
</svg>