<?xml version="1.0" encoding="UTF-8"?>
<svg id="Layer_1" data-name="Layer 1" xmlns="http://www.w3.org/2000/svg" width="58" height="62" viewBox="0 0 58 62">
  <circle cx="28.3539" cy="29.0872" r="26.3912"/>
  <path d="M32.1501,24.2627h.5422c.8792,0,1.5895.7103,1.5895,1.5895s-.7103,1.5895-1.5895,1.5895h-1.5895v10.3315h2.3838c2.6324,0,4.7684-2.136,4.7684-4.7684v-.3032l-.3473.3473c-.4625.4669-1.217.4625-1.6839,0-.4669-.4617-.4669-1.2166,0-1.6834l2.7813-2.7813c.4617-.4669,1.217-.4669,1.6839,0l2.7813,2.7813c.4669.4621.4617,1.2166,0,1.6834s-1.217.4669-1.6839,0l-.3473-.3473v.3032c0,4.3907-3.5566,7.9473-7.9473,7.9473h-7.9473c-4.3907,0-7.9473-3.5566-7.9473-7.9473v-.3032l-.3482.3473c-.4617.4669-1.217.4625-1.6839,0-.4669-.4617-.4669-1.2166,0-1.6834l2.7865-2.7813c.4625-.4669,1.217-.4669,1.6839,0l2.777,2.7813c.4669.4621.4617,1.2166,0,1.6834s-1.217.4669-1.6839,0l-.3473-.3473v.3032c0,2.6324,2.1352,4.7684,4.7675,4.7684h2.3846v-10.3315h-1.5895c-.8792,0-1.5895-.7103-1.5895-1.5895s.7103-1.5895,1.5895-1.5895h.5414c-1.2863-.8545-2.1308-2.3145-2.1308-3.9737,0-2.6324,2.136-4.7684,4.7684-4.7684s4.7684,2.136,4.7684,4.7684c0,1.6592-.8445,3.1192-2.1308,3.9737h-.0104ZM29.523,18.6995c-.8775,0-1.5895.7116-1.5895,1.5895s.712,1.5895,1.5895,1.5895,1.5895-.7116,1.5895-1.5895-.712-1.5895-1.5895-1.5895Z" fill="#3d4b5a"/>
  <path d="M28.843,0C12.9135,0,0,12.8965,0,28.8053s12.9135,28.8053,28.843,28.8053,28.843-12.8965,28.843-28.8053S44.7726,0,28.843,0ZM28.843,51.4151c-12.5033,0-22.6393-10.1227-22.6393-22.6098S16.3397,6.1955,28.843,6.1955s22.6394,10.1227,22.6394,22.6098-10.136,22.6098-22.6394,22.6098Z" fill="#3d4b5a"/>
</svg>