<?xml version="1.0" encoding="UTF-8"?>
<svg id="Layer_1" data-name="Layer 1" xmlns="http://www.w3.org/2000/svg" width="58" height="62" xmlns:xlink="http://www.w3.org/1999/xlink" viewBox="0 0 58 62">
  <defs>
    <linearGradient id="linear-gradient" x1="29.4818" y1="54.9925" x2="28.31" y2="6.9526" gradientUnits="userSpaceOnUse">
      <stop offset="0" stop-color="#fc6e00"/>
      <stop offset=".5362" stop-color="#fc0" stop-opacity=".8"/>
      <stop offset=".9114" stop-color="#fc7800"/>
      <stop offset="1" stop-color="#fc7e00"/>
    </linearGradient>
    <linearGradient id="linear-gradient-2" x1="29.18" y1="4.208" x2="28.4769" y2="55.5287" gradientUnits="userSpaceOnUse">
      <stop offset=".2698" stop-color="#ffea6d"/>
      <stop offset=".4142" stop-color="#ffcd02"/>
      <stop offset="1" stop-color="#fc0"/>
    </linearGradient>
    <linearGradient id="linear-gradient-3" x1="29.0374" y1="62.1936" x2="29.0374" y2="-6.5901" gradientUnits="userSpaceOnUse">
      <stop offset="0" stop-color="#ffea6d"/>
      <stop offset=".8333" stop-color="#ffcd02"/>
      <stop offset="1" stop-color="#fc0"/>
    </linearGradient>
  </defs>
  <g>
    <g>
      <ellipse cx="29.157" cy="33.1947" rx="28.843" ry="28.8053" fill="#fc6e00"/>
      <ellipse cx="28.843" cy="28.8053" rx="24.4962" ry="24.4642" fill="url(#linear-gradient)"/>
      <path d="M29.0403,6.0447C14.601,6.0447,2.8956,17.7348,2.8956,32.1552s11.7055,26.1106,26.1448,26.1106,26.1448-11.6901,26.1448-26.1106S43.4797,6.0447,29.0403,6.0447ZM29.0403,54.3308c-12.2632,0-22.2046-9.9283-22.2046-22.1756S16.7771,9.9797,29.0403,9.9797s22.2046,9.9283,22.2046,22.1756-9.9413,22.1756-22.2046,22.1756Z" fill="#fc6e00"/>
      <path d="M28.843,0C12.9135,0,0,12.8965,0,28.8053s12.9135,28.8053,28.843,28.8053,28.843-12.8965,28.843-28.8053S44.7726,0,28.843,0ZM28.843,51.4151c-12.5033,0-22.6393-10.1227-22.6393-22.6098S16.3397,6.1955,28.843,6.1955s22.6394,10.1227,22.6394,22.6098-10.136,22.6098-22.6394,22.6098Z" fill="url(#linear-gradient-2)"/>
    </g>
    <g>
      <path d="M11.5936,41.6799c-3.5983-6.2236-3.5983-13.8921,0-20.1158,3.5983-6.2236,10.2473-10.0579,17.4438-10.0579s13.8456,3.8342,17.4438,10.0579c3.5983,6.2236,3.5983,13.8921,0,20.1158-3.5983,6.2236-10.2473,10.0579-17.4438,10.0579s-13.8456-3.8342-17.4438-10.0579ZM29.0374,34.1365c-1.3906,0-2.5169-1.1257-2.5169-2.5145s1.1263-2.5145,2.5169-2.5145,2.5169,1.1257,2.5169,2.5145-1.1263,2.5145-2.5169,2.5145Z" fill="#fc6e00"/>
      <path d="M11.5936,38.7944c-3.5983-6.2236-3.5983-13.8921,0-20.1158,3.5983-6.2236,10.2473-10.0579,17.4438-10.0579s13.8456,3.8342,17.4438,10.0579c3.5983,6.2236,3.5983,13.8921,0,20.1158s-10.2473,10.0579-17.4438,10.0579-13.8456-3.8342-17.4438-10.0579Z" fill="url(#linear-gradient-3)"/>
    </g>
  </g>
  <path d="M32.1501,24.2627h.5422c.8792,0,1.5895.7103,1.5895,1.5895s-.7103,1.5895-1.5895,1.5895h-1.5895v10.3315h2.3838c2.6324,0,4.7684-2.136,4.7684-4.7684v-.3032l-.3473.3473c-.4625.4669-1.217.4625-1.6839,0-.4669-.4617-.4669-1.2166,0-1.6834l2.7813-2.7813c.4617-.4669,1.217-.4669,1.6839,0l2.7813,2.7813c.4669.4621.4617,1.2166,0,1.6834s-1.217.4669-1.6839,0l-.3473-.3473v.3032c0,4.3907-3.5566,7.9473-7.9473,7.9473h-7.9473c-4.3907,0-7.9473-3.5566-7.9473-7.9473v-.3032l-.3482.3473c-.4617.4669-1.217.4625-1.6839,0-.4669-.4617-.4669-1.2166,0-1.6834l2.7865-2.7813c.4625-.4669,1.217-.4669,1.6839,0l2.777,2.7813c.4669.4621.4617,1.2166,0,1.6834s-1.217.4669-1.6839,0l-.3473-.3473v.3032c0,2.6324,2.1352,4.7684,4.7675,4.7684h2.3846v-10.3315h-1.5895c-.8792,0-1.5895-.7103-1.5895-1.5895s.7103-1.5895,1.5895-1.5895h.5414c-1.2863-.8545-2.1308-2.3145-2.1308-3.9737,0-2.6324,2.136-4.7684,4.7684-4.7684s4.7684,2.136,4.7684,4.7684c0,1.6592-.8445,3.1192-2.1308,3.9737h-.0104ZM29.523,18.6995c-.8775,0-1.5895.7116-1.5895,1.5895s.712,1.5895,1.5895,1.5895,1.5895-.7116,1.5895-1.5895-.712-1.5895-1.5895-1.5895Z" fill="#fc6e00"/>
</svg>