<?xml version="1.0" encoding="UTF-8"?>
<svg id="Layer_1" data-name="Layer 1" xmlns="http://www.w3.org/2000/svg" width="58" height="62" viewBox="0 0 58 62">
  <circle cx="28.3539" cy="29.0872" r="26.3912"/>
  <path d="M19.2481,29.6729l9.9705,9.9705-2.9914,2.9914c-1.0998,1.0998-2.8878,1.1004-3.9876.0006l-5.9829-5.9829c-1.0998-1.0998-1.0998-2.8884,0-3.9882l2.9914-2.9914ZM38.1917,30.6702l-7.9764,7.9764-9.9705-9.9705,7.9764-7.9764,9.9705,9.9705ZM26.9751,30.4209c.4126-.4126.4126-1.0822-.0003-1.4951-.4132-.4132-1.0828-.4132-1.4954-.0006-.4132.4132-.4132,1.0828,0,1.496.4129.4129,1.0825.4129,1.4957-.0003ZM29.9666,33.4123c.4126-.4126.4123-1.0825-.0009-1.4957-.4126-.4126-1.0825-.4129-1.4951-.0003-.4132.4132-.4129,1.0831-.0003,1.4957.4132.4132,1.0831.4135,1.4963.0003ZM28.4708,27.4298c.4129.4129,1.0825.4129,1.4951.0003.4132-.4132.4132-1.0828.0003-1.4957-.4132-.4132-1.0828-.4132-1.496,0-.4126.4126-.4126,1.0822.0006,1.4954ZM31.4617,30.4206c.4132.4132,1.0831.4135,1.4957.0009.4132-.4132.4129-1.0831-.0003-1.4963-.4126-.4126-1.0825-.4129-1.4957.0003-.4126.4126-.4123,1.0825.0003,1.4951ZM29.218,19.703l2.9914-2.9914c1.0998-1.0998,2.8884-1.0998,3.9882,0l5.9829,5.9829c1.0998,1.0998,1.0992,2.8878-.0006,3.9876l-2.9914,2.9914-9.9705-9.9705Z" fill="#3d4b5a"/>
  <path d="M28.843,0C12.9135,0,0,12.8965,0,28.8053s12.9135,28.8053,28.843,28.8053,28.843-12.8965,28.843-28.8053S44.7726,0,28.843,0ZM28.843,51.4151c-12.5033,0-22.6393-10.1227-22.6393-22.6098S16.3397,6.1955,28.843,6.1955s22.6394,10.1227,22.6394,22.6098-10.136,22.6098-22.6394,22.6098Z" fill="#3d4b5a"/>
</svg>