<?xml version="1.0" encoding="UTF-8"?>
<svg id="Layer_1" data-name="Layer 1" xmlns="http://www.w3.org/2000/svg" width="58" height="62" viewBox="0 0 58 62">
  <circle cx="28.3539" cy="29.0872" r="26.3912"/>
  <path d="M34.8498,15.5273c.2646.1113.4551.3501.5088.6309l1.0547,5.7197,5.7197,1.0498c.2812.0527.5195.2437.6309.5088s.0791.5669-.085.8057l-3.3027,4.792,3.3027,4.7871c.1641.2383.1963.54.085.8057-.1113.2646-.3496.4551-.6309.5088l-5.7197,1.0547-1.0547,5.7197c-.0537.2812-.2441.5195-.5088.6309-.2656.1113-.5674.0791-.8057-.085l-4.7871-3.3027-4.7871,3.3027c-.2383.1641-.54.1963-.8057.085-.2646-.1113-.4551-.3496-.5088-.6309l-1.0547-5.7197-5.7197-1.0547c-.2812-.0537-.5195-.2441-.6309-.5088-.1113-.2656-.0791-.5674.085-.8057l3.3027-4.7871-3.3027-4.7866c-.1641-.2388-.1963-.541-.085-.8057.1113-.2651.3496-.4561.6309-.5093l5.7197-1.0547,1.0547-5.7197c.0537-.2808.2441-.5195.5088-.6309.2656-.1113.5674-.0796.8057.085l4.7871,3.3022,4.7871-3.3022c.2383-.1646.54-.1963.8057-.085ZM36.0422,29.0342c0-2.4243-1.293-4.6641-3.3926-5.876-2.0996-1.2124-4.6855-1.2124-6.7852,0-2.0996,1.2119-3.3926,3.4517-3.3926,5.876s1.293,4.6641,3.3926,5.876,4.6855,1.2119,6.7852,0,3.3926-3.4517,3.3926-5.876ZM24.1682,29.0342c0-1.8179.9697-3.498,2.5449-4.4072,1.5742-.9087,3.5137-.9087,5.0879,0,1.5752.9092,2.5449,2.5894,2.5449,4.4072s-.9697,3.498-2.5449,4.4072c-1.5742.9092-3.5137.9092-5.0879,0-1.5752-.9092-2.5449-2.5894-2.5449-4.4072Z" fill="#3d4b5a"/>
  <path d="M28.843,0C12.9135,0,0,12.8965,0,28.8053s12.9135,28.8053,28.843,28.8053,28.843-12.8965,28.843-28.8053S44.7726,0,28.843,0ZM28.843,51.4151c-12.5033,0-22.6393-10.1227-22.6393-22.6098S16.3397,6.1955,28.843,6.1955s22.6394,10.1227,22.6394,22.6098-10.136,22.6098-22.6394,22.6098Z" fill="#3d4b5a"/>
</svg>