<?xml version="1.0" encoding="UTF-8"?>
<svg id="Layer_1" data-name="Layer 1" xmlns="http://www.w3.org/2000/svg" width="58" height="62" xmlns:xlink="http://www.w3.org/1999/xlink" viewBox="0 0 58 62">
  <defs>
    <linearGradient id="linear-gradient" x1="29.4818" y1="54.9925" x2="28.31" y2="6.9526" gradientUnits="userSpaceOnUse">
      <stop offset="0" stop-color="#fc6e00"/>
      <stop offset=".5362" stop-color="#fc0" stop-opacity=".8"/>
      <stop offset=".9114" stop-color="#fc7800"/>
      <stop offset="1" stop-color="#fc7e00"/>
    </linearGradient>
    <linearGradient id="linear-gradient-2" x1="29.18" y1="4.208" x2="28.4769" y2="55.5287" gradientUnits="userSpaceOnUse">
      <stop offset=".2698" stop-color="#ffea6d"/>
      <stop offset=".4142" stop-color="#ffcd02"/>
      <stop offset="1" stop-color="#fc0"/>
    </linearGradient>
    <linearGradient id="linear-gradient-3" x1="29.0374" y1="62.1936" x2="29.0374" y2="-6.5901" gradientUnits="userSpaceOnUse">
      <stop offset="0" stop-color="#ffea6d"/>
      <stop offset=".8333" stop-color="#ffcd02"/>
      <stop offset="1" stop-color="#fc0"/>
    </linearGradient>
  </defs>
  <g>
    <g>
      <ellipse cx="29.157" cy="33.1947" rx="28.843" ry="28.8053" fill="#fc6e00"/>
      <ellipse cx="28.843" cy="28.8053" rx="24.4962" ry="24.4642" fill="url(#linear-gradient)"/>
      <path d="M29.0403,6.0447C14.601,6.0447,2.8956,17.7348,2.8956,32.1552s11.7055,26.1106,26.1448,26.1106,26.1448-11.6901,26.1448-26.1106S43.4797,6.0447,29.0403,6.0447ZM29.0403,54.3308c-12.2632,0-22.2046-9.9283-22.2046-22.1756S16.7771,9.9797,29.0403,9.9797s22.2046,9.9283,22.2046,22.1756-9.9413,22.1756-22.2046,22.1756Z" fill="#fc6e00"/>
      <path d="M28.843,0C12.9135,0,0,12.8965,0,28.8053s12.9135,28.8053,28.843,28.8053,28.843-12.8965,28.843-28.8053S44.7726,0,28.843,0ZM28.843,51.4151c-12.5033,0-22.6393-10.1227-22.6393-22.6098S16.3397,6.1955,28.843,6.1955s22.6394,10.1227,22.6394,22.6098-10.136,22.6098-22.6394,22.6098Z" fill="url(#linear-gradient-2)"/>
    </g>
    <g>
      <path d="M11.5936,41.6799c-3.5983-6.2236-3.5983-13.8921,0-20.1158,3.5983-6.2236,10.2473-10.0579,17.4438-10.0579s13.8456,3.8342,17.4438,10.0579c3.5983,6.2236,3.5983,13.8921,0,20.1158-3.5983,6.2236-10.2473,10.0579-17.4438,10.0579s-13.8456-3.8342-17.4438-10.0579ZM29.0374,34.1365c-1.3906,0-2.5169-1.1257-2.5169-2.5145s1.1263-2.5145,2.5169-2.5145,2.5169,1.1257,2.5169,2.5145-1.1263,2.5145-2.5169,2.5145Z" fill="#fc6e00"/>
      <path d="M11.5936,38.7944c-3.5983-6.2236-3.5983-13.8921,0-20.1158,3.5983-6.2236,10.2473-10.0579,17.4438-10.0579s13.8456,3.8342,17.4438,10.0579c3.5983,6.2236,3.5983,13.8921,0,20.1158-3.5983,6.2236-10.2473,10.0579-17.4438,10.0579s-13.8456-3.8342-17.4438-10.0579Z" fill="url(#linear-gradient-3)"/>
    </g>
  </g>
  <path d="M34.8498,15.5273c.2646.1113.4551.3501.5088.6309l1.0547,5.7197,5.7197,1.0498c.2812.0527.5195.2437.6309.5088s.0791.5669-.085.8057l-3.3027,4.792,3.3027,4.7871c.1641.2383.1963.54.085.8057-.1113.2646-.3496.4551-.6309.5088l-5.7197,1.0547-1.0547,5.7197c-.0537.2812-.2441.5195-.5088.6309-.2656.1113-.5674.0791-.8057-.085l-4.7871-3.3027-4.7871,3.3027c-.2383.1641-.54.1963-.8057.085-.2646-.1113-.4551-.3496-.5088-.6309l-1.0547-5.7197-5.7197-1.0547c-.2812-.0537-.5195-.2441-.6309-.5088-.1113-.2656-.0791-.5674.085-.8057l3.3027-4.7871-3.3027-4.7866c-.1641-.2388-.1963-.541-.085-.8057.1113-.2651.3496-.4561.6309-.5093l5.7197-1.0547,1.0547-5.7197c.0537-.2808.2441-.5195.5088-.6309.2656-.1113.5674-.0796.8057.085l4.7871,3.3022,4.7871-3.3022c.2383-.1646.54-.1963.8057-.085ZM36.0422,29.0342c0-2.4243-1.293-4.6641-3.3926-5.876-2.0996-1.2124-4.6855-1.2124-6.7852,0-2.0996,1.2119-3.3926,3.4517-3.3926,5.876s1.293,4.6641,3.3926,5.876,4.6855,1.2119,6.7852,0,3.3926-3.4517,3.3926-5.876ZM24.1682,29.0342c0-1.8179.9697-3.498,2.5449-4.4072,1.5742-.9087,3.5137-.9087,5.0879,0,1.5752.9092,2.5449,2.5894,2.5449,4.4072s-.9697,3.498-2.5449,4.4072c-1.5742.9092-3.5137.9092-5.0879,0-1.5752-.9092-2.5449-2.5894-2.5449-4.4072Z" fill="#fc6e00"/>
</svg>