<?xml version="1.0" encoding="UTF-8"?>
<svg id="Layer_1" data-name="Layer 1" xmlns="http://www.w3.org/2000/svg" width="58" height="62" xmlns:xlink="http://www.w3.org/1999/xlink" viewBox="0 0 58 62">
  <defs>
    <linearGradient id="linear-gradient" x1="20.9232" y1="44.873" x2="20.9232" y2="-4.7548" gradientUnits="userSpaceOnUse">
      <stop offset="0" stop-color="#ffea6d"/>
      <stop offset=".8333" stop-color="#ffcd02"/>
      <stop offset="1" stop-color="#fc0"/>
    </linearGradient>
    <symbol id="New_Symbol" data-name="New Symbol" viewBox="0 0 41.7926 44.7333">
      <g>
        <use width="41.7926" height="44.7333" xlink:href="#button_gui"/>
        <g>
          <path d="M8.3539,30.0723c-2.5928-4.4904-2.5928-10.0232,0-14.5136,2.5928-4.4904,7.3838-7.2568,12.5694-7.2568s9.9766,2.7664,12.5694,7.2568,2.5928,10.0232,0,14.5136-7.3838,7.2568-12.5694,7.2568-9.9766-2.7664-12.5694-7.2568ZM20.9232,24.6297c-1.002,0-1.8136-.8122-1.8136-1.8142s.8116-1.8142,1.8136-1.8142,1.8136.8122,1.8136,1.8142-.8116,1.8142-1.8136,1.8142Z" fill="#fc6e00"/>
          <path d="M8.3539,27.9904c-2.5928-4.4904-2.5928-10.0232,0-14.5136s7.3838-7.2568,12.5694-7.2568,9.9766,2.7664,12.5694,7.2568,2.5928,10.0232,0,14.5136-7.3838,7.2568-12.5694,7.2568-9.9766-2.7664-12.5694-7.2568Z" fill="url(#linear-gradient)"/>
        </g>
      </g>
    </symbol>
    <linearGradient id="linear-gradient-2" x1="21.244" y1="39.6774" x2="20.3986" y2="5.0163" gradientUnits="userSpaceOnUse">
      <stop offset="0" stop-color="#fc6e00"/>
      <stop offset=".5362" stop-color="#fc0" stop-opacity=".8"/>
      <stop offset=".9114" stop-color="#fc7800"/>
      <stop offset="1" stop-color="#fc7e00"/>
    </linearGradient>
    <linearGradient id="linear-gradient-3" x1="21.0263" y1="3.0361" x2="20.519" y2="40.0642" gradientUnits="userSpaceOnUse">
      <stop offset=".2698" stop-color="#ffea6d"/>
      <stop offset=".4142" stop-color="#ffcd02"/>
      <stop offset="1" stop-color="#fc0"/>
    </linearGradient>
    <symbol id="button_gui" viewBox="0 0 41.7926 44.7333">
      <g>
        <circle cx="21.0094" cy="23.9502" r="20.7832" fill="#fc6e00"/>
        <circle cx="20.7832" cy="20.7831" r="17.651" fill="url(#linear-gradient-2)"/>
        <path d="M20.9253,4.3613C10.5209,4.3613,2.0864,12.7957,2.0864,23.2002s8.4345,18.8389,18.8389,18.8389,18.8389-8.4345,18.8389-18.8389S31.3298,4.3613,20.9253,4.3613ZM20.9253,39.2c-8.8364,0-15.9997-7.1633-15.9997-15.9998s7.1633-15.9998,15.9997-15.9998,15.9998,7.1633,15.9998,15.9998-7.1633,15.9998-15.9998,15.9998Z" fill="#fc6e00"/>
        <path d="M20.7832,0C9.305,0,0,9.3049,0,20.7832s9.305,20.7832,20.7832,20.7832,20.7832-9.3049,20.7832-20.7832S32.2614,0,20.7832,0ZM20.7832,37.0962c-9.0094,0-16.313-7.3036-16.313-16.3131S11.7737,4.4701,20.7832,4.4701s16.3131,7.3036,16.3131,16.3131-7.3036,16.3131-16.3131,16.3131Z" fill="url(#linear-gradient-3)"/>
      </g>
    </symbol>
  </defs>
  <use width="41.7926" height="44.7333" transform="scale(1.3878)" xlink:href="#New_Symbol"/>
  <g>
    <rect x="34.2485" y="25.8571" width="2.4763" height="1.4401" fill="#fc6e00"/>
    <path d="M38.4218,25.6657l.3831,1.3881c.8629-.2368,1.6753-.6533,2.3726-1.2129l-.9027-1.122c-.546.4377-1.1802.7623-1.853.9468Z" fill="#fc6e00"/>
    <path d="M42.1255,21.5558c-.1137.6889-.3704,1.3523-.7495,1.9399l1.2092.7821c.4852-.7511.8151-1.603.9608-2.4854l-1.4205-.2367Z" fill="#fc6e00"/>
    <path d="M22.4787,31.5937l1.4205.2364c.1225-.7439.4032-1.4604.8178-2.0911l-1.2014-.794c-.5249.7972-.8817,1.7065-1.0369,2.6487Z" fill="#fc6e00"/>
    <path d="M25.057,27.2913l.88,1.1399c.5976-.4606,1.2908-.7952,2.0231-.9733l-.3409-1.3991c-.9285.2257-1.8072.65-2.5623,1.2326Z" fill="#fc6e00"/>
    <rect x="29.7756" y="25.8571" width="2.4763" height="1.4401" fill="#fc6e00"/>
  </g>
  <path d="M24.3767,44.2865h-4.126c-1.3273,0-2.1667-1.4254-1.5229-2.5861l2.063-5.4032c.6632-1.1958,2.3827-1.1958,3.0459,0l2.063,5.4032c.6437,1.1607-.1957,2.5861-1.5229,2.5861Z" fill="#fc6e00"/>
  <path d="M34.987,14.9971v4.126c0,1.3273-1.4254,2.1667-2.5861,1.5229l-5.4032-2.063c-1.1958-.6632-1.1958-2.3827,0-3.0459l5.4032-2.063c1.1607-.6437,2.5861.1957,2.5861,1.5229Z" fill="#fc6e00"/>
</svg>