<?xml version="1.0" encoding="UTF-8"?>
<svg id="Layer_1" data-name="Layer 1" xmlns="http://www.w3.org/2000/svg" width="58" height="62" xmlns:xlink="http://www.w3.org/1999/xlink" viewBox="0 0 58 62">
  <defs>
    <linearGradient id="linear-gradient" x1="29.4818" y1="54.9925" x2="28.31" y2="6.9526" gradientUnits="userSpaceOnUse">
      <stop offset="0" stop-color="#fc6e00"/>
      <stop offset=".5362" stop-color="#fc0" stop-opacity=".8"/>
      <stop offset=".9114" stop-color="#fc7800"/>
      <stop offset="1" stop-color="#fc7e00"/>
    </linearGradient>
    <linearGradient id="linear-gradient-2" x1="29.18" y1="4.208" x2="28.4769" y2="55.5287" gradientUnits="userSpaceOnUse">
      <stop offset=".2698" stop-color="#ffea6d"/>
      <stop offset=".4142" stop-color="#ffcd02"/>
      <stop offset="1" stop-color="#fc0"/>
    </linearGradient>
    <linearGradient id="linear-gradient-3" x1="29.0374" y1="62.1936" x2="29.0374" y2="-6.5901" gradientUnits="userSpaceOnUse">
      <stop offset="0" stop-color="#ffea6d"/>
      <stop offset=".8333" stop-color="#ffcd02"/>
      <stop offset="1" stop-color="#fc0"/>
    </linearGradient>
  </defs>
  <g>
    <g>
      <ellipse cx="29.157" cy="33.1947" rx="28.843" ry="28.8053" fill="#fc6e00"/>
      <ellipse cx="28.843" cy="28.8053" rx="24.4962" ry="24.4642" fill="url(#linear-gradient)"/>
      <path d="M29.0403,6.0447C14.601,6.0447,2.8956,17.7348,2.8956,32.1552s11.7055,26.1106,26.1448,26.1106,26.1448-11.6901,26.1448-26.1106S43.4797,6.0447,29.0403,6.0447ZM29.0403,54.3308c-12.2632,0-22.2046-9.9283-22.2046-22.1756S16.7771,9.9797,29.0403,9.9797s22.2046,9.9283,22.2046,22.1756-9.9413,22.1756-22.2046,22.1756Z" fill="#fc6e00"/>
      <path d="M28.843,0C12.9135,0,0,12.8965,0,28.8053s12.9135,28.8053,28.843,28.8053,28.843-12.8965,28.843-28.8053S44.7726,0,28.843,0ZM28.843,51.4151c-12.5033,0-22.6393-10.1227-22.6393-22.6098S16.3397,6.1955,28.843,6.1955s22.6394,10.1227,22.6394,22.6098-10.136,22.6098-22.6394,22.6098Z" fill="url(#linear-gradient-2)"/>
    </g>
    <g>
      <path d="M11.5936,41.6799c-3.5983-6.2236-3.5983-13.8921,0-20.1158,3.5983-6.2236,10.2473-10.0579,17.4438-10.0579s13.8456,3.8342,17.4438,10.0579c3.5983,6.2236,3.5983,13.8921,0,20.1158-3.5983,6.2236-10.2473,10.0579-17.4438,10.0579s-13.8456-3.8342-17.4438-10.0579ZM29.0374,34.1365c-1.3906,0-2.5169-1.1257-2.5169-2.5145s1.1263-2.5145,2.5169-2.5145,2.5169,1.1257,2.5169,2.5145-1.1263,2.5145-2.5169,2.5145Z" fill="#fc6e00"/>
      <path d="M11.5936,38.7944c-3.5983-6.2236-3.5983-13.8921,0-20.1158,3.5983-6.2236,10.2473-10.0579,17.4438-10.0579s13.8456,3.8342,17.4438,10.0579c3.5983,6.2236,3.5983,13.8921,0,20.1158s-10.2473,10.0579-17.4438,10.0579-13.8456-3.8342-17.4438-10.0579Z" fill="url(#linear-gradient-3)"/>
    </g>
  </g>
  <g>
    <rect x="34.2485" y="25.8571" width="2.4763" height="1.4401" fill="#fc6e00"/>
    <path d="M38.4218,25.6657l.3831,1.3881c.8629-.2368,1.6753-.6533,2.3726-1.2129l-.9027-1.122c-.546.4377-1.1802.7623-1.853.9468Z" fill="#fc6e00"/>
    <path d="M42.1255,21.5558c-.1137.6889-.3704,1.3523-.7495,1.9399l1.2092.7821c.4852-.7511.8151-1.603.9608-2.4854l-1.4205-.2367Z" fill="#fc6e00"/>
    <path d="M22.4787,31.5937l1.4205.2364c.1225-.7439.4032-1.4604.8178-2.0911l-1.2014-.794c-.5249.7972-.8817,1.7065-1.0369,2.6487Z" fill="#fc6e00"/>
    <path d="M25.057,27.2913l.88,1.1399c.5976-.4606,1.2908-.7952,2.0231-.9733l-.3409-1.3991c-.9285.2257-1.8072.65-2.5623,1.2326Z" fill="#fc6e00"/>
    <rect x="29.7756" y="25.8571" width="2.4763" height="1.4401" fill="#fc6e00"/>
  </g>
  <path d="M24.3767,44.2865h-4.126c-1.3273,0-2.1667-1.4254-1.5229-2.5861l2.063-5.4032c.6632-1.1958,2.3827-1.1958,3.0459,0l2.063,5.4032c.6437,1.1607-.1957,2.5861-1.5229,2.5861Z" fill="#fc6e00"/>
  <path d="M34.987,14.9971v4.126c0,1.3273-1.4254,2.1667-2.5861,1.5229l-5.4032-2.063c-1.1958-.6632-1.1958-2.3827,0-3.0459l5.4032-2.063c1.1607-.6437,2.5861.1957,2.5861,1.5229Z" fill="#fc6e00"/>
</svg>