<?xml version="1.0" encoding="UTF-8"?>
<svg id="Layer_1" data-name="Layer 1" xmlns="http://www.w3.org/2000/svg" width="58" height="62" viewBox="0 0 58 62">
  <circle cx="28.3539" cy="29.0872" r="26.3912"/>
  <g>
    <rect x="34.2485" y="25.8571" width="2.4763" height="1.4401" fill="#3d4b5a"/>
    <path d="M38.4218,25.6657l.3831,1.3881c.8629-.2368,1.6753-.6533,2.3726-1.2129l-.9027-1.122c-.546.4377-1.1802.7623-1.853.9468Z" fill="#3d4b5a"/>
    <path d="M42.1255,21.5558c-.1137.6889-.3704,1.3523-.7495,1.9399l1.2092.7821c.4852-.7511.8151-1.603.9608-2.4854l-1.4205-.2367Z" fill="#3d4b5a"/>
    <path d="M22.4787,31.5937l1.4205.2364c.1225-.7439.4032-1.4604.8178-2.0911l-1.2014-.794c-.5249.7972-.8817,1.7065-1.0369,2.6487Z" fill="#3d4b5a"/>
    <path d="M25.057,27.2913l.88,1.1399c.5976-.4606,1.2908-.7952,2.0231-.9733l-.3409-1.3991c-.9285.2257-1.8072.65-2.5623,1.2326Z" fill="#3d4b5a"/>
    <rect x="29.7756" y="25.8571" width="2.4763" height="1.4401" fill="#3d4b5a"/>
  </g>
  <path d="M24.3767,44.2865h-4.126c-1.3273,0-2.1667-1.4254-1.5229-2.5861l2.063-5.4032c.6632-1.1958,2.3827-1.1958,3.0459,0l2.063,5.4032c.6437,1.1607-.1957,2.5861-1.5229,2.5861Z" fill="#3d4b5a"/>
  <path d="M34.987,14.9971v4.126c0,1.3273-1.4254,2.1667-2.5861,1.5229l-5.4032-2.063c-1.1958-.6632-1.1958-2.3827,0-3.0459l5.4032-2.063c1.1607-.6437,2.5861.1957,2.5861,1.5229Z" fill="#3d4b5a"/>
  <path d="M28.843,0C12.9135,0,0,12.8965,0,28.8053s12.9135,28.8053,28.843,28.8053,28.843-12.8965,28.843-28.8053S44.7726,0,28.843,0ZM28.843,51.4151c-12.5033,0-22.6393-10.1227-22.6393-22.6098S16.3397,6.1955,28.843,6.1955s22.6394,10.1227,22.6394,22.6098-10.136,22.6098-22.6394,22.6098Z" fill="#3d4b5a"/>
</svg>