<?xml version="1.0" encoding="UTF-8"?>
<svg xmlns="http://www.w3.org/2000/svg" xmlns:xlink="http://www.w3.org/1999/xlink" viewBox="0 0 375 3500">
  <defs>
    <linearGradient id="linear-gradient" x1="187.5" y1="116.31" x2="187.5" y2="642.29" gradientUnits="userSpaceOnUse">
      <stop offset="0" stop-color="#4db0b5"/>
      <stop offset=".57" stop-color="#5eb6b2"/>
      <stop offset=".65" stop-color="#61b7b1"/>
      <stop offset=".89" stop-color="#fbda96"/>
      <stop offset="1" stop-color="#e1d49a"/>
    </linearGradient>
    <linearGradient id="linear-gradient-2" x1="189.6" y1="687.58" x2="189.6" y2="852.45" gradientUnits="userSpaceOnUse">
      <stop offset="0" stop-color="#4db0b5"/>
      <stop offset="1" stop-color="#fbda96"/>
    </linearGradient>
    <linearGradient id="linear-gradient-3" x1="187.5" y1="785.17" x2="187.5" y2="919.75" gradientUnits="userSpaceOnUse">
      <stop offset="0" stop-color="#41a2b5"/>
      <stop offset="1" stop-color="#4cbec1"/>
    </linearGradient>
    <linearGradient id="linear-gradient-4" x1="190.16" y1="1046.38" x2="190.16" y2="929.93" gradientUnits="userSpaceOnUse">
      <stop offset="0" stop-color="#4cbec1"/>
      <stop offset="1" stop-color="#fbda96"/>
    </linearGradient>
  </defs>
  <g id="bg_01">
    <rect width="375" height="3518.08" style="fill: url(#linear-gradient);"/>
    <path d="M0,619.29l20.92-41.8,28.22,28.21-5.24,5.37,11.02,6.09,22.86,45.31,25.71-47.45,19.79,19.79,8.49,22.32,20.28-33.72,12.24.87-4.81-13.22,13.62-22.64,23.88,17.06,31.61-.79,31.77,43.93,30.88-11.84,34.76-21.57,8.8,8-3.8,9.77,7.19-4.23,9.94,7.88,31.08,3.54s-2.83,231.19-5,231.99-374.19,0-374.19,0v-252.85Z" style="fill: url(#linear-gradient-2);"/>
    <path d="M-.08,788.39l14.51-41.01,24.38-5.65,4.24,22.13,19.79-4.64,43.84,39.12,27.98-25.26,40.54,49.42,41.75-32.6,12.15,5.42-1.87-13.45,46.26-36.12,38.29,15.94,17.32,30.88-2.54,12.17,11.1-4.97,36.45,30.69s2.18,2576.29,0,2577.1c-2.18.8-374.19,0-374.19,0V788.39Z" style="fill: url(#linear-gradient-3);"/>
    <path d="M-23.12,500.01c3.05-1.38,36.19-8.85,53.88-8.11,18.16.76,97.75-2.33,85.9,12.77-7.12,9.07-56.3,3.32-72.55,9s-24.22,13.13-4.75,15.56,44.77,4.49,41.05,10.77-3.72,14.39-21.58,11.96-86.83-6.67-86.83-6.67c0,0-36.52-26.6,4.87-45.26Z" style="fill: #fbda96;"/>
    <path d="M397.17,554.33c-2.25-.75-95.16,8.24-95.16,0s41.96.75,41.96-11.99-16.8-1.28-16.27-10.76,75.46-9.47,74.71-9.47" style="fill: #fbda96;"/>
    <path d="M421.52,155.6c-1.93.64-181.41,4.5-181.41,4.5,0,0,16.08-21.23,23.8-21.87s17.85,4.5,17.85,4.5c0,0-11.14-8.33,5.95-25.1,10.18-9.98,21.88-1.91,21.88-1.91,0,0-13.51-36.39,13.51-44.79s32.81,0,32.81,0c0,0,8.76-45.92,26.25-48.5s64.45,50.18,64.45,50.18c0,0,1.93,84.91,0,87.49s-25.09-4.5-25.09-4.5Z" style="fill: #fcfcd8;"/>
    <path d="M400.29,172.96c-1.93-.64-167.7-3.8-160.18-12.86s104.85-14.24,108.07-15.49,66.9,2.59,68.19,3.89-16.08,24.45-16.08,24.45Z" style="fill: #afdeca;"/>
    <path d="M355.91,123.42c-20.59-15.62-44.72-12.09-46.65-8.22s5.92-18.64,13.2-19.45c23.8-2.63,45.03,36.45,33.45,27.66Z" style="fill: #afdeca;"/>
    <path d="M371.88,81.85c-8.36-8.75-15.98-10.92-15.98-10.92,0,0,13.52-22.49,19.09-19.56,20.79,10.94,8.57,58.8,8.57,58.8,0,0-3.32-19.58-11.68-28.32Z" style="fill: #afdeca;"/>
  </g>
  <g id="level_001">
    <g>
      <path d="M71.81,102.95h95.7s5.94-12.21-13.2-15.51-1.98-16.17-27.39-16.5-3.63,11.22-27.39,14.52c-23.76,3.3-2.97,5.61-32.34,9.9s-26.07,8.58-26.07,8.58l30.69-.99Z" style="fill: #fcfcd9;"/>
      <path d="M41.12,103.94s23.18-3.2,62.62-8.25c44.8-5.73,66.11-1.17,63.77,7.26s-12.04,3.41-64.59,3-61.8-2.01-61.8-2.01Z" style="fill: #afdeca;"/>
    </g>
    <g>
      <path d="M343.08,282.28h-75.43s-4.68-9.62,10.4-12.22c15.09-2.6,1.56-12.74,21.59-13s2.86,8.84,21.59,11.44c18.73,2.6,2.34,4.42,25.49,7.8,23.15,3.38,20.55,6.76,20.55,6.76l-24.19-.78Z" style="fill: #fcfcd9;"/>
      <path d="M367.27,283.06s-18.27-2.52-49.35-6.5c-35.31-4.52-52.11-.92-50.26,5.72s9.49,2.69,50.91,2.37c41.42-.32,48.71-1.59,48.71-1.59Z" style="fill: #afdeca;"/>
    </g>
    <path d="M342.98,962.46l-1.24-5.54c3.75-1.19,7.42-3.25,7.42-3.25v-5.89l-3.57-1.63,3.57-4.44-2.14-9.09-8.92-15.16-2.37,14.97,4.69,4.28-5.53.89s-3.57,9.28-3.85,10.17v5.89s3.49,4.64,7.95,3.93c.03,0,.06-.01.08-.02l-.44,6.66c-4.82,1.27-9.79.22-14.77-4.21-2.98-2.66-6.29-6.49-9.77-11.02.82-3.03,1.9-7.26,2.32-8.87,4.55,2.82,7.01,6.01,7.01,6.01l7.62-40.18-9.3,9.84,1.25,7.73-4.65-1.78s-12.12,14.48-10.58,14.82c2.64.59,4.97,1.53,6.97,2.6-.37,1.08-1.93,4.28-3.09,6.59-16.1-21.78-35.29-55.37-44.84-55.57-32.4-.7-57.45,69.55-84.66,69.63-27.2.08-28.8-50.66-45.5-50s-9.9,32.16-30.48,25.92c-19.58-5.93-27.35-66.9-54.16-72.86l.97-4.42.62.2c1.25.4,2.59-.29,2.98-1.55l2.62-8.26c.61-1.91-.45-3.95-2.36-4.56h0c-1.91-.61-3.95.45-4.56,2.36l-2.62,8.26c-.4,1.25.29,2.59,1.55,2.98l.57.18-1.34,4.52c-.89-.12-1.8-.19-2.73-.19-1.19,0-2.35.11-3.5.3l-1.31-6.66.47-.08c2.14-.36,3.58-2.38,3.22-4.52l-4.78-28.49c-.55-3.26-3.64-5.47-6.9-4.92-3.26.55-5.47,3.64-4.92,6.9l4.78,28.49c.36,2.14,2.38,3.58,4.52,3.22l1.62-.27,1.04,6.82c-2.69.73-5.27,1.95-7.74,3.55l-2.33-2.93.56-.39c1.73-1.2,2.17-3.57.98-5.3l-7.29-10.57c-1.83-2.65-5.45-3.31-8.1-1.49-2.65,1.83-3.31,5.45-1.49,8.1l7.29,10.57c1.2,1.73,3.57,2.17,5.3.98l1.33-.92,2.27,2.98c-21.1,15.28-33.31,58.04-33.31,58.04v2619.16s372.02.8,374.19,0,7.32-2645.18,7.32-2645.18c0,0-17.02,51.18-37.94,62.68Z" style="fill: url(#linear-gradient-4);"/>
    <g>
      <path d="M377.11,1014.11c-20.95,50.35-53.59,62.07-95.2,62.07-47.97,0-112.42-79.57-163.47-81.58-47.97-1.89-113.26,89.88-113.26,89.88,0,0-4.43,2144.03-2.26,2144.83,2.18.8,374.19,0,374.19,0,0,0,2.04-2212.17,0-2215.2Z" style="fill: #fbda96;"/>
      <path d="M2.09,1032.71c20.95,50.35,53.59,62.07,95.2,62.07,47.97,0,112.42-79.57,163.47-81.58,47.97-1.89,113.26,89.88,113.26,89.88,0,0,4.43,2144.03,2.26,2144.83s-374.19,0-374.19,0c0,0-2.04-2212.17,0-2215.2Z" style="fill: #41a2b5;"/>
      <path d="M335.75,1118.32c0,21.7-61.42,67.06-74.39,1.91-12.96-65.14-52.18-27.2-52.18-48.9s27.32-34.89,60.97-34.89,65.6,60.19,65.6,81.89Z" style="fill: #fbda96;"/>
      <path d="M176.24,1038.69c0,12.35-50.11,32.36-74.94,32.36s-44.97-10.01-44.97-22.36,40.36-34.19,65.19-34.19,54.72,11.84,54.72,24.19Z" style="fill: #41a2b5;"/>
      <path d="M375.18,1074.5c-20.95,50.35-53.59,62.07-95.2,62.07-47.97,0-112.42-79.57-163.47-81.58-47.97-1.89-113.26,89.88-113.26,89.88,0,0-4.43,2144.03-2.26,2144.83s374.19,0,374.19,0c0,0,2.04-2212.17,0-2215.2Z" style="fill: #4cbec1;"/>
      <path d="M-.18,1181.12c20.95,50.35,53.59,62.07,95.2,62.07,47.97,0,112.42-79.57,163.47-81.58,47.97-1.89,113.26,89.88,113.26,89.88,0,0,4.43,2144.03,2.26,2144.83s-374.19,0-374.19,0c0,0-2.04-2212.17,0-2215.2Z" style="fill: #33b2bc;"/>
      <path d="M208.52,1130.02c0,28.98-62.56,77.67-107.5,77.67s-67.31-39.03-67.31-68.01,104.91-112.26,81.83-42.66,92.98,4.02,92.98,33Z" style="fill: #33b2bc;"/>
      <path d="M339.8,1241.04c0,28.98-31.58,69.38-76.52,69.38s-98.29-30.73-98.29-59.71,47.22-71.8,92.16-71.8,82.64,33.16,82.64,62.14Z" style="fill: #4cbec1;"/>
    </g>
  </g>
</svg>