<?xml version="1.0" encoding="UTF-8"?>
<svg xmlns="http://www.w3.org/2000/svg" xmlns:xlink="http://www.w3.org/1999/xlink" viewBox="0 0 375 3500">
  <defs>
    <linearGradient id="linear-gradient" x1="190.83" y1="65.15" x2="188.21" y2="1396.47" gradientUnits="userSpaceOnUse">
      <stop offset="0" stop-color="#4db0b5"/>
      <stop offset=".54" stop-color="#e1d49a"/>
      <stop offset=".78" stop-color="#ecaf91"/>
      <stop offset="1" stop-color="#4cbec1"/>
    </linearGradient>
  </defs>
  <g id="bg_01">
    <rect y="0" width="375" height="3518.08" style="fill: url(#linear-gradient);"/>
    <path d="M-23.12,744.73c3.05-1.38,36.19-8.85,53.88-8.11,18.16.76,97.75-2.33,85.9,12.77-7.12,9.07-56.3,3.32-72.55,9s-24.22,13.13-4.75,15.56c19.48,2.43,44.77,4.49,41.05,10.77s-3.72,14.39-21.58,11.96c-17.85-2.43-86.83-6.67-86.83-6.67,0,0-36.52-26.6,4.87-45.26Z" style="fill: #fbda96;"/>
    <path d="M397.17,713.3c-2.25-.75-95.16,8.24-95.16,0s41.96.75,41.96-11.99-16.8-1.28-16.27-10.76,75.46-9.47,74.71-9.47" style="fill: #fbda96;"/>
    <path d="M421.52,155.6c-1.93.64-181.41,4.5-181.41,4.5,0,0,16.08-21.23,23.8-21.87s17.85,4.5,17.85,4.5c0,0-11.14-8.33,5.95-25.1,10.18-9.98,21.88-1.91,21.88-1.91,0,0-13.51-36.39,13.51-44.79s32.81,0,32.81,0c0,0,8.76-45.92,26.25-48.5s64.45,50.18,64.45,50.18c0,0,1.93,84.91,0,87.49-1.93,2.57-25.09-4.5-25.09-4.5Z" style="fill: #fcfcd8;"/>
    <path d="M-24,960.66c1.4.47,127.49,3.75,127.49,3.75,0,0-7.27-15.91-12.88-16.38s-12.98,3.27-12.98,3.27c0,0,8.1-6.06-4.32-18.25-7.4-7.26-15.91-1.39-15.91-1.39,0,0,9.83-26.46-9.82-32.57s-23.86,0-23.86,0c0,0-6.37-33.4-19.09-35.27-12.72-1.87-46.87,36.49-46.87,36.49,0,0-1.4,61.75,0,63.62,1.4,1.87,18.24-3.27,18.24-3.27Z" style="fill: #eab392;"/>
    <path d="M400.29,172.96c-1.93-.64-167.7-3.8-160.18-12.86s104.85-14.24,108.07-15.49,66.9,2.59,68.19,3.89-16.08,24.45-16.08,24.45Z" style="fill: #afdeca;"/>
    <path d="M355.91,123.42c-20.59-15.62-44.72-12.09-46.65-8.22s5.92-18.64,13.2-19.45c23.8-2.63,45.03,36.45,33.45,27.66Z" style="fill: #afdeca;"/>
    <path d="M371.88,81.85c-8.36-8.75-15.98-10.92-15.98-10.92,0,0,13.52-22.49,19.09-19.56,20.79,10.94,8.57,58.8,8.57,58.8,0,0-3.32-19.58-11.68-28.32Z" style="fill: #afdeca;"/>
    <path d="M-39.49,976.97s158.41-5.37,142.99-12.56c-15.42-7.19-68.73-4.47-89.68-13.44-20.94-8.98-33.85-18.02-41.68-15.88s-11.63,41.88-11.63,41.88Z" style="fill: #f2988b;"/>
  </g>
  <g id="level_001">
    <g>
      <path d="M75.04,102.95h95.7s5.94-12.21-13.2-15.51-1.98-16.17-27.39-16.5-3.63,11.22-27.39,14.52c-23.76,3.3-2.97,5.61-32.34,9.9s-26.07,8.58-26.07,8.58l30.69-.99Z" style="fill: #fcfcd9;"/>
      <path d="M44.35,103.94s23.18-3.2,62.62-8.25c44.8-5.73,66.11-1.17,63.77,7.26s-12.04,3.41-64.59,3-61.8-2.01-61.8-2.01Z" style="fill: #afdeca;"/>
    </g>
    <g>
      <path d="M349.1,1007.1h-74.15s-4.6-9.46,10.23-12.02c14.83-2.56,1.53-12.53,21.22-12.79s2.81,8.69,21.22,11.25c18.41,2.56,2.3,4.35,25.06,7.67,22.76,3.32,20.2,6.65,20.2,6.65l-23.78-.77Z" style="fill: #ecac90;"/>
      <path d="M372.88,1007.87s-17.96-2.48-48.52-6.39c-34.71-4.44-51.23-.91-49.41,5.62s9.33,2.65,50.05,2.33,47.89-1.56,47.89-1.56Z" style="fill: #f2988b;"/>
    </g>
    <g>
      <path d="M343.08,282.28h-75.43s-4.68-9.62,10.4-12.22c15.09-2.6,1.56-12.74,21.59-13s2.86,8.84,21.59,11.44c18.73,2.6,2.34,4.42,25.49,7.8,23.15,3.38,20.55,6.76,20.55,6.76l-24.19-.78Z" style="fill: #fcfcd9;"/>
      <path d="M367.27,283.06s-18.27-2.52-49.35-6.5c-35.31-4.52-52.11-.92-50.26,5.72s9.49,2.69,50.91,2.37c41.42-.32,48.71-1.59,48.71-1.59Z" style="fill: #afdeca;"/>
    </g>
    <path d="M22.13,928.67s25.01-14.99,30.99-14.62.92,17.24.92,17.24c0,0-5.82-5.28-13.61-4.49l-18.29,1.87Z" style="fill: #f2988b;"/>
    <path d="M72.03,951.3s7.6-6.96,2-9.19-23.15,7.09-23.15,7.09c0,0,8.17,5.37,21.15,2.1Z" style="fill: #f2988b;"/>
  </g>
</svg>