<?xml version="1.0" encoding="UTF-8"?>
<svg xmlns="http://www.w3.org/2000/svg" xmlns:xlink="http://www.w3.org/1999/xlink" viewBox="0 0 375 3500">
  <defs>
    <linearGradient id="linear-gradient" x1="187.5" y1="116.98" x2="187.5" y2="642.95" gradientUnits="userSpaceOnUse">
      <stop offset="0" stop-color="#4db0b5"/>
      <stop offset=".57" stop-color="#5eb6b2"/>
      <stop offset=".65" stop-color="#61b7b1"/>
      <stop offset="1" stop-color="#fbea90"/>
    </linearGradient>
  </defs>
  <g id="bg_01">
    <rect y=".66" width="375" height="3518.08" style="fill: url(#linear-gradient);"/>
  </g>
  <g id="bg_02">
    <path d="M-.08,619.72l59.3-51.39,47.45,61.33,27.98-25.26,40.54,49.42,98.29-76.75,100.62,84.7s2.18,2857.3,0,2858.11-374.19,0-374.19,0V619.72Z" style="fill: #61b1b9;"/>
    <path d="M-.08,894.59l59.3-51.39,47.45,61.33,27.98-25.26,40.54,49.42,98.29-76.75,100.62,84.7s2.18,2576.29,0,2577.1-374.19,0-374.19,0V894.59Z" style="fill: #41a2b5;"/>
    <path d="M-.08,1303.37l59.3-51.39,47.45,61.33,27.98-25.26,40.54,49.42,98.29-76.75,100.62,84.7s2.18,2172.33,0,2173.13-374.19,0-374.19,0V1303.37Z" style="fill: #2f6d7c;"/>
  </g>
</svg>