<?xml version="1.0" encoding="UTF-8"?>
<svg xmlns="http://www.w3.org/2000/svg" viewBox="0 0 375 2280">
  <defs>
    <style>
      .cls-1 {
        fill: #8ae7d4;
      }

      .cls-2 {
        fill: #fff;
      }

      .cls-3 {
        fill: #0183e1;
        font-family: MyriadPro-Regular, 'Myriad Pro';
        font-size: 25.69px;
      }

      .cls-4 {
        fill: none;
        stroke: #fff;
        stroke-miterlimit: 10;
        stroke-width: 3px;
      }

      .cls-5 {
        letter-spacing: 0em;
      }

      .cls-6 {
        letter-spacing: -.01em;
      }
    </style>
  </defs>
  <g id="bg-11" data-name="bg">
    <polygon class="cls-1" points="375 2282.84 0 2282.11 0 0 375 .74 375 2282.84"/>
  </g>
  <g id="path-12" data-name="path">
    <line class="cls-4" x1="187.5" y1="209.09" x2="187.5" y2="2143.91"/>
  </g>
  <g id="anchor_001">
    <circle class="cls-2" cx="187.5" cy="199.09" r="10"/>
  </g>
  <g id="anchor_002">
    <circle class="cls-2" cx="187.5" cy="338.01" r="10"/>
  </g>
  <g id="anchor_003">
    <circle class="cls-2" cx="187.5" cy="476.92" r="10"/>
  </g>
  <g id="anchor_004">
    <circle class="cls-2" cx="187.5" cy="615.84" r="10"/>
  </g>
  <g id="anchor_005">
    <circle class="cls-2" cx="187.5" cy="754.75" r="10"/>
  </g>
  <g id="anchor_006">
    <circle class="cls-2" cx="187.5" cy="893.67" r="10"/>
  </g>
  <g id="anchor_007">
    <circle class="cls-2" cx="187.5" cy="1032.58" r="10"/>
  </g>
  <g id="anchor_008">
    <circle class="cls-2" cx="187.5" cy="1171.5" r="10"/>
  </g>
  <g id="anchor_009">
    <circle class="cls-2" cx="187.5" cy="1310.42" r="10"/>
  </g>
  <g id="anchor_010">
    <circle class="cls-2" cx="187.5" cy="1449.33" r="10"/>
  </g>
  <g id="anchor_011">
    <circle class="cls-2" cx="187.5" cy="1588.25" r="10"/>
  </g>
  <g id="anchor_012">
    <circle class="cls-2" cx="187.5" cy="1727.16" r="10"/>
  </g>
  <g id="anchor_013">
    <circle class="cls-2" cx="187.5" cy="1866.08" r="10"/>
  </g>
  <g id="anchor_014">
    <circle class="cls-2" cx="187.5" cy="2005" r="10"/>
  </g>
  <g id="anchor_015">
    <circle class="cls-2" cx="187.5" cy="2143.91" r="10"/>
  </g>
  <g id="meny">
    <text class="cls-3" transform="translate(40.13 78.24)"><tspan class="cls-5" x="0" y="0">M</tspan><tspan x="20.81" y="0">e</tspan><tspan class="cls-6" x="33.68" y="0">n</tspan><tspan x="47.61" y="0">y</tspan></text>
  </g>
</svg>