<?xml version="1.0" encoding="UTF-8"?>
<svg xmlns="http://www.w3.org/2000/svg" width="375" height="3097.7186" viewBox="0 0 375 3097.7186">
  <g id="anchor_read_001-4" data-name="anchor_read_001">
    <circle cx="199.656" cy="172.2513" r="10" fill="#01c0d2"/>
  </g>
  <g id="anchor_quiz_001-4" data-name="anchor_quiz_001">
    <circle cx="253.3225" cy="330.225" r="10" fill="#01c0d2"/>
  </g>
  <g id="anchor_read_002-4" data-name="anchor_read_002">
    <circle cx="163.9925" cy="488.1988" r="10" fill="#01c0d2"/>
  </g>
  <g id="anchor_quiz_002-4" data-name="anchor_quiz_002">
    <circle cx="102.1128" cy="646.1725" r="10" fill="#01c0d2"/>
  </g>
  <g id="anchor_read_003-4" data-name="anchor_read_003">
    <circle cx="199.656" cy="804.1463" r="10" fill="#01c0d2"/>
  </g>
  <g id="anchor_quiz_003-4" data-name="anchor_quiz_003">
    <circle cx="263.0341" cy="962.12" r="10" fill="#01c0d2"/>
  </g>
  <g id="anchor_read_004-3" data-name="anchor_read_004">
    <circle cx="173.9925" cy="1120.0938" r="10" fill="#01c0d2"/>
  </g>
  <g id="anchor_quiz_004-4" data-name="anchor_quiz_004">
    <circle cx="102.2443" cy="1278.0675" r="10" fill="#01c0d2"/>
  </g>
  <g id="anchor_read_005-3" data-name="anchor_read_005">
    <circle cx="199.656" cy="1436.0413" r="10" fill="#01c0d2"/>
  </g>
  <g id="anchor_quiz_005-3" data-name="anchor_quiz_005">
    <circle cx="263.3225" cy="1594.015" r="10" fill="#01c0d2"/>
  </g>
  <g id="anchor_read_006-2" data-name="anchor_read_006">
    <circle cx="127.9403" cy="1751.9888" r="10" fill="#01c0d2"/>
  </g>
  <g id="anchor_quiz_006-3" data-name="anchor_quiz_006">
    <circle cx="165.2535" cy="1909.9625" r="10" fill="#01c0d2"/>
  </g>
  <g id="anchor_read_007-2" data-name="anchor_read_007">
    <circle cx="263.0341" cy="2067.9363" r="10" fill="#01c0d2"/>
  </g>
  <g id="anchor_quiz_007-2" data-name="anchor_quiz_007">
    <circle cx="165.2535" cy="2225.91" r="10" fill="#01c0d2"/>
  </g>
  <g id="anchor_read_008">
    <circle cx="92.1128" cy="2383.8838" r="10" fill="#01c0d2"/>
  </g>
  <g id="anchor_quiz_008-2" data-name="anchor_quiz_008">
    <circle cx="163.9925" cy="2541.8575" r="10" fill="#01c0d2"/>
  </g>
  <g id="anchor_read_009">
    <circle cx="263.3225" cy="2699.8313" r="10" fill="#01c0d2"/>
  </g>
  <g id="anchor_quiz_009">
    <circle cx="108.0384" cy="2857.805" r="10" fill="#01c0d2"/>
  </g>
  <g id="anchor_quiz_010">
    <circle cx="190.4838" cy="3015.7788" r="10" fill="#01c0d2"/>
  </g>
  <g id="text_praktiskt_arbete_i_sjokort">
    <text transform="translate(62.3444 84.3136)" fill="#0183e1" font-family="MyriadPro-Regular, &apos;Myriad Pro&apos;" font-size="22.3145"><tspan x="0" y="0" letter-spacing="-.016em">P</tspan><tspan x="11.5146" y="0" letter-spacing="-.005em">r</tspan><tspan x="18.6997" y="0">aktiskt </tspan><tspan x="83.9463" y="0" letter-spacing="-.003em">A</tspan><tspan x="97.5361" y="0" letter-spacing=".004em">r</tspan><tspan x="104.9219" y="0">be</tspan><tspan x="128.7979" y="0" letter-spacing="-.006em">t</tspan><tspan x="136.0498" y="0">e i </tspan><tspan x="161.9121" y="0" letter-spacing="-.004em">S</tspan><tspan x="172.8232" y="0" letter-spacing="0em">jöko</tspan><tspan x="213.2119" y="0" letter-spacing=".024em">r</tspan><tspan x="221.0439" y="0">t</tspan></text>
  </g>
</svg>