<?xml version="1.0" encoding="UTF-8"?>
<svg xmlns="http://www.w3.org/2000/svg" width="375" height="2873.9303" viewBox="0 0 375 2873.9303">
  <g id="anchor_bg">
    <polygon points="375 2970.9292 0 2969.9691 0 0 375 .9601 375 2970.9292" fill="#01c0d2"/>
  </g>
  <g id="anchor_read_001-3" data-name="anchor_read_001">
    <circle cx="316.9524" cy="172.1786" r="10" fill="#01c0d2"/>
  </g>
  <g id="anchor_quiz_001-3" data-name="anchor_quiz_001">
    <circle cx="62.211" cy="354.7354" r="10" fill="#01c0d2"/>
  </g>
  <g id="anchor_read_002-3" data-name="anchor_read_002">
    <circle cx="175.2535" cy="537.2922" r="10" fill="#01c0d2"/>
  </g>
  <g id="anchor_quiz_002-3" data-name="anchor_quiz_002">
    <circle cx="316.9524" cy="719.849" r="10" fill="#01c0d2"/>
  </g>
  <g id="anchor_read_003-3" data-name="anchor_read_003">
    <circle cx="219.656" cy="902.4058" r="10" fill="#01c0d2"/>
  </g>
  <g id="anchor_quiz_003-3" data-name="anchor_quiz_003">
    <circle cx="72.211" cy="1084.9626" r="10" fill="#01c0d2"/>
  </g>
  <g id="anchor_read_004-2" data-name="anchor_read_004">
    <circle cx="165.2535" cy="1267.5194" r="10" fill="#01c0d2"/>
  </g>
  <g id="anchor_quiz_004-3" data-name="anchor_quiz_004">
    <circle cx="317.2407" cy="1450.0762" r="10" fill="#01c0d2"/>
  </g>
  <g id="anchor_read_005-2" data-name="anchor_read_005">
    <circle cx="209.656" cy="1632.633" r="10" fill="#01c0d2"/>
  </g>
  <g id="anchor_quiz_005-2" data-name="anchor_quiz_005">
    <circle cx="72.3425" cy="1815.1898" r="10" fill="#01c0d2"/>
  </g>
  <g id="anchor_read_006">
    <circle cx="175.2535" cy="1997.7466" r="10" fill="#01c0d2"/>
  </g>
  <g id="anchor_quiz_006-2" data-name="anchor_quiz_006">
    <circle cx="306.9524" cy="2180.3034" r="10" fill="#01c0d2"/>
  </g>
  <g id="anchor_read_007">
    <circle cx="219.656" cy="2362.8602" r="10" fill="#01c0d2"/>
  </g>
  <g id="anchor_quiz_007">
    <circle cx="88.0384" cy="2545.417" r="10" fill="#01c0d2"/>
  </g>
  <g id="anchor_quiz_008">
    <circle cx="185.2535" cy="2727.9738" r="10" fill="#01c0d2"/>
  </g>
  <g id="text_navigationsprinciper">
    <text transform="translate(86.3425 83.6123)" fill="#0183e1" font-family="MyriadPro-Regular, &apos;Myriad Pro&apos;" font-size="22.3145"><tspan x="0" y="0">N</tspan><tspan x="14.6826" y="0" letter-spacing="-.008em">a</tspan><tspan x="25.2598" y="0">vig</tspan><tspan x="53.6875" y="0" letter-spacing="-.004em">a</tspan><tspan x="64.354" y="0">tionsp</tspan><tspan x="123.1294" y="0" letter-spacing=".004em">r</tspan><tspan x="130.5151" y="0">inciper</tspan></text>
  </g>
</svg>