<?xml version="1.0" encoding="UTF-8"?>
<svg xmlns="http://www.w3.org/2000/svg" xmlns:xlink="http://www.w3.org/1999/xlink" viewBox="0 0 375 7000">
  <defs>
    <style>
      .cls-1 {
        fill: #f20c1d;
      }

      .cls-1, .cls-2, .cls-3 {
        opacity: .3;
      }

      .cls-4 {
        fill: #9f9615;
      }

      .cls-5 {
        fill: #fcfcd8;
        opacity: 0;
      }

      .cls-6 {
        fill: #47a8b9;
      }

      .cls-7 {
        fill: #2f6c7e;
      }

      .cls-8 {
        fill: #143e7c;
      }

      .cls-9 {
        fill: #265253;
      }

      .cls-10 {
        fill: #1920a5;
      }

      .cls-11 {
        fill: #406649;
      }

      .cls-12 {
        fill: #8eccc7;
      }

      .cls-13 {
        fill: #e20caa;
      }

      .cls-14 {
        fill: #b0d339;
      }

      .cls-15 {
        fill: #487a55;
      }

      .cls-2 {
        fill: #0c1216;
      }

      .cls-16 {
        fill: url(#linear-gradient);
      }

      .cls-17 {
        fill: #af2754;
      }

      .cls-3, .cls-18 {
        fill: #1f435b;
      }

      .cls-19 {
        fill: #2daa3f;
      }

      .cls-18 {
        opacity: .6;
      }
    </style>
    <linearGradient id="linear-gradient" x1="187.5" y1="-15.83" x2="187.5" y2="1185.35" gradientUnits="userSpaceOnUse">
      <stop offset="0" stop-color="#4db0b5"/>
      <stop offset=".65" stop-color="#61b7b1"/>
      <stop offset="1" stop-color="#fbea90"/>
    </linearGradient>
  </defs>
  <g id="level_001_bg">
    <rect class="cls-16" y="-.66" width="375" height="7000"/>
    <path class="cls-12" d="M0,1099.98s74.88-29.31,187.5,57.67c112.62,86.99,187.5-51.73,187.5-51.73v5893.41H0V1099.98Z"/>
    <path class="cls-6" d="M0,1545.86s92.61,97.76,193.96-2.13c128.47-126.61,181.04,8.07,181.04,8.07v5447.53H0V1545.86Z"/>
  </g>
  <g id="level_002_bg">
    <rect class="cls-14" y="-.66" width="375" height="7000"/>
    <path class="cls-12" d="M0,1099.98s74.88-29.31,187.5,57.67c112.62,86.99,185.76-50.68,185.76-50.68v5893.41l-373.26-1.05V1099.98Z"/>
    <path class="cls-6" d="M-1.74,1546.52s92.61,97.76,193.96-2.13c128.47-126.61,181.04,8.07,181.04,8.07v5447.53H-1.74V1546.52Z"/>
  </g>
  <g id="deco_01">
    <path class="cls-4" d="M130.99,480.52c5.75,3.32,11.78,6.81,15.26,12.45,5.69,9.22,2.79,21.65-3.59,30.4-6.39,8.75-15.65,14.85-24.07,21.66-25.67,20.75-44.69,49.61-53.65,81.38-6.22,22.08-5.36,50.34,14.13,62.44,3.54,2.2,7.53,3.72,10.68,6.45,15.37,13.37.2,42.95,14.66,57.31,8.15,8.09,21.61,6.77,32.57,3.31,5.59-1.77,4.64-20.81,20.41-18.11s13.25,35.19,13.59,38.24c1.19,10.73,6.9,16.32,9.09,17.48,13.1,1.41,23.85-40.87,36.81-44.23,17.11-4.42,33.15-12,48.24-21.29,13.41-10.92,27.43-21.16,39.19-33.82,28.58-30.77,41.51-75.3,34.2-116.66-1.74-9.84-4.64-19.67-10.3-27.9-10.14-14.75-27.5-22.39-43.47-30.47-13.29-6.72-26.19-14.21-38.61-22.42-4.44-2.93-9.11-6.35-10.64-11.44-1.9-6.35,1.72-12.96,5.58-18.35,8.9-12.42,23.26-21.29,30.68-34.1,7.71-13.31,12.21-29.33,14.78-44.39,5.27-30.86,1.34-63.38-12.01-91.77-5.01-10.66-11.28-20.77-19-29.67-23.05-26.59-35.7-35.23-86.34-35.01-50.64.22-77.86,23.73-102.22,51.52s-36.45,67.43-26.45,103.01c12.07,42.97,51.83,71.66,90.48,93.98Z"/>
  </g>
  <g id="deco_01_shadow">
    <path class="cls-1" d="M91.33,268.75s-39.19,32.39-40.94,76.18,14.24,84.78,38.88,104.28,68.75,39.06,64.9,59.14c-6.19,32.29-43.95,50.91-57.84,70.01-17.19,23.64-34.97,66.48-22.12,84.58s26.19,17.28,29.56,29.54-14.48,47.32,4.01,48.75c26.72,2.06,7.83-18.98,47.28-24.63,28.93-4.14,7.16,58.02,24.38,54.53,16.37-3.31,17.81-35.84,44.38-36.63,28.81-.85,65.67-26.96,93.11-73.77,12.18-20.77,18.07-76.22,10.25-87.25s-1.29,46.99-47.87,89.9-119.64,18.7-116.14-33.73c6.34-95.04,75.66-84.85,85-106.45s-30.39-17.07-26.82-36.34,19.26-32.94,39.11-58.04,21.19-67.85,13.6-70.77-54.29,66.55-110.92,48.45c-56.63-18.1-76.08-62.61-69.48-83.28,18.9-59.18,52.13-67.13,50.21-77.85s-52.54,23.35-52.54,23.35Z"/>
  </g>
  <g id="deco_02">
    <path class="cls-15" d="M348.61,1033.89c-5.67-22.67-6.96-46.15-11.62-68.7-4.4-21.23-21.39-38.21-38.33-50.48-21.5-15.58-46.4-28.25-60.9-50.49-7.2-11.05-11.34-23.81-14.47-36.63-2.61-10.68-4.59-21.7-3.48-32.65,2.26-22.25,16.98-41.33,33.56-56.34,15.08-13.65,32.16-25.09,46.58-39.38,1.31-24.52-57.95-17.35-74.8-15.03-75.44,10.39-99.2,48.08-93,62.01,1.6,3.58,3.53,6.93,5.71,10.08,10.64-3.45,21.57-8.18,32.47-5.87,18.24,3.88,26.61,24.69,31.41,42.71,4.49,16.85,8.53,34.43,5.47,51.6-6.06,34.02-37.25,56.72-65,77.31-27.75,20.59-95.34,37.94-20.65,169.65,10.9,19.22,22.38,41.31,15.25,62.23-7.27,21.31-29.94,32.34-47.93,45.89-25.79,19.42-44.74,48.3-50.26,80.11-5.52,31.81,3.02,66.2,24.33,90.45,8.75,9.95,49.92,32.48,59.98,41.13,26.36,14.04,22.27,13.97,51,22.51,21.35,6.34,19.65,45.13,41.38,41.97,11.09,2.22,18.25-24.48,28.82-31.04,8.35-5.18,18.37,5.46,24.83,4.88,21.64-1.97,31.04-34.59,34.59-46.11,4.17-13.55,8.96-27.16,11.64-41.08,6.82-35.47,7.54-73.98-9.53-105.81-11.76-21.92-30.95-38.82-50.53-54.15-9.5-7.44-19.41-14.86-25.84-25.07-6.43-10.21-8.65-24.08-2.08-34.2,6.8-10.48,20.28-13.8,32.25-17.41,24.5-7.39,47.58-19.46,67.63-35.37,10.56-8.39,20.81-18.75,23.27-32.01,1.52-8.17-.11-16.56-1.73-24.71Z"/>
  </g>
  <g id="deco_02_shadow">
    <path class="cls-11" d="M218.42,1188c-13.04-9.76-17.08-24.45,4.65-44.45,14.27-13.13,38.95-26.74,73.01-48.32,46.78-29.64,30.51-69.35,30.51-69.35-12.73,2.55-63.21,35.78-100.05,8.9-33.71-24.6-41.19-4.75-57.61-18.72-11.66-9.91-20.71-40.38-3.79-64.9,13.03-18.88,35.88-28.88,53.07-52.51,11.44-15.73,16.42-37.1,5.53-55.07s-11.51-68.56-.68-86.33c16.49-27.07,55.16-52.65,53.46-54.35s20.78-14.66-59-3.35c-79.79,11.3-82.37,48.73-80.64,46.68,5.94-7.01,40.74-11.03,48.75,6.79s14.51,38.5,18.24,72.4-14.04,49.87-41.38,78.03c-23.87,24.58-63.01,26.5-74.97,73.22-14.48,56.53,52.39,132.37,47.29,166.32-5.09,33.95-21.45,34.63-50.06,56.98s-45.84,47.78-51.54,90.38,26.71,86.38,78.46,116.07c58.86,33.77,36.78,19.05,58.13,27.73,21.35,8.68,24.03,41.06,41.38,41.97s18.64-39.37,36.07-46.15c17.43-6.78,19.35,6.39,25.04-3.79,19.61-35.07,25.2-36.58,33.31-84.7,8.91-52.88-81.3-1.9-123.59-12.37-23.37-5.79-82.13-10.53-78.16-60.91,3.68-46.82,63.96-45.89,79.53-48.15,50.11-7.28,52.29-19.18,35.05-32.08Z"/>
  </g>
  <g id="deco_03">
    <path class="cls-9" d="M81.81,1876.76c8.25-1.53,15.67-5.98,23.73-8.32,8.06-2.34,17.96-1.99,23.38,4.42,6.13,7.26,3.6,18.26-.05,27.03-8.62,20.71-21.64,39.49-28.82,60.73-7.18,21.25-7.33,47.04,7.75,63.65,9.32,10.26,22.84,15.37,34.9,22.21,13.43,7.62,25.45,17.74,35.25,29.67.99,1.21,1.96,2.44,2.9,3.71,7.88,5.03,16.34,9.12,25.44,11.88,16.05,4.87,15.77,44.9,46.28,40.41,39.79-5.85,49.66-82.49,58.81-60.83,24.61,58.3,32.37-38.53,34.66-45.38,6.84-20.41,7.26-42.49,4.86-63.88-1.74-15.47-5.42-31.75-16.44-42.74-8.72-8.7-20.87-12.9-32.74-16.2-15.33-4.26-31.28-7.63-44.67-16.22s-23.86-24.06-21.17-39.74c1.43-8.34,6.29-15.61,9.87-23.27,6.42-13.75,8.77-29,10.48-44.08,3.94-34.8,4.56-71.39-9.81-103.33-6.24-13.87-15.11-26.37-23.92-38.78-6.56-9.24-13.13-18.48-19.69-27.72-5.81-8.19-12.86-14.02-19.05-21.8-11.82-14.85-19.5-33.14-20.84-52.14-1.68-23.68,6.81-48.16,23.73-64.82,10.19-10.04,22.93-17.02,35.5-23.88,15.84-8.64,31.67-17.28,47.51-25.92.36-.2.73-.4,1.09-.6,3.72-6.44-9.52-19.41-94.72-29.51-85.2-10.09-137.34-74.44-137.76-68.31,3.82,17.22,11.65,33.5,23.31,46.74,13.52,15.36,31.46,26.32,44.99,41.67,16.97,19.25,26,44.24,31.79,69.25,4.72,20.38,7.45,42.26.08,61.83-4.82,12.8-13.61,23.66-22.42,34.11-14.97,17.77-69.18,69.23-80.29,120.99-13.85,64.54.74,150.36,10.61,163.67,9.86,13.3,19.23,18.5,35.51,15.47Z"/>
  </g>
  <g id="deco_03_shadow">
    <path class="cls-18" d="M145.86,1397.2c28.86,12.16,84.38,9.67,92.28,18.18,7.89,8.5-18.6,17.85-54.54,41.94-18.77,12.58-28.77,64.68-28.77,74.51s12.84,41.77,17.45,51.75c4.61,9.98-18.69,43.49-25.6,48.87-6.91,5.37-26.48,31.74-44.18,50.46-17.7,18.71-27.64,70.62,1.54,89.05,29.17,18.42,59,19.83,83.47,11.97s35.1-29.21,48.85-20.97c15.25,9.15,7.17,29.61-16.35,59.85-7.45,9.58-14.52,34.92-9.91,56.41,4.61,21.49,49.88,7.2,54.38,25.68,4.5,18.48-89.8,34.4-97.48,58.97s12.28,56.04,53.73,52.97c41.45-3.07,90.32,11.1,102.86,21.46,12.55,10.36,9.21,38.42,4.61,37.65-4.61-.77-33.6-26.79-33.96-17.84-1.08,26.49-32,79.03-51.96,74.42-19.96-4.61-41.09-60.27-58.66-72.5-18.77-13.07-57.68-27.8-70.02-47.46-13-20.71-19.21-42.09-10.72-59.46,26-53.19,34.85-72.22,27.17-93.71-7.68-21.49-60.2,25.37-79.42,7.22-18.98-17.92-21.97-137.04-16.46-162.93,8.24-38.73,37.27-77.4,51.85-93.52s41.09-39.01,50.76-63.35c14.44-36.33.95-77.96-7.69-96.9-20.98-45.96-37.8-54.74-37.8-54.74,0,0-20.23-11.73-29.73-25.4s-28.86-53.8-23.31-46.74,20.93,28.73,47.5,44.11,21.67,13.86,60.12,30.06Z"/>
  </g>
  <g id="deco_04">
    <path class="cls-7" d="M48.62,2627.21c.67,1.01,1.34,2.02,2.01,3.02,20.25,14.09,41.23,27.51,64.61,35.44,13.44,4.56,28.08,6.48,42.11,8.43,14.6,2.03,29.29,3.39,43.99,4.41,25.18,1.76,42.09,73.89,67.56,73.89,8.87,0,27.11-74.04,40.62-80.05,11.2-4.98-2.66,37.47,14.93,20.31,10.28-10.96,6.13-59.54,9.58-74.19,7.91-33.54-5.68-70.88-32.57-92.43-11.94-9.56-25.96-16.1-39.05-24s-25.76-17.73-32.57-31.43c-6.81-13.7-6.25-31.99,4.77-42.61,8.76-8.44,21.66-10.35,33.26-14.02,35.56-11.25,63.26-43.43,70.51-80.02,7.25-36.59-5.57-76.21-31.87-102.67-25.03-25.18-60.15-38.3-85.43-63.22-7.71-7.6-14.83-17.67-13.08-28.36,1.31-8.02,7.33-14.38,13.4-19.8,21.05-18.82,46.23-33,73.21-41.33,6.03-1.86,11.62-4.3,16.76-7.27.71-4.43-.85-8.98-6.04-13.42-7.43-6.37-17.54-10.19-26.68-13.22-11.53-3.82-23.54-6.16-35.7-6.36-19.61-.33-42.78.74-60.42,10.13-6.12,3.26-12.87,8.15-15.9,14.67,4.42,4.04,8.55,8.4,12.35,13.03,5.11,6.23,9.72,13.19,11.26,21.09,1.89,9.71-1.1,19.82-5.87,28.49-9.11,16.56-24.23,28.83-38.97,40.65-14.13,11.34-93.56,40.52-84.99,115.84,2.22,19.53,22.11,53.42,37.32,65.88,15.21,12.46,31.25,25.28,39.29,43.22,8.04,17.94,4.85,42.65-12.28,52.28-7.25,4.07-15.8,4.92-23.82,7.11-37.16,10.18-59.68,48.42-69.3,85.73-4.25,16.47-6.76,33.88-2.9,50.44,3.42,14.68,11.6,27.75,19.9,40.33Z"/>
  </g>
  <g id="deco_04_shadow">
    <path class="cls-3" d="M168.81,2058.28s32.14,42.64,15.56,64.71c-15.42,20.53-11.54,25.87-55.22,50.49s-73.52,66.22-69.16,101.33,27.79,62.92,66.42,91.73,18.06,60.03,4.4,70.45-53.93,9.13-71.67,41.55-35.32,61.35-29.14,84.26,27.85,65.43,80.61,83.48,53.5,25.95,82.66,21.78,50.22,77.89,72.43,71.64,31.24-89.56,43.74-90.25,6.94,32.69,14.58,31.24,13.88-78.45,2.78-92.33-30.55-49.09-45.13-34.26-19.44,43.29-44.43,43.98-130.52-27.43-133.99-53.98,33.32-64.73,54.84-66.81,64.07,13.73,67.54-.15-13.08-52.14,6.05-61.16,81.47-27.69,89.8-72.12-42.36-32.69-77.08-26.44-112.39-7.19-114.23-50.4c-2.04-47.97,151.53-46.79,86.74-85.45-14.47-8.63-27.63-45.84,5.64-83.33,12.38-13.95,69.2-45.47,69.2-45.47,0,0-38.42-22.1-70.06-19.32s-41.65,16.52-52.89,24.85Z"/>
  </g>
  <g id="deco_05">
    <path class="cls-9" d="M53.06,2922.37c-35.69,44.4-40.44,111.22-11.39,160.23,19.91,33.58,52.59,57.27,78.9,86.11,14.61,16.02,27.86,35.18,28.77,56.84.89,21.02-9.89,40.5-19.05,59.44-18.32,37.87-36.17,91.46-31.6,108.8s23.86,36.12,37.73,42.24c14.29,6.3,30.74,6.67,46.07,5.6,14.23-.99,28.34-3.52,42.12-7.2,10.49-4.23,21.41-7.54,31.86-11.91,45.36-18.97,86.51-59.58,90.91-108.55,13.14-146.2-68.41-136.01-93.7-156.35-11.8-9.49-9.83-29.09-2.95-42.58,6.88-13.49,18.96-23.48,30.98-32.7,12.02-9.22,24.57-18.33,33.03-30.89,15.8-23.45,14.19-55.73,1.06-80.77-13.13-25.04-36.15-43.62-60.91-57.27-22.8-12.56-48.02-21.91-66.65-40.09-29.95-29.24-36.2-78.23-18.92-116.35,15.91-35.08,50.08-61.65,87.09-71.36,18.16-4.77,39.39-11.49,54.21-24.05,0,0,2.53-16.84-10.52-16.84s-85.86,36.07-136.2,2.72c-88.34-58.53-116.85-54.66-126.41-38.43,3.37,6.25,7.24,12.28,11.14,18.19,21.78,33.02,45.49,65.13,61.45,101.32,14.78,33.51,26.94,80.24,10.61,115.13-15.15,32.38-45.75,51.5-67.61,78.71Z"/>
  </g>
  <g id="deco_05_shadow">
    <path class="cls-2" d="M43.45,2619.2c22.49,43.38,48.35,56.5,69.28,120.84,21.3,65.47,30.63,109.15-21.71,156.82s-70.89,87.59-67.2,132.56c6.07,74.07,67.94,101.85,102.54,144.85,13.73,17.06,30.11,38.95,21.5,71.31-12.47,46.86-61,121.76-36.7,151.53,41.08,50.33,135.72,45.46,177.07,8.01,66.59-60.3,56.14-106.21,51-113.4s-62.6,33.74-97.52,17.3-85.99-47.19-41.43-93.33c18.62-19.28,40.84-29.2,42.89-39.47s-28.76-10.27-22.6-38,12.32-50.33,29.78-63.68,47.24-39.55,43.14-54.18-44.84,45.5-102.6,45.5c-77.72,0-105.5-36.92-108.58-69.78s-.52-55.02,27.59-83.58c24.54-24.93,55.78-46.46,55.78-56.49,0-.62-18.2-44.5-16.97-75.21s16.44-47.48,34.88-64.26,66.75-24.05,69.12-41.95-38.8,13.63-81.82-13.11c-28.77-17.88-55.55-32.51-80.72-39.85s-46.74-2.44-46.74-2.44Z"/>
  </g>
  <g id="deco_06">
    <path class="cls-17" d="M117.74,3872.87c9.08-.52,19.65-2.9,26.14,3.46,4.06,3.98,4.94,10.15,4.91,15.84-.16,26.57-15.04,50.45-28.16,73.55-13.13,23.1-30.12,66.08-27.21,92.49,7.76,70.52,24.41,63.08,55.36,58.22,16.95-2.66,23.01,74.14,42.62,82.6,25.38,0,22.46-70.98,25.83-70.51,8.66,1.23,17.49,1.39,26.2.58,21.16-1.96,40.27-9.78,57.64-21.06,11.39-11.1,24.93-20.77,31.95-33.8,55.65-103.23-9.52-168.22-54.24-173.09-17.22-1.88-33.61-8.49-49.72-14.85-7.66-3.02-16.48-8.25-16.16-16.48.12-3.24,1.74-6.21,3.3-9.06,22.57-41.22,130.39-140.37,21.06-231.33-15.13-12.59-32.79-22.06-46.92-35.76-21.43-20.76-32.25-51.94-28.31-81.51,3.95-29.57,22.57-56.82,48.69-71.23,10.72-5.92,22.42-9.7,33.96-13.87,5.44-8.28,9.61-17.28,10.43-27.4,1.1-13.54-2.79-27.17-9.22-39-13.22-24.34-36.09-39.83-62.95-45.57-13.62-2.91-28.06-3.06-41.48.91-12.2,3.61-22.54,10.9-31.08,20.21-.89.97-1.75,1.96-2.6,2.96-11.69,36.6-13.76,72.22,3.77,111.32,0,0,26.76,47.68,25.23,77.21-.59,11.34-4.94,46.67-9.55,57.04-5.01,11.27-13.07,20.86-20.46,30.74-29.26,39.15-49.1,85.29-57.39,133.46-4.61,26.81-5.49,55.33,5.37,80.27s35.85,45.2,63.01,43.64Z"/>
  </g>
  <g id="deco_06_shadow">
    <path class="cls-2" d="M132,3329.55c-2.17,0-19.54,14.47-21.71,25.33s-20.57,25.13-9.66,60.37,33.6,50.39,35.38,99.95,12.58,41.87-13.42,78.3-62.68,78.02-69.51,137.19-.69,97.51,28.26,115.6,55.73-4.34,70.92,15.2,2.82,45.89-3.54,65.75c-10,31.25-30.56,36.71-46.36,106.69s10.82,76.53,27.46,71.46,30-14.47,35.99-10.13,1.2,87.88,21.69,87.57,16.15-110.01,39.31-113.62,75.1,18.63,87.57,10.86,39.39-58.62,34.53-70.92-12.82-40.81-27.29-34.88-41.25,61.66-89.74,67.45-81.42-65.15-63.15-77.45,63.15-28.22,84.86-40.52-52.86-17.37-53.57-47.04,61.53-87.57,65.87-120.5-10.86-21.35-23.16-19.18-58.72,64.41-84,53.56-57.85-84.68-32.52-111.45,72.34-31.12,73.8-44.87-38.44-41.98-41.29-70.2-7.19-77.44,6.56-100.6,57.17-45.59,70.92-53.56-1.45-66.58-15.2-71.65-74.21-8.7-89.02-8.68Z"/>
  </g>
  <g id="deco_07">
    <path class="cls-10" d="M44.83,4756.13c5.01,7.06,10.42,13.81,16.1,20.34,15.53,11.06,37.02,11.31,55.26,13.2,22.17,2.3,43.88,2.94,66.03-.26,22.16-3.2,62.53-37.85,79.65-34.18,15.23,3.26,6.83,28.77,18.66,32.4,16.7,5.13,17.15-48.41,23-76.19,3.49-16.59-.29-33.97-6.75-49.64-8.97-21.76-23.16-41.35-41.03-56.67-12.31-10.55-26.44-19.2-36.79-31.69-10.35-12.48-16.29-30.57-8.99-45.05,6.22-12.33,20.62-18.84,34.41-19.3s27.23,4.1,40.15,8.96c13.48,5.07,28.45,10.55,41.84,5.23,22.41-8.91,24.01-39.54,21.82-63.56-1.47-16.16-2.95-32.32-4.42-48.48-1.25-13.67-.17-26.77-1.01-40.27-1.45-23.2-15-45.75-35.66-56.77-14.65-7.82-33.12-11.06-42.33-24.87-5.22-7.82-6.33-17.76-5.4-27.11,2.44-24.79,17.75-46.81,20.93-71.52,2.61-20.28-3.01-41.86,4.75-60.78,8.05-19.64,29.52-31.43,42.45-47.48.32-16.48-5.55-31.95-20.37-41.35-20.59-13.05-46.82-6.03-67.51,3.03-20.74,9.08-43.11,21.1-54.23,41.79-5.31,9.87-7.01,21.62-3.22,32.26,27.69,5.98,56.7,21.92,68.07,42.06,16.3,28.86,14.01,67.8-6.58,93.96-9.72,12.34-22.64,21.67-34.86,31.54-25.74,20.78-49.02,44.59-69.21,70.8-8.97,11.64-17.41,23.9-22.64,37.63-11.39,29.87-5.7,65.61,14.4,90.47,9.65,11.93,22.36,21.56,29.65,35.06,2.1,3.9,4.16,8.28,3.41,12.65-6.13,35.75-52.38,35.82-73.84,51.84-25.5,19.03-43.68,45.11-55.68,74.58-7.07,17.37-11.33,38.7-8.45,57.22,2.28,14.68,9.83,28.02,18.43,40.13Z"/>
  </g>
  <g id="deco_08">
    <path class="cls-19" d="M88.05,4945.65c-14.28,17.13-27.16,35.42-38.46,54.65-6.56,11.17-12.64,22.75-16.27,35.18-7.29,24.98-3.91,50.67-.74,75.98,2.46,19.68,7.26,38.73,28.31,46.19,16.73,5.92,37.08,1.06,51.4,11.55,13.08,9.59,15.5,28.75,10.96,44.32-4.55,15.57-14.52,28.87-22.51,42.98-23.22,41.03-29.78,91.18-17.89,136.8,5.01,19.22,14.95,39.4,33.52,46.45,16.1,6.11,35.53,1,50.66,8.54,1.65.29,3.26.6,4.83.87,12.17,2.14,24.64,2.21,36.97,1.65,20.69-.96,40.8-5.66,59.29-15.1,9.86-5.04,19.06-11.16,27.68-18.02,11.37-16.15,16.1-24.66,19.26-44.25,4.77-29.53,3.46-70.63-4-99.61-.34-1.3-.85-2.75-1.64-3.82l1.13-.88c-11.69-27.73-32.93-51.33-59.29-65.86-14.78-8.15-32.25-14.61-40.05-29.58-7.73-14.84-3.04-33.24,5.11-47.85,8.15-14.61,19.53-27.39,26.18-42.74,10.44-24.08,7.96-52.42-2.39-76.53-10.35-24.12-27.93-44.48-47.26-62.23-11.76-10.79-24.45-20.99-33.02-34.46-13.91-21.88-14.77-51.41-2.15-74.06,16.01-28.73,48.74-42.85,78.28-57.33,12.03-5.9,24.34-12.77,35.16-21.02-.62-18.48-86.95,11.81-121.03,11.81-80.6,0-119.26-45.03-120.32-40.4,3.54,9.71,9.04,18.78,15.06,27.26,12.99,18.29,28.61,34.56,44.83,50.06,16.88,16.13,35.54,33.44,38.98,56.54,2.34,15.73-3.02,31.77-11.24,45.39s-19.18,25.32-29.36,37.54Z"/>
  </g>
  <g id="deco_09">
    <path class="cls-8" d="M305.65,5604.43c-19.38-14.84-44.11-21.53-63.2-36.74-26.09-20.79-37.71-61.69-18.33-88.84,12.45-17.44,33.9-25.62,50.7-38.91,20.72-16.38,34.09-40.69,40.23-66.48-1.44-9.35-37.34-18.71-83.83,1.17-45.24,19.34-48.01-40.26-85.31-53.88-49.69-18.14-69.13,18.39-69.13,18.39-.86,18.34.96,36.8,5.59,54.57,5.01,19.22,14.95,39.4,33.52,46.45,17.08,6.49,37.91.32,53.37,10.06,11.11,7,16.35,20.65,17.53,33.73,1.95,21.78-6.04,44.38-20.97,60.32-6.39,6.83-15.02,10-22.27,15.98-7.47,6.15-14,13.42-19.46,21.4-21.6,31.55-26.99,75.04-9.49,109.64,17.5,34.61,54.52,62.17,53.84,100.94-.44,25.23-17.67,47.22-37.3,63.09-19.63,15.87-42.38,27.75-60.85,44.95-29.87,27.83-50.15,70.68-47.87,111.45,2.28,40.76,27.07,78.67,59.86,102.99,18.91,14.03,41.15,23.08,63.98,28.81,34.24,8.58,71.38,9.68,104.08-3.62,32.7-13.3,59.99-42.77,64.49-77.79.91-7.1.87-14.52-1.78-21.17-2.81-7.05-8.3-12.64-13.69-17.98-20.84-20.64-42.49-40.76-59.58-64.6-17.09-23.84-29.52-52.13-29.13-81.46.3-22.58,14.12-49.16,36.69-48.31,8.31.32,15.97,4.42,24.13,6.03,18.94,3.73,38.54-6.82,50.38-22.07,11.84-15.25,17.25-34.46,21.08-53.38,5.56-27.44,8.36-55.87,3.37-83.43s-18.43-54.3-40.66-71.33Z"/>
  </g>
  <g id="anchor_read_001">
    <circle class="cls-14" cx="183.6" cy="284.51" r="32"/>
  </g>
  <g id="anchor_quiz_001">
    <circle class="cls-14" cx="219.78" cy="602.62" r="10"/>
  </g>
  <g id="anchor_read_002">
    <circle class="cls-14" cx="219.78" cy="1001.93" r="10"/>
  </g>
  <g id="anchor_quiz_002">
    <circle class="cls-14" cx="177.5" cy="1287.71" r="10"/>
  </g>
  <g id="anchor_read_003">
    <circle class="cls-14" cx="164.83" cy="1713.67" r="10"/>
  </g>
  <g id="anchor_quiz_003">
    <circle class="cls-14" cx="242.26" cy="1957.28" r="10"/>
  </g>
  <g id="anchor_read_004">
    <circle class="cls-14" cx="219.54" cy="2281.85" r="10"/>
  </g>
  <g id="anchor_quiz_004">
    <circle class="cls-14" cx="190.91" cy="2558.72" r="10"/>
  </g>
  <g id="anchor_read_005">
    <circle class="cls-14" cx="170.91" cy="2990.55" r="10"/>
  </g>
  <g id="anchor_quiz_005">
    <circle class="cls-14" cx="272.36" cy="3261.2" r="10"/>
  </g>
  <g id="anchor_read_006">
    <circle class="cls-14" cx="158.72" cy="3701.02" r="10"/>
  </g>
  <g id="anchor_quiz_006">
    <circle class="cls-14" cx="210.29" cy="3974.25" r="10"/>
  </g>
  <g id="anchor_read_007">
    <circle class="cls-14" cx="272.74" cy="4412.76" r="10"/>
  </g>
  <g id="anchor_quiz_007">
    <circle class="cls-14" cx="150.1" cy="4738.5" r="10"/>
  </g>
  <g id="anchor_read_008">
    <circle class="cls-14" cx="156.42" cy="5041.39" r="10"/>
  </g>
  <g id="anchor_quiz_008">
    <circle class="cls-14" cx="229.97" cy="5271.66" r="10"/>
  </g>
  <g id="anchor_read_009">
    <circle class="cls-14" cx="274.02" cy="5695.55" r="10"/>
  </g>
  <g id="anchor_quiz_009">
    <circle class="cls-14" cx="140.22" cy="6033.01" r="10"/>
  </g>
  <g id="anchor_chapter_test_01">
    <circle class="cls-13" cx="219.78" cy="1001.93" r="10"/>
  </g>
  <g id="anchor_chapter_test_02">
    <circle class="cls-13" cx="164.83" cy="1713.67" r="10"/>
  </g>
  <g id="anchor_chapter_test_03">
    <circle class="cls-13" cx="219.54" cy="2281.85" r="10"/>
  </g>
  <g id="anchor_chapter_test_04">
    <circle class="cls-13" cx="170.91" cy="2990.55" r="10"/>
  </g>
  <g id="anchor_chapter_test_05">
    <circle class="cls-13" cx="158.72" cy="3701.02" r="10"/>
  </g>
  <g id="anchor_chapter_test_06">
    <circle class="cls-13" cx="272.74" cy="4412.76" r="10"/>
  </g>
  <g id="anchor_chapter_test_07">
    <circle class="cls-13" cx="156.42" cy="5041.39" r="10"/>
  </g>
  <g id="anchor_chapter_test_08">
    <circle class="cls-13" cx="274.36" cy="5694.97" r="10"/>
  </g>
  <g id="anchor_chapter_test_09">
    <circle class="cls-13" cx="188.75" cy="6345.09" r="10"/>
  </g>
  <g id="title_box_01">
    <rect class="cls-5" x="10" y="174.22" width="355" height="48"/>
  </g>
  <g id="title_box_02">
    <rect class="cls-5" x="10" y="819.42" width="355" height="48"/>
  </g>
  <g id="title_box_03">
    <rect class="cls-5" x="10" y="1531.83" width="355" height="48"/>
  </g>
  <g id="title_box_04">
    <rect class="cls-5" x="10" y="2125.34" width="355" height="48"/>
  </g>
  <g id="title_box_05">
    <rect class="cls-5" x="10" y="2811.43" width="355" height="48"/>
  </g>
  <g id="title_box_06">
    <rect class="cls-5" x="10" y="3525.71" width="355" height="48"/>
  </g>
  <g id="title_box_07">
    <rect class="cls-5" x="10" y="4216.03" width="355" height="48"/>
  </g>
  <g id="title_box_08">
    <rect class="cls-5" x="10" y="4851.84" width="355" height="48"/>
  </g>
  <g id="title_box_09">
    <rect class="cls-5" x="10" y="5480.12" width="355" height="48"/>
  </g>
</svg>