<?xml version="1.0" encoding="UTF-8"?>
<svg xmlns="http://www.w3.org/2000/svg" viewBox="0 0 375 1000">
  <defs>
    <style>
      .cls-1 {
        fill: #fff;
      }

      .cls-2 {
        letter-spacing: 0em;
      }

      .cls-3 {
        letter-spacing: 0em;
      }

      .cls-4 {
        letter-spacing: 0em;
      }

      .cls-5 {
        fill: none;
        stroke: #fff;
        stroke-miterlimit: 10;
        stroke-width: 3px;
      }

      .cls-6 {
        letter-spacing: 0em;
      }

      .cls-7 {
        letter-spacing: 0em;
      }

      .cls-8 {
        letter-spacing: 0em;
      }

      .cls-9 {
        letter-spacing: 0em;
      }

      .cls-10 {
        fill: #0183e1;
        font-family: MyriadPro-Regular, 'Myriad Pro';
        font-size: 22.31px;
      }

      .cls-11 {
        fill: #01c0d2;
      }
    </style>
  </defs>
  <g id="anchor_bg">
    <rect class="cls-11" x="0" y=".16" width="375" height="999.68"/>
  </g>
  <g id="path">
    <rect class="cls-5" x="28.83" y="813.91" width="318.93" height="97.24" rx="10" ry="10"/>
    <path class="cls-5" d="M73.02,169.22s3.93,59.42,127.3,57.62,117.73,68.42,117.34,104.44c-.57,52.22-46.69,78.21-137.34,74.73-117.3-4.5-107.3,63.02-107.3,63.02,0,0-17.29,71.13,122.24,71.13s125.95,63.11,125.95,63.11c-4.23,10-14.36,66.35-111.55,80.45s-133.25-10.08-137.32,21.61,0,108.55,0,108.55"/>
  </g>
  <g id="anchor_read_001-2" data-name="anchor_read_001">
    <circle class="cls-1" cx="72.34" cy="169.22" r="10"/>
  </g>
  <g id="anchor_quiz_001-2" data-name="anchor_quiz_001">
    <circle class="cls-1" cx="316.97" cy="313.82" r="10"/>
  </g>
  <g id="anchor_read_002-2" data-name="anchor_read_002">
    <circle class="cls-1" cx="209.66" cy="406.91" r="10"/>
  </g>
  <g id="anchor_quiz_002-2" data-name="anchor_quiz_002">
    <circle class="cls-1" cx="72.34" cy="481.64" r="10"/>
  </g>
  <g id="anchor_read_003-2" data-name="anchor_read_003">
    <circle class="cls-1" cx="316.97" cy="606.92" r="10"/>
  </g>
  <g id="anchor_quiz_003-2" data-name="anchor_quiz_003">
    <circle class="cls-1" cx="82.34" cy="685.33" r="10"/>
  </g>
  <g id="anchor_quiz_004-2" data-name="anchor_quiz_004">
    <circle class="cls-1" cx="188.3" cy="865.9" r="10"/>
  </g>
  <g id="text_sjovagsmarken_markeringar">
    <text class="cls-10" transform="translate(48.82 78.24)"><tspan class="cls-2" x="0" y="0">S</tspan><tspan x="10.91" y="0">j</tspan><tspan class="cls-7" x="16.33" y="0">ö</tspan><tspan class="cls-2" x="28.43" y="0">v</tspan><tspan class="cls-9" x="39.07" y="0">ägsmä</tspan><tspan class="cls-8" x="100.5" y="0">r</tspan><tspan x="107.89" y="0">ken &amp; </tspan><tspan class="cls-3" x="164.88" y="0">M</tspan><tspan x="182.95" y="0">a</tspan><tspan class="cls-6" x="193.71" y="0">r</tspan><tspan class="cls-4" x="201.1" y="0">ke</tspan><tspan class="cls-6" x="222.74" y="0">r</tspan><tspan x="230.13" y="0">ingar</tspan></text>
  </g>
</svg>