<?xml version="1.0" encoding="UTF-8"?>
<svg xmlns="http://www.w3.org/2000/svg" viewBox="0 0 375 1250">
  <defs>
    <style>
      .cls-1 {
        fill: #8ae7d4;
      }

      .cls-2 {
        fill: #fff;
      }

      .cls-3 {
        letter-spacing: -.07em;
      }

      .cls-4 {
        fill: #0183e1;
        font-family: MyriadPro-Regular, 'Myriad Pro';
        font-size: 25.69px;
      }

      .cls-5 {
        letter-spacing: 0em;
      }

      .cls-6 {
        fill: none;
        stroke: #fff;
        stroke-miterlimit: 10;
        stroke-width: 3px;
      }

      .cls-7 {
        letter-spacing: 0em;
      }

      .cls-8 {
        letter-spacing: 0em;
      }

      .cls-9 {
        letter-spacing: 0em;
      }
    </style>
  </defs>
  <g id="bg-6" data-name="bg">
    <polygon class="cls-1" points="375 1250 0 1249.6 0 0 375 .4 375 1250"/>
  </g>
  <g id="path-6" data-name="path">
    <path class="cls-6" d="M62.75,154.39c-12.18,107.44,250.44-4.57,248.16,118.83-2.54,137.08-239.02,3.07-239.02,137.04s245.05,28.92,245.05,159.47c0,172-244.22,6.98-244.22,158.46,0,0-9.24,99.04,116.93,83.73,126.17-15.31,126.63,32.41,127.3,74.73s-16.5,110.42-119.43,64.82c-69.29-30.69-125.16,61.22-125.16,101.74"/>
    <rect class="cls-6" x="28.83" y="1053.21" width="318.93" height="97.24" rx="10" ry="10"/>
  </g>
  <g id="anchor_read_001-9" data-name="anchor_read_001">
    <circle class="cls-2" cx="62.34" cy="147.16" r="10"/>
  </g>
  <g id="anchor_quiz_001-9" data-name="anchor_quiz_001">
    <circle class="cls-2" cx="187.5" cy="205.99" r="10"/>
  </g>
  <g id="anchor_read_002-9" data-name="anchor_read_002">
    <circle class="cls-2" cx="310.43" cy="278.09" r="10"/>
  </g>
  <g id="anchor_quiz_002-9" data-name="anchor_quiz_002">
    <circle class="cls-2" cx="187.5" cy="343.75" r="10"/>
  </g>
  <g id="anchor_read_003-8" data-name="anchor_read_003">
    <circle class="cls-2" cx="72.34" cy="407.5" r="10"/>
  </g>
  <g id="anchor_quiz_003-8" data-name="anchor_quiz_003">
    <circle class="cls-2" cx="187.5" cy="488.7" r="10"/>
  </g>
  <g id="anchor_read_004-8" data-name="anchor_read_004">
    <circle class="cls-2" cx="316.93" cy="569.73" r="10"/>
  </g>
  <g id="anchor_quiz_004-8" data-name="anchor_quiz_004">
    <circle class="cls-2" cx="189.64" cy="655.26" r="10"/>
  </g>
  <g id="anchor_read_005-8" data-name="anchor_read_005">
    <circle class="cls-2" cx="72.34" cy="722.79" r="10"/>
  </g>
  <g id="anchor_quiz_005-8" data-name="anchor_quiz_005">
    <circle class="cls-2" cx="185.25" cy="810.12" r="10"/>
  </g>
  <g id="anchor_read_006-6" data-name="anchor_read_006">
    <circle class="cls-2" cx="317.08" cy="887.55" r="10"/>
  </g>
  <g id="anchor_quiz_006-6" data-name="anchor_quiz_006">
    <circle class="cls-2" cx="199.66" cy="952.38" r="10"/>
  </g>
  <g id="text_Instrument_o_Utrustning">
    <text class="cls-4" transform="translate(40.14 78.24)"><tspan class="cls-7" x="0" y="0">I</tspan><tspan x="6.4" y="0">nstrume</tspan><tspan class="cls-9" x="96.2" y="0">n</tspan><tspan x="110.35" y="0">t &amp; </tspan><tspan class="cls-8" x="145.3" y="0">U</tspan><tspan x="162.02" y="0">trustning</tspan></text>
    <text class="cls-4" transform="translate(164.02 1114.84)"><tspan class="cls-3" x="0" y="0">T</tspan><tspan class="cls-5" x="10.95" y="0">est</tspan></text>
  </g>
</svg>