<?xml version="1.0" encoding="UTF-8"?>
<svg xmlns="http://www.w3.org/2000/svg" width="375" height="7000" xmlns:xlink="http://www.w3.org/1999/xlink" viewBox="0 0 375 7000">
  <defs>
    <linearGradient id="linear-gradient" x1="187.5" y1="26.1814" x2="187.5" y2="678.516" gradientUnits="userSpaceOnUse">
      <stop offset="0" stop-color="#4db0b5"/>
      <stop offset="1" stop-color="#fbea90"/>
    </linearGradient>
  </defs>
  <g id="level_001">
    <rect y="-.6646" width="375" height="7000" fill="url(#linear-gradient)"/>
    <path d="M61.4417,124.6439h95.6974s5.9398-12.2097-13.1996-15.5096-1.9799-16.1696-27.3893-16.4996-3.6299,11.2197-27.3893,14.5196-2.9699,5.6098-32.3391,9.8997-26.0693,8.5798-26.0693,8.5798l30.6892-.99Z" fill="#fcfcd8"/>
    <path d="M30.7525,125.6339s23.1791-3.2014,62.6176-8.2485c44.7985-5.7331,66.1136-1.1687,63.769,7.2585s-12.0444,3.4148-64.59,3.0043-61.7966-2.0143-61.7966-2.0143Z" fill="#afdeca"/>
    <path d="M126.1979,242.2108c11.0305-7.5472,124.8188-28.4471,156.7492,85.9218s-60.3775,104.4995-49.347,140.4937c11.0305,35.9943,90.7919,51.5021,100.6613,109.5574s-15.3201,97.6999-85.567,109.8915-125.6983-3.3989-134.4066-57.3903,68.2236-98.7784,54.8709-144.642-91.7273-40.6387-102.1773-127.141,48.1859-109.1439,59.2164-116.6911Z" fill="#9e9514"/>
    <path d="M286.6453,566.3812c-24.7449-55.945-50.9187-48.825-66-66.8254-15.0814-18.0003-18.9733-40.3792-9.7299-66.1634s50.5956-33.5682,32.1087-101.1911c-18.4868-67.6229-95.3531-49.6226-95.3531-49.6226-75.8933,26.7573-55.4084,92.7211-40.3791,113.3535,16.5838,22.7665,38.9196,33.0817,55.947,40.3792,17.0273,7.2974,38.4332,50.109,31.6223,69.5688-6.811,19.4598-15.5495,44.3201-23.3334,64.2664-7.7839,19.9463-.4507,48.8762,15.8633,65.1902,17.2789,17.2789,29.413,21.561,64.8267,12.2722,38.5586-10.1137,53.8133-37.3996,34.4277-81.2279Z" fill="#255154"/>
  </g>
  <g id="deco_02">
    <path d="M127.7682,1364.0181c25.6386,11.3656,98.2626,14.4186,100.1263,13.778.0306-.5383.0605-1.0691.0918-1.6155,1.946-34.0548,37.9467-44.7577,35.5142-90.9749-2.4325-46.217-38.9196-54.001-54.4875-79.2987-15.5679-25.2978-3.4055-99.2451,17.0273-110.4345s49.6226-30.6492,69.5688-55.947c17.5577-22.2683-21.4645-103.8679-24.6302-104.8109-13.4827-4.0166-53.2665-8.6728-61.4794-7.5696-32.5952,4.3784-47.1901,25.7842-66.1635,41.3521s-26.2708,50.5955-.4865,86.5962c25.7842,36.0007,29.1897,53.5145,33.0817,78.8123,3.892,25.2978-10.2164,60.812-25.7842,74.4338-15.5679,13.6218-41.8386,39.8926-58.866,60.812-17.0273,20.9192-10.7029,73.9473,36.4872,94.8666Z" fill="#fff"/>
  </g>
  <g id="deco_03">
    <path d="M126.6651,1813.2548c20.9193,11.6759,55.4605,34.5413,66.1634,56.9199,10.7029,22.3789-37.9467,37.9468-55.4605,57.8931s-6.8109,67.1364,7.7839,80.2717c9.9248,8.9324,53.6616,41.9219,63.744,44.7449,15.1045-15.5542,79.773-14.1138,82.6912-79.7725,2.919-65.677-48.1631-72.9744-65.6769-87.5693-17.5139-14.5947-23.3518-25.2977-18.4869-55.947,4.865-30.6492,55.947-68.1094,43.7846-111.4075-11.2975-40.2192-100.6486-69.949-104.777-67.8884-7.4265,3.7064-14.7307,7.6514-22.1452,11.3811-4.8278,2.4287-38.8391,62.2347-38.4863,87.6431.4865,35.0277,19.9464,52.0551,40.8657,63.731Z" fill="#fff"/>
  </g>
  <g id="deco_04">
    <path d="M146.1445,2658.2581c13.8438-6.2925,27.6875-12.5852,41.5312-18.8777,4.1531-2.2393,8.5196-3.6045,13.0978-4.1018,7.1775-21.5662,25.4992-19.978,33.1248-50.48,8.7569-35.0278-10.7029-64.704-28.2167-87.0828-17.5139-22.3788-11.1895-54.001,16.0543-84.1638,27.2438-30.1626,60.3254,1.946,82.2178-56.4333,21.5461-57.4565-24.2938-91.8225-33.633-118.4028-.0161-.0051-.0322-.0088-.0483-.0139-4.5543-1.5112-9.1741-2.8096-13.8058-4.0598-8.1902-2.2107-16.4343-4.285-24.4264-7.155-3.8024-1.3655-7.5761-2.8575-11.296-4.4685-5.9873,4.0686-12.668,8.2109-19.9276,12.9626-26.7573,17.5139-44.2711,36.4872-55.947,62.2715-11.6759,25.7842,6.3244,68.1094,18.9733,87.0826,12.6489,18.9733,1.4595,52.0551-8.757,77.8392-10.2164,25.7844-44.2711,31.1357-66.1634,51.0822-21.8923,19.9463-15.0814,54.4874-5.838,93.8937,9.101,38.7986,48.3851,39.8684,63.0598,50.1077Z" fill="#fff"/>
  </g>
  <g id="deco_05">
    <path d="M145.2167,3125.4215c21.4058,6.3245,42.8116,37.9465,48.6495,57.8928,5.838,19.9465-2.4324,42.8118-18.4868,59.3525-16.0543,16.541-21.8923,53.5146-9.7299,75.407,11.3481,20.4265,12.5282,36.197,5.9178,59.1609,3.823,7.8801,7.9768,15.604,12.7577,22.9365,20.1834-25.8752,52.8794-27.6233,86.4075-38.7993,36.4872-12.1626,47.1901-62.7581,43.2981-96.3262-3.892-33.5684-32.5952-46.217-55.4605-64.7039-22.8653-18.4871-31.1357-34.5413-37.4601-72.9744s34.5412-43.7847,30.6492-97.7856-65.6769-69.0825-94.8666-78.8123c-2.6972-.8992-5.163-1.8489-7.4194-2.8577-13.7872,6.2671-27.5743,12.5339-41.3615,18.8008-1.992,1.0742-4.0344,1.9414-6.1242,2.6147-4.9653,28.7944-18.7775,64.5869-21.9612,91.8765-3.4055,29.1899,43.7846,57.8931,65.1904,64.2175Z" fill="#fff"/>
  </g>
  <g id="deco_06">
    <path d="M149.4943,3856.6225c18.0004,22.8652,16.0544,72.9744.4865,96.3262-15.5679,23.3518-9.2434,64.7039,3.4055,99.7314,12.6489,35.0278,54.001,27.2439,80.2718,30.6494,4.1839.5422,7.7608,2.2239,10.8062,4.7693,2.4322-1.6577,4.9077-3.2544,7.4595-4.7544,4.0487-2.3796,8.2043-4.5732,12.411-6.6592,5.5753-2.7646,11.2433-5.3313,16.9071-7.9075.2863-.9775.642-1.8096,1.0657-2.4756,6.811-10.7029,28.2167-52.0552,12.6489-95.8398-15.5679-43.7844-42.3251-43.2979-70.5419-58.3794-28.2167-15.0813-34.5412-46.217-35.0277-71.5146-.4865-25.2979,37.9467-19.46,46.2171-57.8931,8.2704-38.4331-8.2704-44.2712-13.6219-70.542-1.2751-6.2593-.8784-11.5747.7067-16.4956-.8546-.8901-1.6948-1.7944-2.5194-2.7134-4.9162-5.4778-9.1835-11.4744-13.5099-17.4194-2.4854-3.4153-4.8062-6.949-6.9919-10.563-.8865-1.4658-1.7342-2.9539-2.5782-4.4438-22.2852,4.2244-41.7388-4.0493-83.5958,21.959-50.1091,31.1357-39.4061,67.623-37.4601,102.1641,1.946,34.5413,55.4605,49.1362,73.4608,72.0015Z" fill="#fff"/>
  </g>
  <g id="deco_07">
    <path d="M106.9111,4749.3151c4.5538,3.9963,7.3269,8.6685,8.5505,13.7461,15.6675,3.1016,31.5541,5.0276,47.2343,8.0378,3.6317-3.8066,7.5173-7.0654,11.3516-9.6216,20.4328-13.6218,61.785-16.5408,80.2718-57.8928,18.4868-41.3523-14.1084-57.4065-29.1898-110.4346-15.0814-53.0281,45.2441-73.4607,56.92-75.4067,11.6759-1.946,52.0551-8.2705,57.893-71.0286,5.838-62.7578-38.9197-78.3257-74.9203-92.4341-5.8209-2.2812-10.9763-5.5967-15.5073-9.5908-9.5074,4.4187-18.9125,9.1221-27.6195,14.96-3.1002,2.5176-6.0469,5.2166-8.7686,8.1492-3.6868,3.5383-7.8882,6.1384-12.5865,7.8318-4.5345,22.4263-15.9716,23.3823-26.9793,55.0298-11.6758,33.5681-4.8649,54.4875,11.1894,72.0015,16.0544,17.5137,9.2435,53.5144,2.4325,67.6228-6.8109,14.1084-28.2167,16.0544-59.8389,20.4329-31.6223,4.3784-48.6496,54.9739-54.001,80.2717-5.3514,25.2976,9.7299,57.4065,33.5682,78.3257Z" fill="#fff"/>
  </g>
  <g id="deco_08">
    <path d="M131.4139,5148.0071c11.1894,2.4326,39.4061,45.7307,37.9467,72.9746-1.4595,27.2437-18.4869,56.9199-26.2708,71.5146-7.7839,14.595-2.9189,48.6497,25.7843,72.0015,20.1224,16.3708,45.9708,27.2378,63.3222,34.9565,4.0486-3.0789,8.2245-5.9934,12.4208-8.8032,11.437-7.6582,23.7192-13.7603,36.2329-19.4019,5.3508-19.8594,22.0193-35.3792,19.8644-61.239-2.919-35.0276-3.892-53.5144-58.866-77.8394-54.9741-24.3247-47.6766-47.1899-41.8386-84.6501,5.8379-37.4602,37.9467-17.0273,54.974-65.1904,16.3234-46.1719-13.8504-63.7312-36.5184-91.6782-.0325-.0103-.0649-.0176-.0974-.0278-5.9612-1.4829-11.9803-2.7136-18.0249-3.8042-21.348-3.8513-43.0475-6.0876-63.9003-12.312-1.2204-.3474-2.398-.7668-3.5519-1.2261-2.5258,1.3962-5.1283,2.7222-7.8014,3.9653-41.8386,19.4597-54.4875,53.5144-57.893,100.218-3.4055,46.7036,53.028,68.1094,64.2175,70.5417Z" fill="#fff"/>
  </g>
  <g id="deco_09">
    <path d="M315.0916,5673.1782c-8.5038-28.0755-57.9638-47.5905-93.2641-48.0766-12.1067-.1669-20.8972-1.8623-27.8317-5.2772-7.5829,5.8214-14.8786,11.9943-21.5737,18.8143-1.9123,2.2448-3.7412,4.5583-5.4805,6.9422,6.0166,12.7208,10.2598,24.7059,9.9862,31.0049-.7168,16.5037-11.7761,45.9527,4.5383,78.4406,16.3143,32.4874,9.125,43.82,5.3416,64.8944-3.7834,21.0744-35.0491,43.5943-55.4157,58.5131-20.3665,14.9193-63.7681,43.7954-63.7681,43.7954-34.6071,23.1774-42.9274,94.2333,5.3239,135.3071,48.2513,41.0738,111.3394,1.3791,125.7254-23.7663,14.386-25.1454,7.4817-77.8325-3.0974-113.9287-10.5791-36.0966,14.9808-64.93,25.7509-93.3302,10.7699-28.4007,43.8789-28.9706,80.504-57.0079,36.6252-28.0373,21.7648-68.249,13.261-96.325Z" fill="#fff"/>
  </g>
  <g id="anchor_read_001">
    <circle cx="169.3974" cy="352.6541" r="10" fill="#b0d339"/>
  </g>
  <g id="anchor_quiz_001">
    <circle cx="225.8997" cy="595.1739" r="10" fill="#b0d339"/>
  </g>
  <g id="anchor_read_002">
    <circle cx="212.6658" cy="1013.7912" r="10" fill="#b0d339"/>
  </g>
  <g id="anchor_quiz_002">
    <circle cx="177.8595" cy="1296.8515" r="10" fill="#b0d339"/>
  </g>
  <g id="anchor_read_003">
    <circle cx="171.4946" cy="1736.6299" r="10" fill="#b0d339"/>
  </g>
  <g id="anchor_quiz_003">
    <circle cx="243.7423" cy="1974.3113" r="10" fill="#b0d339"/>
  </g>
  <g id="anchor_read_004">
    <circle cx="216.5773" cy="2326.2809" r="10" fill="#b0d339"/>
  </g>
  <g id="anchor_quiz_004">
    <circle cx="151.3079" cy="2563.9623" r="10" fill="#b0d339"/>
  </g>
  <g id="anchor_read_005">
    <circle cx="173.0189" cy="3046.4773" r="10" fill="#b0d339"/>
  </g>
  <g id="anchor_quiz_005">
    <circle cx="237.5541" cy="3284.1587" r="10" fill="#b0d339"/>
  </g>
  <g id="anchor_read_006">
    <circle cx="152.0588" cy="3757.3021" r="10" fill="#b0d339"/>
  </g>
  <g id="anchor_quiz_006">
    <circle cx="219.2739" cy="3994.9836" r="10" fill="#b0d339"/>
  </g>
  <g id="anchor_read_007">
    <circle cx="252.7443" cy="4442.3178" r="10" fill="#b0d339"/>
  </g>
  <g id="anchor_quiz_007">
    <circle cx="162.0959" cy="4679.9992" r="10" fill="#b0d339"/>
  </g>
  <g id="anchor_read_008">
    <circle cx="156.4239" cy="5065.8274" r="10" fill="#b0d339"/>
  </g>
  <g id="anchor_quiz_008">
    <circle cx="221.8248" cy="5303.5088" r="10" fill="#b0d339"/>
  </g>
  <g id="anchor_read_009">
    <circle cx="257.7252" cy="5705.1792" r="10" fill="#b0d339"/>
  </g>
  <g id="anchor_quiz_009">
    <circle cx="121.7096" cy="5978.9494" r="10" fill="#b0d339"/>
  </g>
  <g id="anchor_chapter_test_01">
    <circle cx="218.7794" cy="1016.5121" r="10" fill="#e20caa"/>
  </g>
  <g id="anchor_chapter_test_02">
    <circle cx="177.3395" cy="1738.9482" r="10" fill="#e20caa"/>
  </g>
  <g id="anchor_chapter_test_03">
    <circle cx="218.59" cy="2329.2665" r="10" fill="#e20caa"/>
  </g>
  <g id="anchor_chapter_test_04">
    <circle cx="178.8638" cy="3047.8276" r="10" fill="#e20caa"/>
  </g>
  <g id="anchor_chapter_test_05">
    <circle cx="159.2362" cy="3772.9162" r="10" fill="#e20caa"/>
  </g>
  <g id="anchor_chapter_test_06">
    <circle cx="262.7774" cy="4443.8513" r="10" fill="#e20caa"/>
  </g>
  <g id="anchor_chapter_test_07">
    <circle cx="160.0986" cy="5068.6752" r="10" fill="#e20caa"/>
  </g>
  <g id="anchor_chapter_test_08">
    <circle cx="258.0685" cy="5704.5933" r="10" fill="#e20caa"/>
  </g>
  <g id="anchor_chapter_test_09">
    <circle cx="188.7519" cy="6345.0898" r="10" fill="#e20caa"/>
  </g>
  <g id="anchor_title_01">
    <circle cx="170.4358" cy="196.9161" r="6.9934" fill="#233f56"/>
  </g>
  <g id="anchor_title_02">
    <circle cx="204.1686" cy="856.315" r="6.9934" fill="#233f56"/>
  </g>
  <g id="anchor_title_03">
    <circle cx="178.8616" cy="1544.3369" r="6.9934" fill="#233f56"/>
  </g>
  <g id="anchor_title_04">
    <circle cx="200.8272" cy="2138.3063" r="6.9934" fill="#233f56"/>
  </g>
  <g id="anchor_title_05">
    <circle cx="152.9335" cy="2826.6388" r="6.9934" fill="#233f56"/>
  </g>
  <g id="anchor_title_06">
    <circle cx="166.2992" cy="3530.5645" r="6.9934" fill="#233f56"/>
  </g>
  <g id="anchor_title_07">
    <circle cx="205.2824" cy="4224.466" r="6.9934" fill="#233f56"/>
  </g>
  <g id="anchor_title_08">
    <circle cx="174.4064" cy="4884.6427" r="6.9934" fill="#233f56"/>
  </g>
  <g id="anchor_title_09">
    <circle cx="195.5687" cy="5532.8781" r="6.9934" fill="#233f56"/>
  </g>
</svg>