<?xml version="1.0" encoding="UTF-8"?>
<svg xmlns="http://www.w3.org/2000/svg" width="375" height="2634.6224" viewBox="0 0 375 2634.6224">
  <g id="bg-3" data-name="bg">
    <polygon points="375 2725.0117 0 2724.1311 0 0 375 .8806 375 2725.0117" fill="#01c0d2"/>
  </g>
  <g id="anchor_read_001-7" data-name="anchor_read_001">
    <circle cx="62.3383" cy="147.1585" r="10" fill="#01c0d2"/>
  </g>
  <g id="anchor_quiz_001-7" data-name="anchor_quiz_001">
    <circle cx="187.5" cy="341.9569" r="10" fill="#01c0d2"/>
  </g>
  <g id="anchor_read_002-7" data-name="anchor_read_002">
    <circle cx="310.4309" cy="536.7553" r="10" fill="#01c0d2"/>
  </g>
  <g id="anchor_quiz_002-7" data-name="anchor_quiz_002">
    <circle cx="187.5" cy="731.5537" r="10" fill="#01c0d2"/>
  </g>
  <g id="anchor_read_003-7" data-name="anchor_read_003">
    <circle cx="72.3383" cy="926.3522" r="10" fill="#01c0d2"/>
  </g>
  <g id="anchor_quiz_003-7" data-name="anchor_quiz_003">
    <circle cx="187.5" cy="1121.1506" r="10" fill="#01c0d2"/>
  </g>
  <g id="anchor_read_004-6" data-name="anchor_read_004">
    <circle cx="316.9339" cy="1315.949" r="10" fill="#01c0d2"/>
  </g>
  <g id="anchor_quiz_004-7" data-name="anchor_quiz_004">
    <circle cx="189.6361" cy="1510.7475" r="10" fill="#01c0d2"/>
  </g>
  <g id="anchor_read_005-6" data-name="anchor_read_005">
    <circle cx="72.3383" cy="1705.5459" r="10" fill="#01c0d2"/>
  </g>
  <g id="anchor_quiz_005-6" data-name="anchor_quiz_005">
    <circle cx="185.2535" cy="1900.3443" r="10" fill="#01c0d2"/>
  </g>
  <g id="anchor_read_006-3" data-name="anchor_read_006">
    <circle cx="317.0816" cy="2095.1427" r="10" fill="#01c0d2"/>
  </g>
  <g id="anchor_quiz_006-6" data-name="anchor_quiz_006">
    <circle cx="199.656" cy="2289.9412" r="10" fill="#01c0d2"/>
  </g>
  <g id="anchor_quiz_007-3" data-name="anchor_quiz_007">
    <circle cx="195.2535" cy="2484.7396" r="10" fill="#01c0d2"/>
  </g>
  <g id="text_Navigationsljus">
    <text transform="translate(40.1356 78.2419)" fill="#0183e1" font-family="MyriadPro-Regular, &apos;Myriad Pro&apos;" font-size="25.6936"><tspan x="0" y="0">N</tspan><tspan x="16.9062" y="0" letter-spacing="-.008em">a</tspan><tspan x="29.085" y="0">vig</tspan><tspan x="61.8179" y="0" letter-spacing="-.004em">a</tspan><tspan x="74.0996" y="0">tionsljus</tspan></text>
  </g>
</svg>