<?xml version="1.0" encoding="UTF-8"?>
<svg xmlns="http://www.w3.org/2000/svg" width="375" height="1796.9785" viewBox="0 0 375 1796.9785">
  <g id="bg-10" data-name="bg">
    <polygon points="372.7535 1880.3386 -2.2465 1879.7305 -2.2465 -1.4078 372.7535 -.7997 372.7535 1880.3386" fill="#01c0d2"/>
  </g>
  <g id="anchor_read_001-14" data-name="anchor_read_001">
    <circle cx="316.9524" cy="172.1786" r="10" fill="#01c0d2"/>
  </g>
  <g id="anchor_quiz_001-14" data-name="anchor_quiz_001">
    <circle cx="62.211" cy="358.78" r="10" fill="#01c0d2"/>
  </g>
  <g id="anchor_read_002-14" data-name="anchor_read_002">
    <circle cx="175.2535" cy="545.3813" r="10" fill="#01c0d2"/>
  </g>
  <g id="anchor_quiz_002-14" data-name="anchor_quiz_002">
    <circle cx="316.9524" cy="731.9827" r="10" fill="#01c0d2"/>
  </g>
  <g id="anchor_read_003-14" data-name="anchor_read_003">
    <circle cx="219.656" cy="918.584" r="10" fill="#01c0d2"/>
  </g>
  <g id="anchor_quiz_003-14" data-name="anchor_quiz_003">
    <circle cx="72.211" cy="1105.1854" r="10" fill="#01c0d2"/>
  </g>
  <g id="anchor_read_004-13" data-name="anchor_read_004">
    <circle cx="165.2535" cy="1291.7867" r="10" fill="#01c0d2"/>
  </g>
  <g id="anchor_quiz_004-14" data-name="anchor_quiz_004">
    <circle cx="317.2407" cy="1478.3881" r="10" fill="#01c0d2"/>
  </g>
  <g id="anchor_quiz_005-13" data-name="anchor_quiz_005">
    <circle cx="185.2741" cy="1664.9894" r="10" fill="#01c0d2"/>
  </g>
  <g id="text_Meteorologi_for_batfolk">
    <text transform="translate(75.3423 83.6123)" fill="#0183e1" font-family="MyriadPro-Regular, &apos;Myriad Pro&apos;" font-size="22.3145"><tspan x="0" y="0" letter-spacing=".006em">M</tspan><tspan x="18.0742" y="0" letter-spacing="0em">e</tspan><tspan x="29.2539" y="0" letter-spacing="-.006em">t</tspan><tspan x="36.5059" y="0">eo</tspan><tspan x="59.9355" y="0" letter-spacing="-.01em">r</tspan><tspan x="67.0093" y="0" letter-spacing="0em">olo</tspan><tspan x="96.7764" y="0" letter-spacing="-.006em">g</tspan><tspan x="109.1162" y="0">i </tspan><tspan x="119.0684" y="0" letter-spacing="-.013em">f</tspan><tspan x="125.2939" y="0" letter-spacing="0em">ör b</tspan><tspan x="162.2686" y="0" letter-spacing="-.004em">å</tspan><tspan x="172.9346" y="0">t</tspan><tspan x="180.3203" y="0" letter-spacing="-.013em">f</tspan><tspan x="186.5469" y="0" letter-spacing="0em">olk</tspan></text>
  </g>
</svg>