<?xml version="1.0" encoding="UTF-8"?>
<svg xmlns="http://www.w3.org/2000/svg" width="375" height="2442.1189" viewBox="0 0 375 2442.1189">
  <g id="bg-5" data-name="bg">
    <polygon points="375 2553.9387 0 2553.1133 0 0 375 .8253 375 2553.9387" fill="#01c0d2"/>
  </g>
  <g id="anchor_read_001-9" data-name="anchor_read_001">
    <circle cx="62.3383" cy="147.1585" r="10" fill="#01c0d2"/>
  </g>
  <g id="anchor_quiz_001-9" data-name="anchor_quiz_001">
    <circle cx="187.5" cy="325.3037" r="10" fill="#01c0d2"/>
  </g>
  <g id="anchor_read_002-9" data-name="anchor_read_002">
    <circle cx="310.4309" cy="503.449" r="10" fill="#01c0d2"/>
  </g>
  <g id="anchor_quiz_002-9" data-name="anchor_quiz_002">
    <circle cx="187.5" cy="681.5943" r="10" fill="#01c0d2"/>
  </g>
  <g id="anchor_read_003-9" data-name="anchor_read_003">
    <circle cx="72.3383" cy="859.7395" r="10" fill="#01c0d2"/>
  </g>
  <g id="anchor_quiz_003-9" data-name="anchor_quiz_003">
    <circle cx="187.5" cy="1037.8848" r="10" fill="#01c0d2"/>
  </g>
  <g id="anchor_read_004-8" data-name="anchor_read_004">
    <circle cx="316.9339" cy="1216.03" r="10" fill="#01c0d2"/>
  </g>
  <g id="anchor_quiz_004-9" data-name="anchor_quiz_004">
    <circle cx="189.6361" cy="1394.1753" r="10" fill="#01c0d2"/>
  </g>
  <g id="anchor_read_005-8" data-name="anchor_read_005">
    <circle cx="72.3383" cy="1572.3206" r="10" fill="#01c0d2"/>
  </g>
  <g id="anchor_quiz_005-8" data-name="anchor_quiz_005">
    <circle cx="185.2535" cy="1750.4658" r="10" fill="#01c0d2"/>
  </g>
  <g id="anchor_read_006-5" data-name="anchor_read_006">
    <circle cx="317.0816" cy="1928.6111" r="10" fill="#01c0d2"/>
  </g>
  <g id="anchor_quiz_006-8" data-name="anchor_quiz_006">
    <circle cx="199.656" cy="2106.7564" r="10" fill="#01c0d2"/>
  </g>
  <g id="anchor_quiz_007-5" data-name="anchor_quiz_007">
    <circle cx="194.5983" cy="2284.9016" r="10" fill="#01c0d2"/>
  </g>
  <g id="text_Instrument_o_Utrustning">
    <text transform="translate(40.1362 78.2419)" fill="#0183e1" font-family="MyriadPro-Regular, &apos;Myriad Pro&apos;" font-size="25.6936"><tspan x="0" y="0" letter-spacing=".01em">I</tspan><tspan x="6.3975" y="0">nstrume</tspan><tspan x="96.1958" y="0" letter-spacing="-.004em">n</tspan><tspan x="110.353" y="0">t &amp; </tspan><tspan x="145.2959" y="0" letter-spacing=".004em">U</tspan><tspan x="162.0215" y="0">trustning</tspan></text>
  </g>
</svg>