<?xml version="1.0" encoding="UTF-8"?>
<svg xmlns="http://www.w3.org/2000/svg" width="375" height="5200" viewBox="0 0 375 5200">
  <g id="anchor_bg">
    <rect width="375" height="5200" fill="#0183e1"/>
  </g>
  <g id="anchor_read_001">
    <circle cx="190.2955" cy="359.8147" r="10" fill="#b0d339"/>
  </g>
  <g id="anchor_quiz_001">
    <circle cx="254.8317" cy="597.4961" r="10" fill="#b0d339"/>
  </g>
  <g id="anchor_read_002">
    <circle cx="154.632" cy="835.1775" r="10" fill="#b0d339"/>
  </g>
  <g id="anchor_quiz_002">
    <circle cx="119.8258" cy="1118.2378" r="10" fill="#b0d339"/>
  </g>
  <g id="anchor_read_003">
    <circle cx="210.8901" cy="1355.9192" r="10" fill="#b0d339"/>
  </g>
  <g id="anchor_quiz_003">
    <circle cx="283.1377" cy="1593.6006" r="10" fill="#b0d339"/>
  </g>
  <g id="anchor_read_004">
    <circle cx="185.2266" cy="1831.2821" r="10" fill="#b0d339"/>
  </g>
  <g id="anchor_quiz_004">
    <circle cx="119.9572" cy="2068.9635" r="10" fill="#b0d339"/>
  </g>
  <g id="anchor_read_005">
    <circle cx="210.8901" cy="2306.6449" r="10" fill="#b0d339"/>
  </g>
  <g id="anchor_quiz_005">
    <circle cx="275.4253" cy="2544.3263" r="10" fill="#b0d339"/>
  </g>
  <g id="anchor_read_006">
    <circle cx="109.2726" cy="2782.0078" r="10" fill="#b0d339"/>
  </g>
  <g id="anchor_quiz_006">
    <circle cx="176.4876" cy="3019.6892" r="10" fill="#b0d339"/>
  </g>
  <g id="anchor_read_007">
    <circle cx="267.1361" cy="3257.3706" r="10" fill="#b0d339"/>
  </g>
  <g id="anchor_quiz_007">
    <circle cx="176.4876" cy="3495.052" r="10" fill="#b0d339"/>
  </g>
  <g id="anchor_read_008">
    <circle cx="109.8258" cy="3732.7335" r="10" fill="#b0d339"/>
  </g>
  <g id="anchor_quiz_008">
    <circle cx="175.2266" cy="3970.4149" r="10" fill="#b0d339"/>
  </g>
  <g id="anchor_read_009">
    <circle cx="304.4725" cy="4208.0963" r="10" fill="#b0d339"/>
  </g>
  <g id="anchor_quiz_009">
    <circle cx="119.3014" cy="4445.7777" r="10" fill="#b0d339"/>
  </g>
  <g id="anchor_chapter_test_01">
    <circle cx="160.7457" cy="837.8985" r="10" fill="#e20caa"/>
  </g>
  <g id="anchor_chapter_test_02">
    <circle cx="216.735" cy="1358.2375" r="10" fill="#e20caa"/>
  </g>
  <g id="anchor_chapter_test_03">
    <circle cx="187.2394" cy="1834.2677" r="10" fill="#e20caa"/>
  </g>
  <g id="anchor_chapter_test_04">
    <circle cx="216.735" cy="2307.9952" r="10" fill="#e20caa"/>
  </g>
  <g id="anchor_chapter_test_05">
    <circle cx="116.45" cy="2797.6218" r="10" fill="#e20caa"/>
  </g>
  <g id="anchor_chapter_test_06">
    <circle cx="277.1691" cy="3258.9041" r="10" fill="#e20caa"/>
  </g>
  <g id="anchor_chapter_test_07">
    <circle cx="113.5004" cy="3735.5812" r="10" fill="#e20caa"/>
  </g>
  <g id="anchor_chapter_test_08">
    <circle cx="304.8158" cy="4207.5104" r="10" fill="#e20caa"/>
  </g>
  <g id="anchor_chapter_test_09">
    <circle cx="188.7519" cy="4860.0208" r="10" fill="#e20caa"/>
  </g>
  <g id="deco_01">
    <path d="M324.1716,582.1498c-4.865-47.6766-71.0284-62.2714-86.1097-80.2718-15.0814-18.0003-18.9733-40.3792-9.7299-66.1634s50.5956-33.5682,32.1087-101.1911c-18.4868-67.6229-95.3531-49.6226-95.3531-49.6226-75.8933,26.7573-51.076,90.1769-40.3791,113.3535,11.6758,25.2977,38.9196,33.0817,55.947,40.3792,17.0273,7.2974,38.4332,50.109,31.6223,69.5688-6.811,19.4598-34.0547,54.4875-41.8386,74.4338-7.7839,19.9463,2.4324,54.001,18.0003,71.0283,6.6144,7.2345,68.5283,25.0162,77.8393,20.9193,36.4872-16.0543,62.7579-44.7576,57.893-92.4341Z" fill="#fff"/>
  </g>
  <g id="deco_02">
    <path d="M69.7344,1185.4044c25.6386,11.3656,98.2626,14.4186,100.1263,13.778.0306-.5383.0605-1.0691.0918-1.6155,1.946-34.0548,37.9467-44.7577,35.5142-90.9749-2.4325-46.217-38.9196-54.001-54.4875-79.2987-15.5679-25.2978-3.4055-99.2451,17.0273-110.4345s49.6226-30.6492,69.5688-55.947c17.5577-22.2683-21.4645-103.8679-24.6302-104.8109-13.4827-4.0166-53.2665-8.6728-61.4794-7.5696-32.5952,4.3784-47.1901,25.7842-66.1635,41.3521s-26.2708,50.5955-.4865,86.5962c25.7842,36.0007,29.1897,53.5145,33.0817,78.8123s-10.2164,60.812-25.7842,74.4338c-15.5679,13.6218-41.8386,39.8926-58.866,60.812-17.0273,20.9192-10.7029,73.9473,36.4872,94.8666Z" fill="#fff"/>
  </g>
  <g id="deco_03">
    <path d="M166.0605,1432.5442c20.9193,11.6759,55.4605,34.5413,66.1634,56.9199,10.7029,22.3789-37.9467,37.9468-55.4605,57.8931s-6.8109,67.1364,7.7839,80.2717c9.9248,8.9324,53.6616,41.9219,63.744,44.7449,15.1045-15.5542,79.773-14.1138,82.6912-79.7725,2.919-65.677-48.1631-72.9744-65.6769-87.5693-17.5139-14.5947-23.3518-25.2977-18.4869-55.947,4.865-30.6492,55.947-68.1094,43.7846-111.4075-11.2975-40.2192-100.6486-69.949-104.777-67.8884-7.4265,3.7064-14.7307,7.6514-22.1452,11.3811-4.8278,2.4287-38.8391,62.2347-38.4863,87.6431.4865,35.0277,19.9464,52.0551,40.8657,63.731Z" fill="#fff"/>
  </g>
  <g id="deco_04">
    <path d="M114.7939,2163.2593c13.8438-6.2925,27.6875-12.5852,41.5312-18.8777,4.1531-2.2393,8.5196-3.6045,13.0978-4.1018,7.1775-21.5662,25.4992-19.978,33.1248-50.48,8.7569-35.0278-10.7029-64.704-28.2167-87.0828-17.5139-22.3788-11.1895-54.001,16.0543-84.1638,27.2438-30.1626,60.3254,1.946,82.2178-56.4333,21.5461-57.4565-24.2938-91.8225-33.633-118.4028-.0161-.0051-.0322-.0088-.0483-.0139-4.5543-1.5112-9.1741-2.8096-13.8058-4.0598-8.1902-2.2107-16.4343-4.285-24.4264-7.155-3.8024-1.3655-7.5761-2.8575-11.296-4.4685-5.9873,4.0686-12.668,8.2109-19.9276,12.9626-26.7573,17.5139-44.2711,36.4872-55.947,62.2715-11.6759,25.7842,6.3244,68.1094,18.9733,87.0826,12.6489,18.9733,1.4595,52.0551-8.757,77.8392-10.2164,25.7844-44.2711,31.1357-66.1634,51.0822-21.8923,19.9463-15.0814,54.4874-5.838,93.8937,9.101,38.7986,48.3851,39.8684,63.0598,50.1077Z" fill="#fff"/>
  </g>
  <g id="deco_05">
    <path d="M183.0879,2385.5891c21.4058,6.3245,42.8116,37.9465,48.6495,57.8928,5.838,19.9465-2.4324,42.8118-18.4868,59.3525-16.0543,16.541-21.8923,53.5146-9.7299,75.407,11.3481,20.4265,12.5282,36.197,5.9178,59.1609,3.823,7.8801,7.9768,15.604,12.7577,22.9365,20.1834-25.8752,52.8794-27.6233,86.4075-38.7993,36.4872-12.1626,47.1901-62.7581,43.2981-96.3262-3.892-33.5684-32.5952-46.217-55.4605-64.7039-22.8653-18.4871-31.1357-34.5413-37.4601-72.9744s34.5412-43.7847,30.6492-97.7856-65.6769-69.0825-94.8666-78.8123c-2.6972-.8992-5.163-1.8489-7.4194-2.8577-13.7872,6.2671-27.5743,12.5339-41.3615,18.8008-1.992,1.0742-4.0344,1.9414-6.1242,2.6147-4.9653,28.7944-18.7775,64.5869-21.9612,91.8765-3.4055,29.1899,43.7846,57.8931,65.1904,64.2175Z" fill="#fff"/>
  </g>
  <g id="deco_06">
    <path d="M106.7081,2881.3281c18.0004,22.8652,16.0544,72.9744.4865,96.3262s-9.2434,64.7039,3.4055,99.7314c12.6489,35.0278,54.001,27.2439,80.2718,30.6494,4.1839.5422,7.7608,2.2239,10.8062,4.7693,2.4322-1.6577,4.9077-3.2544,7.4595-4.7544,4.0487-2.3796,8.2043-4.5732,12.411-6.6592,5.5753-2.7646,11.2433-5.3313,16.9071-7.9075.2863-.9775.642-1.8096,1.0657-2.4756,6.811-10.7029,28.2167-52.0552,12.6489-95.8398-15.5679-43.7844-42.3251-43.2979-70.5419-58.3794-28.2167-15.0813-34.5412-46.217-35.0277-71.5146-.4865-25.2979,37.9467-19.46,46.2171-57.8931,8.2704-38.4331-8.2704-44.2712-13.6219-70.542-1.2751-6.2593-.8784-11.5747.7067-16.4956-.8546-.8901-1.6948-1.7944-2.5194-2.7134-4.9162-5.4778-9.1835-11.4744-13.5099-17.4194-2.4854-3.4153-4.8062-6.949-6.9919-10.563-.8865-1.4658-1.7342-2.9539-2.5782-4.4438-22.2852,4.2244-41.7388-4.0493-83.5958,21.959-50.1091,31.1357-39.4061,67.623-37.4601,102.1641,1.946,34.5413,55.4605,49.1362,73.4608,72.0015Z" fill="#fff"/>
  </g>
  <g id="deco_07">
    <path d="M121.3029,3564.3679c4.5538,3.9963,7.3269,8.6685,8.5505,13.7461,15.6675,3.1016,31.5541,5.0276,47.2343,8.0378,3.6317-3.8066,7.5173-7.0654,11.3516-9.6216,20.4328-13.6218,61.785-16.5408,80.2718-57.8928,18.4868-41.3523-14.1084-57.4065-29.1898-110.4346s45.2441-73.4607,56.92-75.4067,52.0551-8.2705,57.893-71.0286c5.838-62.7578-38.9197-78.3257-74.9203-92.4341-5.8209-2.2812-10.9763-5.5967-15.5073-9.5908-9.5074,4.4187-18.9125,9.1221-27.6195,14.96-3.1002,2.5176-6.0469,5.2166-8.7686,8.1492-3.6868,3.5383-7.8882,6.1384-12.5865,7.8318-4.5345,22.4263-15.9716,23.3823-26.9793,55.0298-11.6758,33.5681-4.8649,54.4875,11.1894,72.0015,16.0544,17.5137,9.2435,53.5144,2.4325,67.6228-6.8109,14.1084-28.2167,16.0544-59.8389,20.4329-31.6223,4.3784-48.6496,54.9739-54.001,80.2717-5.3514,25.2976,9.7299,57.4065,33.5682,78.3257Z" fill="#fff"/>
  </g>
  <g id="deco_08">
    <path d="M84.8158,3814.9131c11.1894,2.4326,39.4061,45.7307,37.9467,72.9746-1.4595,27.2437-18.4869,56.9199-26.2708,71.5146-7.7839,14.595-2.9189,48.6497,25.7843,72.0015,20.1224,16.3708,45.9708,27.2378,63.3222,34.9565,4.0486-3.0789,8.2245-5.9934,12.4208-8.8032,11.437-7.6582,23.7192-13.7603,36.2329-19.4019,5.3508-19.8594,22.0193-35.3792,19.8644-61.239-2.919-35.0276-3.892-53.5144-58.866-77.8394-54.9741-24.3247-47.6766-47.1899-41.8386-84.6501,5.8379-37.4602,37.9467-17.0273,54.974-65.1904,16.3234-46.1719-13.8504-63.7312-36.5184-91.6782-.0325-.0103-.0649-.0176-.0974-.0278-5.9612-1.4829-11.9803-2.7136-18.0249-3.8042-21.348-3.8513-43.0475-6.0876-63.9003-12.312-1.2204-.3474-2.398-.7668-3.5519-1.2261-2.5258,1.3962-5.1283,2.7222-7.8014,3.9653-41.8386,19.4597-54.4875,53.5144-57.893,100.218-3.4055,46.7036,53.028,68.1094,64.2175,70.5417Z" fill="#fff"/>
  </g>
  <g id="deco_09">
    <path d="M364.0643,4182.2173c-2.919-29.1895-47.6766-57.8931-82.2178-65.1904-11.8464-2.5029-20.1436-5.8647-26.2877-10.5552-8.5648,4.2466-16.9157,8.8936-24.8023,14.2915-2.31,1.833-4.5515,3.7495-6.7186,5.7524,3.4454,13.6436,5.293,26.2227,3.8075,32.3501-3.892,16.0542-20.4328,42.8115-10.7029,77.8394,9.7299,35.0273.4865,44.7573-7.2974,64.7036s-42.8116,36.001-65.6769,46.7036c-22.8653,10.7031-71.0283,30.6494-71.0283,30.6494-38.4332,16.0542-60.3255,84.1636-20.9193,133.7861,39.4061,49.6226,108.975,22.8652,127.9483.9731s22.3788-74.9204,18.9733-112.3804c-3.4055-37.4604,27.2438-60.812,43.2982-86.5962,16.0543-25.7847,48.6495-19.9468,90.0016-40.3794,41.3522-20.4326,34.5412-62.7578,31.6223-91.9478Z" fill="#fff"/>
  </g>
  <g id="level_001">
    <g>
      <rect x="262.0227" y="128.3895" width="6.8444" height="13.3777" fill="#fc5508"/>
      <path d="M264.1346,85.4068l-20.4519,43.5069c-.6235,1.3264.3443,2.8508,1.81,2.8508h40.532c1.4596,0,2.4276-1.5129,1.8159-2.8381l-20.0801-43.5069c-.7122-1.5432-2.9028-1.5509-3.6259-.0127Z" fill="#fc5508"/>
      <rect x="113.1295" y="127.8421" width="6.8444" height="13.3777" fill="#b0d339"/>
      <path d="M115.2415,84.8594l-20.4519,43.5069c-.6235,1.3264.3443,2.8508,1.81,2.8508h40.532c1.4596,0,2.4276-1.5129,1.8159-2.8381l-20.0801-43.5069c-.7122-1.5432-2.9028-1.5509-3.6259-.0127Z" fill="#b0d339"/>
    </g>
  </g>
  <g id="level_002">
    <g>
      <rect x="292.6644" y="1487.3511" width="6.8444" height="13.3777" fill="#fc5508"/>
      <path d="M294.7764,1444.3684l-20.4519,43.5069c-.6235,1.3264.3443,2.8508,1.81,2.8508h40.532c1.4596,0,2.4276-1.5129,1.8159-2.8381l-20.0801-43.5069c-.7122-1.5432-2.9028-1.5509-3.6259-.0127Z" fill="#fc5508"/>
      <rect x="143.7713" y="1486.8038" width="6.8444" height="13.3777" fill="#b0d339"/>
      <path d="M145.8832,1443.8211l-20.4519,43.5069c-.6235,1.3264.3443,2.8508,1.81,2.8508h40.532c1.4596,0,2.4276-1.5129,1.8159-2.8381l-20.0801-43.5069c-.7122-1.5432-2.9028-1.5509-3.6259-.0127Z" fill="#b0d339"/>
    </g>
  </g>
</svg>