<?xml version="1.0" encoding="UTF-8"?>
<svg xmlns="http://www.w3.org/2000/svg" width="375" height="2160.4488" viewBox="0 0 375 2160.4488">
  <g id="bg-11" data-name="bg">
    <polygon points="375 2222.4847 0 2221.7664 0 0 375 .7182 375 2222.4847" fill="#01c0d2"/>
  </g>
  <g id="anchor_001">
    <circle cx="62.3383" cy="147.1585" r="10" fill="#01c0d2"/>
  </g>
  <g id="anchor_002">
    <circle cx="187.5" cy="303.5185" r="10" fill="#01c0d2"/>
  </g>
  <g id="anchor_003">
    <circle cx="310.4309" cy="459.8785" r="10" fill="#01c0d2"/>
  </g>
  <g id="anchor_004">
    <circle cx="187.5" cy="616.2385" r="10" fill="#01c0d2"/>
  </g>
  <g id="anchor_005">
    <circle cx="72.3383" cy="772.5985" r="10" fill="#01c0d2"/>
  </g>
  <g id="anchor_006">
    <circle cx="187.5" cy="928.9585" r="10" fill="#01c0d2"/>
  </g>
  <g id="anchor_007">
    <circle cx="316.9339" cy="1085.3186" r="10" fill="#01c0d2"/>
  </g>
  <g id="anchor_008">
    <circle cx="189.6361" cy="1241.6786" r="10" fill="#01c0d2"/>
  </g>
  <g id="anchor_009">
    <circle cx="72.3383" cy="1398.0386" r="10" fill="#01c0d2"/>
  </g>
  <g id="anchor_010">
    <circle cx="185.2535" cy="1554.3986" r="10" fill="#01c0d2"/>
  </g>
  <g id="anchor_011">
    <circle cx="317.0816" cy="1710.7586" r="10" fill="#01c0d2"/>
  </g>
  <g id="anchor_012">
    <circle cx="199.656" cy="1867.1186" r="10" fill="#01c0d2"/>
  </g>
  <g id="anchor_013">
    <circle cx="194.6673" cy="2023.4787" r="10" fill="#01c0d2"/>
  </g>
  <g id="meny">
    <text transform="translate(40.1343 78.2419)" fill="#0183e1" font-family="MyriadPro-Regular, &apos;Myriad Pro&apos;" font-size="25.6936"><tspan x="0" y="0">N</tspan><tspan x="16.9062" y="0" letter-spacing="-.004em">a</tspan><tspan x="29.1875" y="0">tur och ans</tspan><tspan x="147.8389" y="0" letter-spacing="-.004em">v</tspan><tspan x="160.0947" y="0">ar</tspan></text>
  </g>
</svg>