<?xml version="1.0" encoding="UTF-8"?>
<svg xmlns="http://www.w3.org/2000/svg" viewBox="0 0 375 4608">
  <g id="path">
    <path d="M125,162.34c0,93.24,128,162.76,128,256s-128,162.76-128,256,128,162.76,128,256-128,162.76-128,256,128,162.76,128,256-128,162.76-128,256,128,162.76,128,256-128,162.76-128,256,128,162.76,128,256-128,162.76-128,256,128,162.76,128,256-128,162.76-128,256,128,162.76,128,256-128,162.76-128,256,128,162.76,128,256-128,162.76-128,256" style="fill: none; stroke: #000; stroke-width: 8px;"/>
  </g>
  <g id="anchor_read_001">
    <circle cx="125" cy="162.34" r="8.06" style="fill: #dd17dd;"/>
  </g>
  <g id="anchor_quiz_001">
    <circle cx="189" cy="290.34" r="8.06" style="fill: #dd17dd;"/>
  </g>
  <g id="anchor_read_002">
    <circle cx="253" cy="418.34" r="8.06" style="fill: #dd17dd;"/>
  </g>
  <g id="anchor_chapter_test_01">
    <circle cx="253" cy="418.34" r="8.06" style="fill: #dd17dd;"/>
  </g>
  <g id="anchor_quiz_002">
    <circle cx="189" cy="546.34" r="8.06" style="fill: #dd17dd;"/>
  </g>
  <g id="anchor_read_003">
    <circle cx="125" cy="674.34" r="8.06" style="fill: #dd17dd;"/>
  </g>
  <g id="anchor_chapter_test_02">
    <circle cx="125" cy="674.34" r="8.06" style="fill: #dd17dd;"/>
  </g>
  <g id="anchor_quiz_003">
    <circle cx="189.31" cy="802.34" r="9.08" style="fill: #dd17dd;"/>
  </g>
  <g id="anchor_read_004">
    <circle cx="253" cy="930.34" r="8.06" style="fill: #dd17dd;"/>
  </g>
  <g id="anchor_chapter_test_03">
    <circle cx="253" cy="930.34" r="8.06" style="fill: #dd17dd;"/>
  </g>
  <g id="anchor_quiz_004">
    <circle cx="189.08" cy="1058.34" r="8.06" style="fill: #dd17dd;"/>
  </g>
  <g id="anchor_read_005">
    <circle cx="125" cy="1186.34" r="8.06" style="fill: #dd17dd;"/>
  </g>
  <g id="anchor_chapter_test_04">
    <circle cx="125" cy="1186.34" r="8.06" style="fill: #dd17dd;"/>
  </g>
  <g id="anchor_quiz_005">
    <circle cx="188.91" cy="1314.34" r="9.36" style="fill: #dd17dd;"/>
  </g>
  <g id="anchor_read_006">
    <circle cx="253" cy="1442.34" r="8.06" style="fill: #dd17dd;"/>
  </g>
  <g id="anchor_chapter_test_05">
    <circle cx="253" cy="1442.34" r="8.06" style="fill: #dd17dd;"/>
  </g>
  <g id="anchor_quiz_006">
    <circle cx="189.35" cy="1570.34" r="8.76" style="fill: #dd17dd;"/>
  </g>
  <g id="anchor_read_007">
    <circle cx="125" cy="1698.34" r="8.06" style="fill: #dd17dd;"/>
  </g>
  <g id="anchor_chapter_test_06">
    <circle cx="125" cy="1698.34" r="8.06" style="fill: #dd17dd;"/>
  </g>
  <g id="anchor_quiz_007">
    <circle cx="188.85" cy="1826.34" r="8.06" style="fill: #dd17dd;"/>
  </g>
  <g id="anchor_read_008">
    <circle cx="253" cy="1954.34" r="8.06" style="fill: #dd17dd;"/>
  </g>
  <g id="anchor_chapter_test_07">
    <circle cx="253" cy="1954.34" r="8.06" style="fill: #dd17dd;"/>
  </g>
  <g id="anchor_quiz_008">
    <circle cx="189.06" cy="2083.34" r="8.53" style="fill: #dd17dd;"/>
  </g>
  <g id="anchor_read_009">
    <circle cx="125" cy="2210.34" r="8.06" style="fill: #dd17dd;"/>
  </g>
  <g id="anchor_chapter_test_08">
    <circle cx="125" cy="2210.34" r="8.06" style="fill: #dd17dd;"/>
  </g>
  <g id="anchor_quiz_009">
    <circle cx="189" cy="2338.37" r="8.06" style="fill: #dd17dd;"/>
  </g>
  <g id="anchor_chapter_test_09">
    <circle cx="253" cy="2466.34" r="10" style="fill: #e20caa;"/>
  </g>
</svg>