<?xml version="1.0" encoding="UTF-8"?>
<svg xmlns="http://www.w3.org/2000/svg" width="375" height="2209.2403" viewBox="0 0 375 2209.2403">
  <g id="bg-2" data-name="bg">
    <polygon points="375 2279.509 0 2278.7724 0 0 375 .7366 375 2279.509" fill="#01c0d2"/>
  </g>
  <g id="anchor_read_001-6" data-name="anchor_read_001">
    <circle cx="316.9524" cy="172.1786" r="10" fill="#01c0d2"/>
  </g>
  <g id="anchor_quiz_001-6" data-name="anchor_quiz_001">
    <circle cx="62.211" cy="363.5036" r="10" fill="#01c0d2"/>
  </g>
  <g id="anchor_read_002-6" data-name="anchor_read_002">
    <circle cx="175.2535" cy="554.8286" r="10" fill="#01c0d2"/>
  </g>
  <g id="anchor_quiz_002-6" data-name="anchor_quiz_002">
    <circle cx="316.9524" cy="746.1536" r="10" fill="#01c0d2"/>
  </g>
  <g id="anchor_read_003-6" data-name="anchor_read_003">
    <circle cx="219.656" cy="937.4786" r="10" fill="#01c0d2"/>
  </g>
  <g id="anchor_quiz_003-6" data-name="anchor_quiz_003">
    <circle cx="72.211" cy="1128.8036" r="10" fill="#01c0d2"/>
  </g>
  <g id="anchor_read_004-5" data-name="anchor_read_004">
    <circle cx="165.2535" cy="1320.1286" r="10" fill="#01c0d2"/>
  </g>
  <g id="anchor_quiz_004-6" data-name="anchor_quiz_004">
    <circle cx="317.2407" cy="1511.4536" r="10" fill="#01c0d2"/>
  </g>
  <g id="anchor_read_005-5" data-name="anchor_read_005">
    <circle cx="209.656" cy="1702.7786" r="10" fill="#01c0d2"/>
  </g>
  <g id="anchor_quiz_005-5" data-name="anchor_quiz_005">
    <circle cx="72.3425" cy="1894.1036" r="10" fill="#01c0d2"/>
  </g>
  <g id="anchor_quiz_006-5" data-name="anchor_quiz_006">
    <circle cx="192.5804" cy="2085.4286" r="10" fill="#01c0d2"/>
  </g>
  <g id="text_Trafikregler_till_Sjoss">
    <text transform="translate(86.3419 83.6123)" fill="#0183e1" font-family="MyriadPro-Regular, &apos;Myriad Pro&apos;" font-size="22.3145"><tspan x="0" y="0" letter-spacing="-.045em">T</tspan><tspan x="10.0859" y="0" letter-spacing="-.005em">r</tspan><tspan x="17.2715" y="0">afi</tspan><tspan x="39.6973" y="0" letter-spacing=".017em">k</tspan><tspan x="50.542" y="0" letter-spacing="-.01em">r</tspan><tspan x="57.6157" y="0">egler till </tspan><tspan x="137.6113" y="0" letter-spacing="-.004em">S</tspan><tspan x="148.5225" y="0" letter-spacing="0em">jöss</tspan></text>
  </g>
</svg>