<?xml version="1.0" encoding="UTF-8"?>
<svg xmlns="http://www.w3.org/2000/svg" viewBox="0 0 375 1250">
  <defs>
    <style>
      .cls-1 {
        letter-spacing: 0em;
      }

      .cls-2 {
        letter-spacing: 0em;
      }

      .cls-3, .cls-4 {
        fill: #fff;
      }

      .cls-5 {
        letter-spacing: .02em;
      }

      .cls-6 {
        stroke: #0183e1;
      }

      .cls-6, .cls-7 {
        fill: none;
        stroke-miterlimit: 10;
        stroke-width: 3px;
      }

      .cls-7 {
        stroke: #fff;
      }

      .cls-8 {
        letter-spacing: 0em;
      }

      .cls-4 {
        font-family: MyriadPro-Regular, 'Myriad Pro';
        font-size: 9.62px;
      }

      .cls-9 {
        letter-spacing: .02em;
      }

      .cls-10 {
        letter-spacing: 0em;
      }

      .cls-11 {
        letter-spacing: 0em;
      }

      .cls-12 {
        fill: #01c0d2;
      }
    </style>
  </defs>
  <g id="anchor_bg">
    <polygon class="cls-12" points="377.16 1250.3 2.16 1249.9 2.16 .3 377.16 .7 377.16 1250.3"/>
  </g>
  <g id="path">
    <path class="cls-6" d="M64.88,147.11c57.16,24.99,114.32,49.99,171.48,74.98,22.29,9.75,44.75,19.59,64.6,33.64,5.09,3.6,10.25,7.81,12.25,13.72,4.87,14.34-10.7,26.85-24.29,33.53-58.06,28.55-120.88,45.79-182.85,64.39-19.44,5.84-40.5,13.06-51.17,30.33,41.48,17.83,79.83,42.89,112.81,73.71,12.53,11.71,25.05,24.71,41.51,29.54,13.82,4.06,28.56,1.78,42.95,1.07,25.08-1.24,50.4,2.46,74.08,10.81,13.61,4.8,29.05,15.37,26.35,29.55-1.99,10.48-12.99,16.29-22.74,20.6-21.32,9.43-42.63,18.86-63.95,28.28-21.74,9.61-43.97,19.56-60.99,36.15-7.33,7.15-13.55,15.4-21.12,22.28-14.55,13.23-33.28,20.74-51.57,27.98-21.99,8.7-43.99,17.41-65.98,26.11-2.29.91-4.79,2.01-5.78,4.26-2.02,4.56,3.48,8.68,8.04,10.68,21.7,9.48,43.4,18.96,65.1,28.44,15.37,6.71,32.51,15.41,36.79,31.62,1.5,5.68,1.22,11.88,3.82,17.16,4.22,8.6,14.46,12.03,23.62,14.82,44.21,13.48,87.12,31.21,127.94,52.88,3.75,1.99,7.75,4.28,9.45,8.18,2.76,6.3-2.04,13.72-8.2,16.77-6.16,3.05-13.3,3.14-20.09,4.22-15.77,2.52-30.02,10.58-43.89,18.5-23.53,13.44-47.05,26.87-70.58,40.31"/>
  </g>
  <g id="anchor_read_001">
    <circle class="cls-3" cx="62.34" cy="147.16" r="10"/>
  </g>
  <g id="anchor_quiz_001">
    <circle class="cls-3" cx="187.5" cy="205.99" r="10"/>
  </g>
  <g id="anchor_read_002">
    <circle class="cls-3" cx="310.43" cy="278.09" r="10"/>
  </g>
  <g id="anchor_quiz_002">
    <circle class="cls-3" cx="187.5" cy="343.75" r="10"/>
  </g>
  <g id="anchor_read_003">
    <circle class="cls-3" cx="72.34" cy="407.5" r="10"/>
  </g>
  <g id="anchor_quiz_003">
    <circle class="cls-3" cx="187.5" cy="488.7" r="10"/>
  </g>
  <g id="anchor_read_004">
    <circle class="cls-3" cx="316.93" cy="569.73" r="10"/>
  </g>
  <g id="anchor_quiz_004">
    <circle class="cls-3" cx="189.64" cy="655.26" r="10"/>
  </g>
  <g id="anchor_read_005">
    <circle class="cls-3" cx="72.34" cy="722.79" r="10"/>
  </g>
  <g id="anchor_quiz_005">
    <circle class="cls-3" cx="185.25" cy="810.12" r="10"/>
  </g>
  <g id="anchor_quiz_006">
    <circle class="cls-3" cx="188.86" cy="1003.6" r="10"/>
    <rect class="cls-7" x="28.03" y="954.98" width="318.93" height="97.24" rx="10" ry="10"/>
  </g>
  <g id="text_Kartunderlag_Koordinater">
    <text class="cls-4" transform="translate(240.83 20.74)"><tspan class="cls-9" x="0" y="0">K</tspan><tspan x="5.37" y="0">a</tspan><tspan class="cls-5" x="10.01" y="0">r</tspan><tspan x="13.38" y="0">tunde</tspan><tspan class="cls-2" x="37.45" y="0">r</tspan><tspan x="40.64" y="0">lag &amp; Koo</tspan><tspan class="cls-1" x="78.6" y="0">r</tspan><tspan x="81.65" y="0">din</tspan><tspan class="cls-10" x="94.67" y="0">a</tspan><tspan class="cls-11" x="99.27" y="0">t</tspan><tspan class="cls-8" x="102.4" y="0">er</tspan></text>
  </g>
</svg>