<?xml version="1.0" encoding="UTF-8"?>
<svg xmlns="http://www.w3.org/2000/svg" viewBox="0 0 375 960">
  <defs>
    <style>
      .cls-1 {
        letter-spacing: -.03em;
      }

      .cls-2 {
        fill: #8ae7d4;
      }

      .cls-3 {
        fill: #fff;
      }

      .cls-4 {
        letter-spacing: 0em;
      }

      .cls-5 {
        fill: #0183e1;
        font-family: MyriadPro-Regular, 'Myriad Pro';
        font-size: 25.69px;
      }

      .cls-6 {
        letter-spacing: 0em;
      }

      .cls-7 {
        letter-spacing: 0em;
      }

      .cls-8 {
        fill: none;
        stroke: #fff;
        stroke-miterlimit: 10;
        stroke-width: 3px;
      }
    </style>
  </defs>
  <g id="bg-10" data-name="bg">
    <rect class="cls-2" x="0" y="2.45" width="375" height="959.69"/>
  </g>
  <g id="path-10" data-name="path">
    <path class="cls-8" d="M62.75,154.39c-12.18,107.44,250.44-4.57,248.16,118.83-2.54,137.08-239.02,3.07-239.02,137.04s245.05,28.92,245.05,159.47c0,172-244.22,6.98-244.22,158.46"/>
    <rect class="cls-8" x="28.83" y="728.24" width="318.93" height="97.24" rx="10" ry="10"/>
  </g>
  <g id="anchor_read_001-13" data-name="anchor_read_001">
    <circle class="cls-3" cx="62.34" cy="147.16" r="10"/>
  </g>
  <g id="anchor_quiz_001-13" data-name="anchor_quiz_001">
    <circle class="cls-3" cx="187.5" cy="205.99" r="10"/>
  </g>
  <g id="anchor_read_002-13" data-name="anchor_read_002">
    <circle class="cls-3" cx="310.43" cy="278.09" r="10"/>
  </g>
  <g id="anchor_quiz_002-13" data-name="anchor_quiz_002">
    <circle class="cls-3" cx="187.5" cy="343.75" r="10"/>
  </g>
  <g id="anchor_read_003-12" data-name="anchor_read_003">
    <circle class="cls-3" cx="72.34" cy="407.5" r="10"/>
  </g>
  <g id="anchor_quiz_003-13" data-name="anchor_quiz_003">
    <circle class="cls-3" cx="187.5" cy="488.7" r="10"/>
  </g>
  <g id="anchor_read_004-12" data-name="anchor_read_004">
    <circle class="cls-3" cx="316.93" cy="569.73" r="10"/>
  </g>
  <g id="anchor_quiz_004-12" data-name="anchor_quiz_004">
    <circle class="cls-3" cx="189.64" cy="655.26" r="10"/>
  </g>
  <g id="anchor_quiz_005-12" data-name="anchor_quiz_005">
    <circle class="cls-3" cx="192.01" cy="776.85" r="10"/>
  </g>
  <g id="text_Forsta_hjalpen_ombord">
    <text class="cls-5" transform="translate(40.14 78.24)"><tspan class="cls-1" x="0" y="0">F</tspan><tspan class="cls-7" x="11.72" y="0">örsta </tspan><tspan class="cls-4" x="70.73" y="0">H</tspan><tspan x="87.69" y="0">jälpen Ombo</tspan><tspan class="cls-6" x="227.44" y="0">r</tspan><tspan x="235.58" y="0">d</tspan></text>
  </g>
</svg>