<?xml version="1.0" encoding="UTF-8"?>
<svg xmlns="http://www.w3.org/2000/svg" width="375" height="3741.2334" viewBox="0 0 375 3741.2334">
  <g id="bg-6" data-name="bg">
    <polygon points="375 3809.8742 0 3808.643 0 0 375 1.2312 375 3809.8742" fill="#01c0d2"/>
  </g>
  <g id="anchor_read_001-10" data-name="anchor_read_001">
    <circle cx="199.656" cy="172.2513" r="10" fill="#01c0d2"/>
  </g>
  <g id="anchor_quiz_001-10" data-name="anchor_quiz_001">
    <circle cx="307.2407" cy="361.7761" r="10" fill="#01c0d2"/>
  </g>
  <g id="anchor_read_002-10" data-name="anchor_read_002">
    <circle cx="163.9925" cy="551.301" r="10" fill="#01c0d2"/>
  </g>
  <g id="anchor_quiz_002-10" data-name="anchor_quiz_002">
    <circle cx="72.211" cy="740.8259" r="10" fill="#01c0d2"/>
  </g>
  <g id="anchor_read_003-10" data-name="anchor_read_003">
    <circle cx="199.656" cy="930.3508" r="10" fill="#01c0d2"/>
  </g>
  <g id="anchor_quiz_003-10" data-name="anchor_quiz_003">
    <circle cx="316.9524" cy="1119.8756" r="10" fill="#01c0d2"/>
  </g>
  <g id="anchor_read_004-9" data-name="anchor_read_004">
    <circle cx="173.9925" cy="1309.4005" r="10" fill="#01c0d2"/>
  </g>
  <g id="anchor_quiz_004-10" data-name="anchor_quiz_004">
    <circle cx="72.3425" cy="1498.9254" r="10" fill="#01c0d2"/>
  </g>
  <g id="anchor_read_005-9" data-name="anchor_read_005">
    <circle cx="199.656" cy="1688.4503" r="10" fill="#01c0d2"/>
  </g>
  <g id="anchor_quiz_005-9" data-name="anchor_quiz_005">
    <circle cx="317.2407" cy="1877.9751" r="10" fill="#01c0d2"/>
  </g>
  <g id="anchor_read_006-6" data-name="anchor_read_006">
    <circle cx="98.0384" cy="2067.5" r="10" fill="#01c0d2"/>
  </g>
  <g id="anchor_quiz_006-9" data-name="anchor_quiz_006">
    <circle cx="165.2535" cy="2257.0249" r="10" fill="#01c0d2"/>
  </g>
  <g id="anchor_read_007-4" data-name="anchor_read_007">
    <circle cx="316.9524" cy="2446.5498" r="10" fill="#01c0d2"/>
  </g>
  <g id="anchor_quiz_007-6" data-name="anchor_quiz_007">
    <circle cx="165.2535" cy="2636.0747" r="10" fill="#01c0d2"/>
  </g>
  <g id="anchor_read_008-2" data-name="anchor_read_008">
    <circle cx="62.211" cy="2825.5995" r="10" fill="#01c0d2"/>
  </g>
  <g id="anchor_quiz_008-3" data-name="anchor_quiz_008">
    <circle cx="163.9925" cy="3015.1244" r="10" fill="#01c0d2"/>
  </g>
  <g id="anchor_read_009-2" data-name="anchor_read_009">
    <circle cx="317.2407" cy="3204.6493" r="10" fill="#01c0d2"/>
  </g>
  <g id="anchor_quiz_009-2" data-name="anchor_quiz_009">
    <circle cx="108.0384" cy="3394.1742" r="10" fill="#01c0d2"/>
  </g>
  <g id="anchor_quiz_010-2" data-name="anchor_quiz_010">
    <circle cx="190.4838" cy="3583.699" r="10" fill="#01c0d2"/>
  </g>
  <g id="text_Batvett_o_Ombordkunskap">
    <text transform="translate(62.3443 84.3136)" fill="#0183e1" font-family="MyriadPro-Regular, &apos;Myriad Pro&apos;" font-size="22.3145"><tspan x="0" y="0">B</tspan><tspan x="12.0942" y="0" letter-spacing="-.004em">å</tspan><tspan x="22.7607" y="0" letter-spacing=".009em">t</tspan><tspan x="30.3472" y="0" letter-spacing="-.01em">v</tspan><tspan x="40.8569" y="0">ett &amp; Ombo</tspan><tspan x="148.7012" y="0" letter-spacing="-.01em">r</tspan><tspan x="155.7754" y="0">d</tspan><tspan x="168.3604" y="0" letter-spacing=".004em">k</tspan><tspan x="178.915" y="0">uns</tspan><tspan x="212.4307" y="0" letter-spacing=".018em">k</tspan><tspan x="223.2979" y="0" letter-spacing="0em">ap</tspan></text>
  </g>
</svg>