<?xml version="1.0" encoding="UTF-8"?>
<svg xmlns="http://www.w3.org/2000/svg" viewBox="0 0 375 1250">
  <defs>
    <style>
      .cls-1 {
        letter-spacing: .02em;
      }

      .cls-2 {
        fill: #0183e1;
        font-family: MyriadPro-Regular, 'Myriad Pro';
        font-size: 25.69px;
      }

      .cls-3 {
        letter-spacing: -.07em;
      }

      .cls-4 {
        fill: #8ae7d4;
      }

      .cls-5 {
        fill: #fff;
      }

      .cls-6 {
        letter-spacing: 0em;
      }

      .cls-7 {
        letter-spacing: 0em;
      }

      .cls-8 {
        letter-spacing: .02em;
      }

      .cls-9 {
        letter-spacing: 0em;
      }

      .cls-10 {
        fill: none;
        stroke: #fff;
        stroke-miterlimit: 10;
        stroke-width: 3px;
      }

      .cls-11 {
        letter-spacing: 0em;
      }

      .cls-12 {
        letter-spacing: 0em;
      }
    </style>
  </defs>
  <g id="bg">
    <polygon class="cls-4" points="375 1250 0 1249.6 0 0 375 .4 375 1250"/>
  </g>
  <g id="path">
    <path class="cls-10" d="M62.75,154.39c-12.18,107.44,250.44-4.57,248.16,118.83-2.54,137.08-239.02,3.07-239.02,137.04s245.05,28.92,245.05,159.47c0,172-244.22,6.98-244.22,158.46,0,0-9.24,99.04,116.93,83.73s126.63,32.41,127.3,74.73-16.5,110.42-119.43,64.82c-69.29-30.69-125.16,61.22-125.16,101.74"/>
    <rect class="cls-10" x="28.83" y="1053.21" width="318.93" height="97.24" rx="10" ry="10"/>
  </g>
  <g id="anchor_read_001">
    <circle class="cls-5" cx="62.34" cy="147.16" r="10"/>
  </g>
  <g id="anchor_quiz_001">
    <circle class="cls-5" cx="187.5" cy="205.99" r="10"/>
  </g>
  <g id="anchor_read_002">
    <circle class="cls-5" cx="310.43" cy="278.09" r="10"/>
  </g>
  <g id="anchor_quiz_002">
    <circle class="cls-5" cx="187.5" cy="343.75" r="10"/>
  </g>
  <g id="anchor_read_003">
    <circle class="cls-5" cx="72.34" cy="407.5" r="10"/>
  </g>
  <g id="anchor_quiz_003">
    <circle class="cls-5" cx="187.5" cy="488.7" r="10"/>
  </g>
  <g id="anchor_read_004">
    <circle class="cls-5" cx="316.93" cy="569.73" r="10"/>
  </g>
  <g id="anchor_quiz_004">
    <circle class="cls-5" cx="189.64" cy="655.26" r="10"/>
  </g>
  <g id="anchor_read_005">
    <circle class="cls-5" cx="72.34" cy="722.79" r="10"/>
  </g>
  <g id="anchor_quiz_005">
    <circle class="cls-5" cx="185.25" cy="810.12" r="10"/>
  </g>
  <g id="anchor_read_006">
    <circle class="cls-5" cx="317.08" cy="887.55" r="10"/>
  </g>
  <g id="anchor_quiz_006">
    <circle class="cls-5" cx="199.66" cy="952.38" r="10"/>
  </g>
  <g id="text_Kartunderlag_Koordinater">
    <text class="cls-2" transform="translate(40.14 1131.97)"><tspan class="cls-1" x="0" y="0">K</tspan><tspan x="14.34" y="0">a</tspan><tspan class="cls-8" x="26.72" y="0">r</tspan><tspan x="35.74" y="0">tunde</tspan><tspan class="cls-12" x="100.02" y="0">r</tspan><tspan x="108.53" y="0">lag &amp; Koo</tspan><tspan class="cls-11" x="209.91" y="0">r</tspan><tspan x="218.06" y="0">din</tspan><tspan class="cls-9" x="252.82" y="0">a</tspan><tspan class="cls-6" x="265.1" y="0">t</tspan><tspan x="273.45" y="0">er</tspan></text>
    <text class="cls-2" transform="translate(164.02 1095.41)"><tspan class="cls-3" x="0" y="0">T</tspan><tspan class="cls-7" x="10.95" y="0">est</tspan></text>
  </g>
</svg>