<?xml version="1.0" encoding="UTF-8"?>
<svg xmlns="http://www.w3.org/2000/svg" viewBox="0 0 375 2400">
  <defs>
    <style>
      .cls-1 {
        letter-spacing: 0em;
      }

      .cls-2 {
        letter-spacing: 0em;
      }

      .cls-3, .cls-4 {
        fill: #fff;
      }

      .cls-5 {
        letter-spacing: .02em;
      }

      .cls-6 {
        fill: none;
        stroke: #fff;
        stroke-miterlimit: 10;
        stroke-width: 3px;
      }

      .cls-7 {
        letter-spacing: 0em;
      }

      .cls-4 {
        font-family: MyriadPro-Regular, 'Myriad Pro';
        font-size: 9.62px;
      }

      .cls-8 {
        letter-spacing: .02em;
      }

      .cls-9 {
        letter-spacing: 0em;
      }

      .cls-10 {
        letter-spacing: 0em;
      }

      .cls-11 {
        fill: #01c0d2;
      }
    </style>
  </defs>
  <g id="anchor_bg">
    <polygon class="cls-11" points="375 2400 0 2399.22 0 0 375 .78 375 2400"/>
  </g>
  <g id="anchor_read_001">
    <circle class="cls-3" cx="62.34" cy="147.16" r="10"/>
  </g>
  <g id="anchor_quiz_001">
    <circle class="cls-3" cx="187.5" cy="350.47" r="10"/>
  </g>
  <g id="anchor_read_002">
    <circle class="cls-3" cx="310.43" cy="553.78" r="10"/>
  </g>
  <g id="anchor_quiz_002">
    <circle class="cls-3" cx="187.5" cy="757.09" r="10"/>
  </g>
  <g id="anchor_read_003">
    <circle class="cls-3" cx="72.34" cy="960.4" r="10"/>
  </g>
  <g id="anchor_quiz_003">
    <circle class="cls-3" cx="187.5" cy="1163.71" r="10"/>
  </g>
  <g id="anchor_read_004">
    <circle class="cls-3" cx="316.93" cy="1367.02" r="10"/>
  </g>
  <g id="anchor_quiz_004">
    <circle class="cls-3" cx="189.64" cy="1570.33" r="10"/>
  </g>
  <g id="anchor_read_005">
    <circle class="cls-3" cx="72.34" cy="1773.64" r="10"/>
  </g>
  <g id="anchor_quiz_005">
    <circle class="cls-3" cx="108.86" cy="1976.95" r="10"/>
  </g>
  <g id="anchor_quiz_006">
    <circle class="cls-3" cx="188.86" cy="2182.53" r="10"/>
    <rect class="cls-6" x="28.03" y="2133.91" width="318.93" height="97.24" rx="10" ry="10"/>
  </g>
  <g id="text_Kartunderlag_Koordinater">
    <text class="cls-4" transform="translate(240.83 20.74)"><tspan class="cls-8" x="0" y="0">K</tspan><tspan x="5.37" y="0">a</tspan><tspan class="cls-5" x="10.01" y="0">r</tspan><tspan x="13.38" y="0">tunde</tspan><tspan class="cls-2" x="37.45" y="0">r</tspan><tspan x="40.64" y="0">lag &amp; Koo</tspan><tspan class="cls-1" x="78.6" y="0">r</tspan><tspan x="81.65" y="0">din</tspan><tspan class="cls-9" x="94.67" y="0">a</tspan><tspan class="cls-10" x="99.27" y="0">t</tspan><tspan class="cls-7" x="102.4" y="0">er</tspan></text>
  </g>
</svg>