<?xml version="1.0" encoding="UTF-8"?>
<svg xmlns="http://www.w3.org/2000/svg" width="375" height="1581.9058" viewBox="0 0 375 1581.9058">
  <g id="anchor_bg">
    <polygon points="375 1662.9333 0 1662.3959 0 0 375 .5374 375 1662.9333" fill="#01c0d2"/>
  </g>
  <g id="anchor_read_001-2" data-name="anchor_read_001">
    <circle cx="72.3425" cy="169.2239" r="10" fill="#01c0d2"/>
  </g>
  <g id="anchor_quiz_001-2" data-name="anchor_quiz_001">
    <circle cx="316.9736" cy="364.9583" r="10" fill="#01c0d2"/>
  </g>
  <g id="anchor_read_002-2" data-name="anchor_read_002">
    <circle cx="209.656" cy="560.6926" r="10" fill="#01c0d2"/>
  </g>
  <g id="anchor_quiz_002-2" data-name="anchor_quiz_002">
    <circle cx="72.3425" cy="756.4269" r="10" fill="#01c0d2"/>
  </g>
  <g id="anchor_read_003-2" data-name="anchor_read_003">
    <circle cx="316.9736" cy="952.1612" r="10" fill="#01c0d2"/>
  </g>
  <g id="anchor_quiz_003-2" data-name="anchor_quiz_003">
    <circle cx="82.3425" cy="1147.8955" r="10" fill="#01c0d2"/>
  </g>
  <g id="anchor_quiz_004-2" data-name="anchor_quiz_004">
    <circle cx="188.2997" cy="1343.6298" r="10" fill="#01c0d2"/>
  </g>
  <g id="text_sjovagsmarken_markeringar">
    <text transform="translate(48.8237 78.2424)" fill="#0183e1" font-family="MyriadPro-Regular, &apos;Myriad Pro&apos;" font-size="22.3145"><tspan x="0" y="0" letter-spacing="-.004em">S</tspan><tspan x="10.9116" y="0">j</tspan><tspan x="16.334" y="0" letter-spacing="-.007em">ö</tspan><tspan x="28.4287" y="0" letter-spacing="-.004em">v</tspan><tspan x="39.0723" y="0" letter-spacing="0em">ägsmä</tspan><tspan x="100.5034" y="0" letter-spacing=".004em">r</tspan><tspan x="107.8896" y="0">ken &amp; </tspan><tspan x="164.8799" y="0" letter-spacing=".006em">M</tspan><tspan x="182.9541" y="0">a</tspan><tspan x="193.71" y="0" letter-spacing=".004em">r</tspan><tspan x="201.0957" y="0" letter-spacing="0em">ke</tspan><tspan x="222.7402" y="0" letter-spacing=".004em">r</tspan><tspan x="230.126" y="0">ingar</tspan></text>
  </g>
</svg>